<svg xmlns="http://www.w3.org/2000/svg" xmlns:xlink="http://www.w3.org/1999/xlink" width="1024" zoomAndPan="magnify" viewBox="0 0 768 576" height="768" preserveAspectRatio="xMidYMid meet" version="1.0"><defs><g/><clipPath id="5df4a5a410"><path d="M 704.027344 238.085938 L 768 238.085938 L 768 326.585938 L 704.027344 326.585938 Z M 704.027344 238.085938 " clip-rule="nonzero"/></clipPath><clipPath id="2420e05b9a"><path d="M 704.027344 238.085938 L 768 238.085938 L 768 315 L 704.027344 315 Z M 704.027344 238.085938 " clip-rule="nonzero"/></clipPath><clipPath id="6224d542e6"><path d="M 250.875 180.089844 L 517.125 180.089844 L 517.125 446.339844 L 250.875 446.339844 Z M 250.875 180.089844 " clip-rule="nonzero"/></clipPath><clipPath id="38a7d455d6"><path d="M 250.875 226 L 481 226 L 481 446.339844 L 250.875 446.339844 Z M 250.875 226 " clip-rule="nonzero"/></clipPath></defs><path fill="#404040" d="M 538.414062 483.421875 C 489.675781 483.421875 450.027344 443.804688 450.027344 395.113281 L 450.027344 247.832031 C 450.027344 213.953125 422.441406 186.386719 388.527344 186.386719 C 354.617188 186.386719 327.027344 213.949219 327.027344 247.832031 L 327.027344 253.128906 C 327.027344 295.210938 292.765625 329.445312 250.648438 329.445312 L 223.058594 329.445312 C 200.457031 329.445312 182.070312 347.8125 182.070312 370.394531 C 182.070312 415.929688 144.996094 452.972656 99.421875 452.972656 L -5.03125 452.972656 L -5.03125 411.347656 L 99.421875 411.347656 C 122.019531 411.347656 140.40625 392.976562 140.40625 370.394531 C 140.40625 324.863281 177.484375 287.816406 223.058594 287.816406 L 250.648438 287.816406 C 269.792969 287.816406 285.367188 272.257812 285.367188 253.128906 L 285.367188 247.832031 C 285.367188 191 331.644531 144.761719 388.527344 144.761719 C 445.410156 144.761719 491.6875 190.996094 491.6875 247.832031 L 491.6875 395.113281 C 491.6875 420.855469 512.648438 441.796875 538.410156 441.796875 C 564.175781 441.796875 585.132812 420.851562 585.132812 395.113281 L 585.132812 381.875 C 585.132812 315.507812 639.171875 261.511719 705.597656 261.511719 L 705.597656 303.140625 C 662.144531 303.140625 626.796875 338.457031 626.796875 381.875 L 626.796875 395.113281 C 626.796875 443.804688 587.148438 483.421875 538.414062 483.421875 Z M 538.414062 483.421875 " fill-opacity="1" fill-rule="nonzero"/><path fill="#ffffff" d="M 2.605469 433.644531 L -4.335938 433.644531 C -5.105469 433.644531 -5.726562 433.023438 -5.726562 432.257812 C -5.726562 431.492188 -5.105469 430.871094 -4.335938 430.871094 L 2.605469 430.871094 C 3.371094 430.871094 3.996094 431.492188 3.996094 432.257812 C 3.996094 433.023438 3.371094 433.644531 2.605469 433.644531 Z M 2.605469 433.644531 " fill-opacity="1" fill-rule="nonzero"/><path fill="#ffffff" d="M 535 463.96875 C 534.972656 463.96875 534.941406 463.96875 534.914062 463.96875 C 531.378906 463.753906 527.839844 463.269531 524.398438 462.523438 C 523.648438 462.359375 523.171875 461.621094 523.335938 460.871094 C 523.5 460.121094 524.234375 459.648438 524.988281 459.8125 C 528.292969 460.527344 531.6875 460.996094 535.082031 461.199219 C 535.847656 461.242188 536.429688 461.902344 536.382812 462.667969 C 536.339844 463.402344 535.726562 463.96875 535 463.96875 Z M 545.398438 463.804688 C 544.6875 463.804688 544.082031 463.265625 544.015625 462.542969 C 543.945312 461.78125 544.507812 461.105469 545.269531 461.035156 C 548.65625 460.722656 552.03125 460.144531 555.3125 459.320312 C 556.054688 459.136719 556.8125 459.582031 557 460.328125 C 557.1875 461.070312 556.734375 461.824219 555.992188 462.011719 C 552.574219 462.871094 549.054688 463.472656 545.527344 463.796875 C 545.480469 463.800781 545.4375 463.804688 545.398438 463.804688 Z M 514.730469 459.566406 C 514.5625 459.566406 514.394531 459.535156 514.230469 459.472656 C 510.941406 458.199219 507.71875 456.65625 504.660156 454.890625 C 503.996094 454.507812 503.769531 453.660156 504.152344 452.996094 C 504.539062 452.332031 505.386719 452.105469 506.050781 452.488281 C 508.988281 454.183594 512.074219 455.664062 515.230469 456.882812 C 515.949219 457.160156 516.304688 457.964844 516.027344 458.679688 C 515.8125 459.230469 515.289062 459.566406 514.730469 459.566406 Z M 565.515625 458.742188 C 564.976562 458.742188 564.460938 458.421875 564.238281 457.894531 C 563.9375 457.191406 564.265625 456.375 564.972656 456.074219 C 568.089844 454.753906 571.132812 453.171875 574.015625 451.378906 C 574.667969 450.972656 575.523438 451.171875 575.929688 451.824219 C 576.332031 452.476562 576.132812 453.332031 575.480469 453.734375 C 572.476562 455.601562 569.308594 457.25 566.058594 458.628906 C 565.882812 458.703125 565.699219 458.742188 565.515625 458.742188 Z M 496.777344 449.203125 C 496.46875 449.203125 496.164062 449.101562 495.90625 448.894531 C 493.15625 446.683594 490.550781 444.238281 488.171875 441.632812 C 487.65625 441.066406 487.695312 440.1875 488.261719 439.671875 C 488.828125 439.15625 489.707031 439.195312 490.222656 439.761719 C 492.507812 442.265625 495.007812 444.609375 497.648438 446.734375 C 498.242188 447.214844 498.339844 448.089844 497.859375 448.683594 C 497.585938 449.023438 497.183594 449.203125 496.777344 449.203125 Z M 583.136719 447.789062 C 582.746094 447.789062 582.355469 447.625 582.082031 447.308594 C 581.582031 446.726562 581.648438 445.851562 582.230469 445.351562 C 584.800781 443.140625 587.21875 440.714844 589.421875 438.140625 C 589.921875 437.558594 590.796875 437.488281 591.378906 437.988281 C 591.960938 438.484375 592.03125 439.359375 591.535156 439.941406 C 589.238281 442.625 586.71875 445.152344 584.039062 447.453125 C 583.777344 447.679688 583.457031 447.789062 583.136719 447.789062 Z M 482.796875 433.890625 C 482.347656 433.890625 481.902344 433.671875 481.636719 433.269531 C 479.679688 430.328125 477.9375 427.210938 476.460938 424.007812 C 476.140625 423.308594 476.445312 422.484375 477.140625 422.164062 C 477.835938 421.84375 478.660156 422.148438 478.980469 422.84375 C 480.398438 425.917969 482.070312 428.910156 483.949219 431.734375 C 484.375 432.375 484.199219 433.234375 483.5625 433.660156 C 483.324219 433.816406 483.058594 433.890625 482.796875 433.890625 Z M 100.117188 433.644531 L 99.964844 433.644531 C 99.199219 433.644531 98.574219 433.023438 98.574219 432.257812 C 98.574219 431.492188 99.199219 430.871094 99.964844 430.871094 L 100.117188 430.871094 C 103.464844 430.871094 106.824219 430.59375 110.101562 430.050781 C 110.855469 429.921875 111.574219 430.433594 111.699219 431.191406 C 111.824219 431.949219 111.3125 432.660156 110.558594 432.789062 C 107.128906 433.355469 103.617188 433.644531 100.117188 433.644531 Z M 89.550781 433.644531 L 79.132812 433.644531 C 78.367188 433.644531 77.746094 433.023438 77.746094 432.257812 C 77.746094 431.492188 78.367188 430.871094 79.132812 430.871094 L 89.550781 430.871094 C 90.316406 430.871094 90.9375 431.492188 90.9375 432.257812 C 90.9375 433.023438 90.316406 433.644531 89.550781 433.644531 Z M 68.71875 433.644531 L 58.304688 433.644531 C 57.535156 433.644531 56.914062 433.023438 56.914062 432.257812 C 56.914062 431.492188 57.535156 430.871094 58.304688 430.871094 L 68.71875 430.871094 C 69.484375 430.871094 70.105469 431.492188 70.105469 432.257812 C 70.105469 433.023438 69.484375 433.644531 68.71875 433.644531 Z M 47.886719 433.644531 L 37.472656 433.644531 C 36.707031 433.644531 36.082031 433.023438 36.082031 432.257812 C 36.082031 431.492188 36.707031 430.871094 37.472656 430.871094 L 47.886719 430.871094 C 48.652344 430.871094 49.277344 431.492188 49.277344 432.257812 C 49.277344 433.023438 48.652344 433.644531 47.886719 433.644531 Z M 27.054688 433.644531 L 16.640625 433.644531 C 15.875 433.644531 15.253906 433.023438 15.253906 432.257812 C 15.253906 431.492188 15.875 430.871094 16.640625 430.871094 L 27.054688 430.871094 C 27.824219 430.871094 28.445312 431.492188 28.445312 432.257812 C 28.445312 433.023438 27.824219 433.644531 27.054688 433.644531 Z M 596.609375 432.035156 C 596.363281 432.035156 596.109375 431.96875 595.882812 431.828125 C 595.230469 431.425781 595.027344 430.570312 595.429688 429.917969 C 597.214844 427.035156 598.785156 423.992188 600.101562 420.878906 C 600.398438 420.171875 601.210938 419.839844 601.917969 420.140625 C 602.625 420.4375 602.957031 421.25 602.660156 421.957031 C 601.289062 425.203125 599.652344 428.375 597.792969 431.378906 C 597.53125 431.800781 597.074219 432.035156 596.609375 432.035156 Z M 120.40625 430.242188 C 119.832031 430.242188 119.296875 429.882812 119.097656 429.308594 C 118.84375 428.585938 119.226562 427.792969 119.953125 427.542969 C 123.148438 426.433594 126.273438 425.042969 129.242188 423.410156 C 129.914062 423.039062 130.757812 423.28125 131.128906 423.953125 C 131.496094 424.625 131.253906 425.46875 130.582031 425.839844 C 127.476562 427.550781 124.207031 429.003906 120.863281 430.164062 C 120.710938 430.21875 120.558594 430.242188 120.40625 430.242188 Z M 138.566406 420.246094 C 138.160156 420.246094 137.753906 420.066406 137.480469 419.722656 C 137.003906 419.125 137.101562 418.25 137.703125 417.773438 C 140.351562 415.667969 142.84375 413.324219 145.105469 410.804688 C 145.617188 410.234375 146.496094 410.1875 147.066406 410.699219 C 147.636719 411.210938 147.683594 412.089844 147.171875 412.660156 C 144.808594 415.289062 142.203125 417.742188 139.433594 419.945312 C 139.175781 420.148438 138.871094 420.246094 138.566406 420.246094 Z M 474.109375 415.058594 C 473.503906 415.058594 472.949219 414.660156 472.777344 414.050781 C 471.8125 410.65625 471.105469 407.160156 470.679688 403.652344 C 470.585938 402.890625 471.125 402.199219 471.886719 402.105469 C 472.652344 402.019531 473.34375 402.554688 473.433594 403.316406 C 473.847656 406.683594 474.523438 410.039062 475.449219 413.292969 C 475.65625 414.03125 475.230469 414.796875 474.492188 415.007812 C 474.363281 415.042969 474.234375 415.058594 474.109375 415.058594 Z M 604.667969 412.945312 C 604.554688 412.945312 604.445312 412.929688 604.332031 412.902344 C 603.585938 412.71875 603.132812 411.964844 603.320312 411.222656 C 604.136719 407.941406 604.703125 404.5625 605.007812 401.183594 C 605.074219 400.417969 605.746094 399.863281 606.511719 399.925781 C 607.277344 399.992188 607.839844 400.667969 607.773438 401.429688 C 607.457031 404.953125 606.863281 408.472656 606.011719 411.890625 C 605.855469 412.523438 605.289062 412.945312 604.667969 412.945312 Z M 152.410156 404.832031 C 152.15625 404.832031 151.898438 404.761719 151.667969 404.617188 C 151.019531 404.207031 150.828125 403.351562 151.238281 402.703125 C 153.046875 399.839844 154.625 396.808594 155.921875 393.695312 C 156.21875 392.984375 157.03125 392.652344 157.738281 392.945312 C 158.445312 393.242188 158.78125 394.054688 158.488281 394.761719 C 157.128906 398.019531 155.480469 401.191406 153.585938 404.1875 C 153.320312 404.605469 152.871094 404.832031 152.410156 404.832031 Z M 471.554688 394.488281 C 470.785156 394.488281 470.164062 393.867188 470.164062 393.101562 L 470.164062 382.695312 C 470.164062 381.929688 470.785156 381.308594 471.554688 381.308594 C 472.320312 381.308594 472.941406 381.929688 472.941406 382.695312 L 472.941406 393.101562 C 472.941406 393.867188 472.320312 394.488281 471.554688 394.488281 Z M 606.660156 392.296875 C 605.894531 392.296875 605.269531 391.675781 605.269531 390.910156 L 605.269531 381.972656 C 605.269531 381.472656 605.273438 380.980469 605.28125 380.484375 C 605.292969 379.722656 605.914062 379.117188 606.671875 379.117188 C 606.679688 379.117188 606.683594 379.117188 606.691406 379.117188 C 607.457031 379.128906 608.070312 379.757812 608.058594 380.527344 C 608.050781 381.007812 608.046875 381.488281 608.046875 381.96875 L 608.046875 390.910156 C 608.046875 391.675781 607.425781 392.296875 606.660156 392.296875 Z M 160.378906 385.71875 C 160.273438 385.71875 160.171875 385.707031 160.066406 385.683594 C 159.320312 385.515625 158.851562 384.769531 159.023438 384.023438 C 159.773438 380.734375 160.253906 377.351562 160.449219 373.964844 C 160.492188 373.199219 161.148438 372.621094 161.914062 372.65625 C 162.679688 372.703125 163.265625 373.359375 163.21875 374.121094 C 163.019531 377.664062 162.515625 381.203125 161.730469 384.640625 C 161.582031 385.285156 161.011719 385.71875 160.378906 385.71875 Z M 471.554688 373.675781 C 470.785156 373.675781 470.164062 373.054688 470.164062 372.289062 L 470.164062 361.882812 C 470.164062 361.117188 470.785156 360.496094 471.554688 360.496094 C 472.320312 360.496094 472.941406 361.117188 472.941406 361.882812 L 472.941406 372.289062 C 472.941406 373.054688 472.320312 373.675781 471.554688 373.675781 Z M 607.359375 371.519531 C 607.304688 371.519531 607.25 371.515625 607.195312 371.507812 C 606.433594 371.417969 605.886719 370.726562 605.976562 369.964844 C 606.390625 366.484375 606.992188 362.988281 607.765625 359.574219 C 607.9375 358.828125 608.679688 358.359375 609.429688 358.527344 C 610.175781 358.695312 610.644531 359.441406 610.476562 360.1875 C 609.722656 363.507812 609.136719 366.90625 608.738281 370.292969 C 608.652344 371 608.054688 371.519531 607.359375 371.519531 Z M 162.308594 365.042969 C 162.257812 365.042969 162.207031 365.042969 162.15625 365.035156 C 161.394531 364.953125 160.84375 364.265625 160.929688 363.503906 C 161.316406 359.984375 162.007812 356.476562 162.980469 353.078125 C 163.191406 352.34375 163.960938 351.917969 164.695312 352.128906 C 165.433594 352.339844 165.859375 353.105469 165.648438 353.84375 C 164.71875 357.089844 164.058594 360.441406 163.6875 363.808594 C 163.609375 364.519531 163.007812 365.042969 162.308594 365.042969 Z M 471.554688 352.863281 C 470.785156 352.863281 470.164062 352.242188 470.164062 351.476562 L 470.164062 341.070312 C 470.164062 340.304688 470.785156 339.679688 471.554688 339.679688 C 472.320312 339.679688 472.941406 340.304688 472.941406 341.070312 L 472.941406 351.476562 C 472.941406 352.242188 472.320312 352.863281 471.554688 352.863281 Z M 611.953125 351.257812 C 611.804688 351.257812 611.65625 351.230469 611.507812 351.183594 C 610.78125 350.933594 610.394531 350.148438 610.640625 349.421875 C 611.769531 346.109375 613.089844 342.8125 614.5625 339.628906 C 614.886719 338.933594 615.710938 338.628906 616.40625 338.949219 C 617.101562 339.273438 617.40625 340.097656 617.085938 340.792969 C 615.652344 343.890625 614.367188 347.09375 613.269531 350.316406 C 613.074219 350.894531 612.53125 351.257812 611.953125 351.257812 Z M 168.015625 345.132812 C 167.8125 345.132812 167.609375 345.089844 167.414062 344.996094 C 166.722656 344.664062 166.429688 343.835938 166.765625 343.144531 C 168.296875 339.960938 170.117188 336.878906 172.167969 333.992188 C 172.613281 333.367188 173.480469 333.21875 174.105469 333.660156 C 174.730469 334.105469 174.878906 334.972656 174.433594 335.597656 C 172.472656 338.359375 170.734375 341.304688 169.265625 344.347656 C 169.027344 344.84375 168.53125 345.132812 168.015625 345.132812 Z M 620.6875 332.398438 C 620.441406 332.398438 620.199219 332.335938 619.976562 332.203125 C 619.316406 331.8125 619.101562 330.960938 619.496094 330.300781 C 621.289062 327.300781 623.265625 324.351562 625.371094 321.539062 C 625.832031 320.925781 626.699219 320.800781 627.316406 321.261719 C 627.929688 321.71875 628.054688 322.589844 627.59375 323.203125 C 625.546875 325.9375 623.625 328.804688 621.878906 331.722656 C 621.617188 332.15625 621.15625 332.398438 620.6875 332.398438 Z M 471.554688 332.050781 C 470.785156 332.050781 470.164062 331.429688 470.164062 330.664062 L 470.164062 320.257812 C 470.164062 319.488281 470.785156 318.867188 471.554688 318.867188 C 472.320312 318.867188 472.941406 319.488281 472.941406 320.257812 L 472.941406 330.664062 C 472.941406 331.429688 472.320312 332.050781 471.554688 332.050781 Z M 180.007812 328.238281 C 179.65625 328.238281 179.296875 328.101562 179.027344 327.832031 C 178.484375 327.292969 178.484375 326.414062 179.027344 325.871094 C 181.527344 323.367188 184.261719 321.058594 187.144531 319.007812 C 187.769531 318.5625 188.636719 318.707031 189.078125 319.332031 C 189.523438 319.957031 189.378906 320.824219 188.753906 321.269531 C 185.996094 323.230469 183.386719 325.4375 180.992188 327.832031 C 180.722656 328.101562 180.363281 328.238281 180.007812 328.238281 Z M 196.898438 316.234375 C 196.378906 316.234375 195.882812 315.945312 195.644531 315.449219 C 195.3125 314.761719 195.601562 313.929688 196.292969 313.597656 C 199.480469 312.058594 202.824219 310.78125 206.226562 309.800781 C 206.960938 309.589844 207.730469 310.011719 207.945312 310.75 C 208.15625 311.488281 207.730469 312.253906 206.996094 312.46875 C 203.742188 313.402344 200.550781 314.625 197.5 316.09375 C 197.304688 316.191406 197.097656 316.234375 196.898438 316.234375 Z M 633.144531 315.769531 C 632.808594 315.769531 632.46875 315.644531 632.203125 315.398438 C 631.640625 314.878906 631.605469 314 632.128906 313.4375 C 634.507812 310.871094 637.050781 308.394531 639.6875 306.082031 C 640.265625 305.574219 641.140625 305.632812 641.648438 306.210938 C 642.152344 306.785156 642.09375 307.660156 641.519531 308.167969 C 638.953125 310.417969 636.480469 312.824219 634.164062 315.324219 C 633.890625 315.617188 633.519531 315.769531 633.144531 315.769531 Z M 471.554688 311.238281 C 470.785156 311.238281 470.164062 310.617188 470.164062 309.847656 L 470.164062 299.441406 C 470.164062 298.675781 470.785156 298.054688 471.554688 298.054688 C 472.320312 298.054688 472.941406 298.675781 472.941406 299.441406 L 472.941406 309.847656 C 472.941406 310.617188 472.320312 311.238281 471.554688 311.238281 Z M 216.808594 310.5 C 216.109375 310.5 215.511719 309.976562 215.429688 309.265625 C 215.34375 308.503906 215.894531 307.820312 216.65625 307.734375 C 219 307.472656 221.386719 307.339844 223.753906 307.339844 L 227.210938 307.339844 C 227.976562 307.339844 228.597656 307.964844 228.597656 308.730469 C 228.597656 309.496094 227.976562 310.117188 227.210938 310.117188 L 223.753906 310.117188 C 221.488281 310.117188 219.203125 310.242188 216.964844 310.492188 C 216.914062 310.496094 216.859375 310.5 216.808594 310.5 Z M 248.039062 310.117188 L 237.625 310.117188 C 236.859375 310.117188 236.234375 309.496094 236.234375 308.730469 C 236.234375 307.964844 236.859375 307.339844 237.625 307.339844 L 248.039062 307.339844 C 248.808594 307.339844 249.429688 307.964844 249.429688 308.730469 C 249.429688 309.496094 248.808594 310.117188 248.039062 310.117188 Z M 258.433594 309.667969 C 257.742188 309.667969 257.144531 309.15625 257.054688 308.457031 C 256.960938 307.695312 257.5 307 258.257812 306.902344 C 261.613281 306.476562 264.941406 305.730469 268.148438 304.6875 C 268.875 304.445312 269.660156 304.847656 269.898438 305.574219 C 270.136719 306.304688 269.738281 307.085938 269.007812 307.324219 C 265.636719 308.421875 262.136719 309.207031 258.609375 309.65625 C 258.550781 309.664062 258.492188 309.667969 258.433594 309.667969 Z M 278.117188 303.253906 C 277.628906 303.253906 277.152344 302.996094 276.898438 302.539062 C 276.527344 301.867188 276.773438 301.023438 277.445312 300.652344 C 280.398438 299.027344 283.222656 297.109375 285.828125 294.957031 C 286.417969 294.46875 287.292969 294.550781 287.78125 295.140625 C 288.273438 295.730469 288.1875 296.605469 287.597656 297.09375 C 284.855469 299.359375 281.890625 301.371094 278.785156 303.082031 C 278.574219 303.199219 278.34375 303.253906 278.117188 303.253906 Z M 648.773438 302.066406 C 648.335938 302.066406 647.910156 301.863281 647.636719 301.484375 C 647.195312 300.859375 647.34375 299.992188 647.96875 299.546875 C 650.832031 297.523438 653.832031 295.625 656.886719 293.914062 C 657.554688 293.535156 658.402344 293.777344 658.777344 294.441406 C 659.152344 295.109375 658.914062 295.957031 658.246094 296.332031 C 655.273438 298 652.359375 299.84375 649.574219 301.8125 C 649.332031 301.984375 649.050781 302.066406 648.773438 302.066406 Z M 666.890625 291.902344 C 666.351562 291.902344 665.839844 291.585938 665.613281 291.0625 C 665.308594 290.359375 665.636719 289.542969 666.339844 289.238281 C 669.558594 287.851562 672.890625 286.621094 676.238281 285.578125 C 676.972656 285.351562 677.75 285.757812 677.976562 286.492188 C 678.207031 287.222656 677.796875 288 677.066406 288.230469 C 673.808594 289.242188 670.570312 290.4375 667.441406 291.789062 C 667.257812 291.863281 667.074219 291.902344 666.890625 291.902344 Z M 471.554688 290.425781 C 470.785156 290.425781 470.164062 289.800781 470.164062 289.035156 L 470.164062 278.628906 C 470.164062 277.863281 470.785156 277.242188 471.554688 277.242188 C 472.320312 277.242188 472.941406 277.863281 472.941406 278.628906 L 472.941406 289.035156 C 472.941406 289.800781 472.320312 290.425781 471.554688 290.425781 Z M 294.078125 290.074219 C 293.765625 290.074219 293.449219 289.96875 293.191406 289.753906 C 292.601562 289.265625 292.519531 288.390625 293.011719 287.800781 C 295.171875 285.199219 297.101562 282.390625 298.734375 279.441406 C 299.109375 278.769531 299.953125 278.53125 300.625 278.902344 C 301.296875 279.273438 301.535156 280.117188 301.164062 280.789062 C 299.445312 283.886719 297.417969 286.84375 295.144531 289.574219 C 294.871094 289.90625 294.476562 290.074219 294.078125 290.074219 Z M 686.738281 285.726562 C 686.085938 285.726562 685.507812 285.269531 685.375 284.613281 C 685.226562 283.859375 685.714844 283.128906 686.46875 282.980469 C 688.351562 282.605469 690.273438 282.28125 692.179688 282.011719 C 692.929688 281.90625 693.640625 282.4375 693.746094 283.195312 C 693.851562 283.953125 693.324219 284.65625 692.5625 284.761719 C 690.710938 285.019531 688.84375 285.335938 687.011719 285.703125 C 686.917969 285.71875 686.824219 285.726562 686.738281 285.726562 Z M 304.117188 271.984375 C 303.972656 271.984375 303.828125 271.964844 303.683594 271.917969 C 302.953125 271.675781 302.558594 270.890625 302.796875 270.164062 C 303.851562 266.964844 304.609375 263.640625 305.046875 260.289062 C 305.144531 259.53125 305.839844 258.996094 306.605469 259.09375 C 307.363281 259.191406 307.898438 259.890625 307.800781 260.648438 C 307.339844 264.171875 306.542969 267.667969 305.4375 271.03125 C 305.246094 271.617188 304.699219 271.984375 304.117188 271.984375 Z M 471.554688 269.609375 C 470.785156 269.609375 470.164062 268.988281 470.164062 268.222656 L 470.164062 257.816406 C 470.164062 257.050781 470.785156 256.429688 471.554688 256.429688 C 472.320312 256.429688 472.941406 257.050781 472.941406 257.816406 L 472.941406 268.222656 C 472.941406 268.988281 472.320312 269.609375 471.554688 269.609375 Z M 306.890625 251.472656 C 306.125 251.472656 305.503906 250.851562 305.503906 250.085938 L 305.503906 247.929688 C 305.503906 245.136719 305.644531 242.320312 305.917969 239.558594 C 305.992188 238.796875 306.675781 238.234375 307.4375 238.316406 C 308.199219 238.390625 308.757812 239.070312 308.683594 239.832031 C 308.414062 242.503906 308.28125 245.226562 308.28125 247.929688 L 308.28125 250.085938 C 308.28125 250.851562 307.660156 251.472656 306.890625 251.472656 Z M 471.550781 248.796875 C 470.789062 248.796875 470.167969 248.183594 470.164062 247.417969 C 470.140625 244.007812 469.90625 240.574219 469.460938 237.222656 C 469.359375 236.460938 469.894531 235.765625 470.65625 235.664062 C 471.414062 235.566406 472.113281 236.097656 472.214844 236.859375 C 472.675781 240.328125 472.917969 243.875 472.941406 247.402344 C 472.945312 248.167969 472.328125 248.792969 471.5625 248.796875 C 471.558594 248.796875 471.554688 248.796875 471.550781 248.796875 Z M 308.984375 230.824219 C 308.878906 230.824219 308.773438 230.8125 308.671875 230.789062 C 307.921875 230.617188 307.457031 229.875 307.628906 229.125 C 308.414062 225.699219 309.433594 222.289062 310.652344 218.984375 C 310.917969 218.265625 311.71875 217.902344 312.433594 218.164062 C 313.152344 218.429688 313.523438 219.226562 313.257812 219.945312 C 312.078125 223.136719 311.097656 226.433594 310.335938 229.746094 C 310.1875 230.390625 309.613281 230.824219 308.984375 230.824219 Z M 468.820312 228.226562 C 468.207031 228.226562 467.644531 227.816406 467.480469 227.195312 C 466.609375 223.910156 465.519531 220.648438 464.242188 217.5 C 463.953125 216.792969 464.292969 215.980469 465.003906 215.691406 C 465.714844 215.402344 466.523438 215.746094 466.8125 216.457031 C 468.136719 219.710938 469.265625 223.085938 470.164062 226.484375 C 470.359375 227.226562 469.917969 227.984375 469.175781 228.183594 C 469.058594 228.214844 468.9375 228.226562 468.820312 228.226562 Z M 316.167969 211.34375 C 315.953125 211.34375 315.734375 211.292969 315.527344 211.1875 C 314.847656 210.832031 314.585938 209.992188 314.9375 209.3125 C 316.5625 206.203125 318.40625 203.160156 320.417969 200.265625 C 320.855469 199.636719 321.71875 199.480469 322.347656 199.917969 C 322.980469 200.355469 323.136719 201.21875 322.699219 201.847656 C 320.753906 204.644531 318.972656 207.589844 317.402344 210.597656 C 317.15625 211.070312 316.671875 211.34375 316.167969 211.34375 Z M 461.011719 209.007812 C 460.523438 209.007812 460.054688 208.753906 459.800781 208.300781 C 458.132812 205.34375 456.253906 202.460938 454.226562 199.734375 C 453.769531 199.121094 453.898438 198.25 454.511719 197.792969 C 455.128906 197.335938 456 197.464844 456.457031 198.078125 C 458.554688 200.898438 460.492188 203.878906 462.21875 206.941406 C 462.59375 207.609375 462.359375 208.453125 461.691406 208.828125 C 461.476562 208.953125 461.242188 209.007812 461.011719 209.007812 Z M 328.019531 194.292969 C 327.6875 194.292969 327.359375 194.175781 327.09375 193.9375 C 326.523438 193.425781 326.476562 192.546875 326.988281 191.976562 C 329.339844 189.367188 331.882812 186.878906 334.550781 184.582031 C 335.128906 184.082031 336.003906 184.144531 336.507812 184.726562 C 337.007812 185.304688 336.945312 186.183594 336.363281 186.683594 C 333.789062 188.90625 331.328125 191.3125 329.054688 193.835938 C 328.78125 194.140625 328.402344 194.292969 328.019531 194.292969 Z M 448.621094 192.355469 C 448.257812 192.355469 447.894531 192.214844 447.621094 191.929688 C 445.261719 189.476562 442.726562 187.148438 440.085938 185.015625 C 439.488281 184.53125 439.394531 183.660156 439.878906 183.0625 C 440.359375 182.46875 441.234375 182.375 441.832031 182.855469 C 444.5625 185.066406 447.183594 187.472656 449.625 190.007812 C 450.15625 190.5625 450.136719 191.4375 449.582031 191.96875 C 449.316406 192.230469 448.96875 192.355469 448.621094 192.355469 Z M 343.746094 180.734375 C 343.296875 180.734375 342.855469 180.519531 342.585938 180.117188 C 342.164062 179.476562 342.335938 178.617188 342.976562 178.191406 C 345.910156 176.246094 348.992188 174.472656 352.140625 172.917969 C 352.828125 172.574219 353.660156 172.859375 354 173.542969 C 354.339844 174.230469 354.058594 175.0625 353.371094 175.402344 C 350.328125 176.90625 347.347656 178.625 344.511719 180.503906 C 344.277344 180.660156 344.007812 180.734375 343.746094 180.734375 Z M 432.464844 179.308594 C 432.21875 179.308594 431.964844 179.238281 431.738281 179.101562 C 428.839844 177.308594 425.800781 175.6875 422.710938 174.28125 C 422.011719 173.964844 421.703125 173.140625 422.023438 172.445312 C 422.339844 171.746094 423.164062 171.4375 423.859375 171.757812 C 427.058594 173.210938 430.203125 174.886719 433.199219 176.738281 C 433.847656 177.140625 434.050781 177.996094 433.648438 178.648438 C 433.386719 179.074219 432.929688 179.308594 432.464844 179.308594 Z M 362.355469 171.539062 C 361.78125 171.539062 361.242188 171.175781 361.042969 170.601562 C 360.792969 169.878906 361.175781 169.085938 361.902344 168.835938 C 365.226562 167.691406 368.660156 166.75 372.105469 166.03125 C 372.859375 165.875 373.589844 166.359375 373.746094 167.109375 C 373.902344 167.859375 373.421875 168.59375 372.667969 168.75 C 369.335938 169.441406 366.019531 170.355469 362.808594 171.460938 C 362.660156 171.511719 362.503906 171.539062 362.355469 171.539062 Z M 413.554688 170.710938 C 413.417969 170.710938 413.28125 170.6875 413.144531 170.648438 C 409.898438 169.644531 406.550781 168.84375 403.199219 168.257812 C 402.445312 168.128906 401.9375 167.410156 402.070312 166.65625 C 402.199219 165.898438 402.917969 165.390625 403.675781 165.527344 C 407.144531 166.128906 410.605469 166.960938 413.964844 167.996094 C 414.695312 168.222656 415.105469 169 414.878906 169.730469 C 414.695312 170.328125 414.148438 170.710938 413.554688 170.710938 Z M 382.6875 167.3125 C 381.96875 167.3125 381.363281 166.761719 381.304688 166.035156 C 381.246094 165.269531 381.816406 164.601562 382.582031 164.542969 C 386.070312 164.269531 389.640625 164.210938 393.160156 164.375 C 393.925781 164.410156 394.515625 165.058594 394.480469 165.824219 C 394.445312 166.589844 393.820312 167.1875 393.027344 167.144531 C 389.625 166.988281 386.171875 167.042969 382.796875 167.308594 C 382.761719 167.3125 382.726562 167.3125 382.6875 167.3125 Z M 382.6875 167.3125 " fill-opacity="1" fill-rule="nonzero"/><path fill="#ffffff" d="M 699.351562 284.050781 C 698.628906 284.050781 698.015625 283.488281 697.96875 282.757812 C 697.914062 281.992188 698.492188 281.328125 699.257812 281.277344 C 701.585938 281.117188 703.953125 281.035156 706.292969 281.035156 L 706.292969 283.8125 C 704.015625 283.8125 701.714844 283.890625 699.449219 284.046875 C 699.414062 284.046875 699.382812 284.050781 699.351562 284.050781 Z M 699.351562 284.050781 " fill-opacity="1" fill-rule="nonzero"/><g clip-path="url(#5df4a5a410)"><path fill="#404040" d="M 1222.382812 333.484375 C 1173.648438 333.484375 1134 293.867188 1134 245.175781 L 1134 97.894531 C 1134 64.015625 1106.410156 36.449219 1072.5 36.449219 C 1038.589844 36.449219 1011 64.011719 1011 97.894531 L 1011 103.191406 C 1011 145.273438 976.738281 179.507812 934.621094 179.507812 L 907.03125 179.507812 C 884.429688 179.507812 866.042969 197.878906 866.042969 220.457031 C 866.042969 265.992188 828.964844 303.035156 783.394531 303.035156 L 678.941406 303.035156 L 678.941406 261.410156 L 783.394531 261.410156 C 805.992188 261.410156 824.378906 243.039062 824.378906 220.457031 C 824.378906 174.925781 861.457031 137.882812 907.027344 137.882812 L 934.621094 137.882812 C 953.761719 137.882812 969.339844 122.320312 969.339844 103.191406 L 969.339844 97.894531 C 969.339844 41.0625 1015.617188 -5.175781 1072.5 -5.175781 C 1129.382812 -5.175781 1175.660156 41.0625 1175.660156 97.894531 L 1175.660156 245.175781 C 1175.660156 270.917969 1196.621094 291.859375 1222.382812 291.859375 C 1248.144531 291.859375 1269.105469 270.917969 1269.105469 245.175781 L 1269.105469 231.9375 C 1269.105469 165.570312 1323.144531 111.574219 1389.570312 111.574219 L 1389.570312 153.203125 C 1346.117188 153.203125 1310.769531 188.523438 1310.769531 231.9375 L 1310.769531 245.175781 C 1310.769531 293.867188 1271.121094 333.484375 1222.382812 333.484375 Z M 1222.382812 333.484375 " fill-opacity="1" fill-rule="nonzero"/></g><g clip-path="url(#2420e05b9a)"><path fill="#ffffff" d="M 1218.96875 314.035156 C 1218.941406 314.035156 1218.914062 314.03125 1218.886719 314.03125 C 1215.351562 313.816406 1211.8125 313.332031 1208.371094 312.585938 C 1207.621094 312.421875 1207.144531 311.683594 1207.308594 310.933594 C 1207.472656 310.1875 1208.207031 309.710938 1208.960938 309.875 C 1212.265625 310.589844 1215.660156 311.058594 1219.050781 311.261719 C 1219.820312 311.304688 1220.402344 311.964844 1220.355469 312.730469 C 1220.3125 313.464844 1219.699219 314.035156 1218.96875 314.035156 Z M 1229.367188 313.867188 C 1228.660156 313.867188 1228.054688 313.328125 1227.988281 312.605469 C 1227.917969 311.84375 1228.476562 311.167969 1229.242188 311.097656 C 1232.625 310.785156 1236.003906 310.207031 1239.285156 309.382812 C 1240.027344 309.199219 1240.78125 309.648438 1240.96875 310.390625 C 1241.15625 311.132812 1240.707031 311.886719 1239.960938 312.074219 C 1236.546875 312.933594 1233.023438 313.535156 1229.5 313.859375 C 1229.453125 313.863281 1229.410156 313.867188 1229.367188 313.867188 Z M 1198.703125 309.628906 C 1198.535156 309.628906 1198.367188 309.597656 1198.203125 309.535156 C 1194.910156 308.261719 1191.691406 306.722656 1188.632812 304.953125 C 1187.96875 304.570312 1187.742188 303.722656 1188.125 303.058594 C 1188.507812 302.394531 1189.359375 302.167969 1190.023438 302.550781 C 1192.957031 304.246094 1196.046875 305.726562 1199.203125 306.945312 C 1199.917969 307.222656 1200.273438 308.027344 1200 308.742188 C 1199.785156 309.292969 1199.257812 309.628906 1198.703125 309.628906 Z M 1249.488281 308.804688 C 1248.949219 308.804688 1248.433594 308.488281 1248.210938 307.957031 C 1247.910156 307.253906 1248.238281 306.4375 1248.945312 306.136719 C 1252.0625 304.816406 1255.101562 303.234375 1257.988281 301.441406 C 1258.636719 301.035156 1259.496094 301.234375 1259.898438 301.886719 C 1260.304688 302.539062 1260.105469 303.394531 1259.453125 303.796875 C 1256.449219 305.664062 1253.277344 307.3125 1250.03125 308.691406 C 1249.855469 308.765625 1249.667969 308.804688 1249.488281 308.804688 Z M 1180.746094 299.265625 C 1180.441406 299.265625 1180.132812 299.164062 1179.878906 298.957031 C 1177.125 296.746094 1174.523438 294.300781 1172.144531 291.695312 C 1171.625 291.128906 1171.664062 290.25 1172.230469 289.734375 C 1172.800781 289.21875 1173.679688 289.257812 1174.195312 289.824219 C 1176.480469 292.328125 1178.980469 294.671875 1181.617188 296.796875 C 1182.214844 297.277344 1182.3125 298.152344 1181.828125 298.75 C 1181.554688 299.089844 1181.152344 299.265625 1180.746094 299.265625 Z M 1267.105469 297.851562 C 1266.714844 297.851562 1266.328125 297.6875 1266.050781 297.371094 C 1265.550781 296.789062 1265.617188 295.914062 1266.199219 295.414062 C 1268.773438 293.203125 1271.191406 290.777344 1273.394531 288.203125 C 1273.890625 287.621094 1274.769531 287.550781 1275.351562 288.050781 C 1275.933594 288.546875 1276.003906 289.421875 1275.503906 290.007812 C 1273.210938 292.6875 1270.691406 295.214844 1268.011719 297.515625 C 1267.75 297.742188 1267.425781 297.851562 1267.105469 297.851562 Z M 1166.765625 283.953125 C 1166.316406 283.953125 1165.875 283.738281 1165.609375 283.332031 C 1163.652344 280.390625 1161.910156 277.273438 1160.433594 274.070312 C 1160.113281 273.371094 1160.417969 272.546875 1161.113281 272.226562 C 1161.808594 271.90625 1162.632812 272.210938 1162.953125 272.90625 C 1164.371094 275.980469 1166.042969 278.972656 1167.921875 281.796875 C 1168.347656 282.4375 1168.171875 283.296875 1167.53125 283.722656 C 1167.296875 283.878906 1167.03125 283.953125 1166.765625 283.953125 Z M 784.085938 283.707031 L 783.9375 283.707031 C 783.171875 283.707031 782.546875 283.085938 782.546875 282.320312 C 782.546875 281.554688 783.171875 280.933594 783.9375 280.933594 L 784.085938 280.933594 C 787.4375 280.933594 790.796875 280.65625 794.074219 280.113281 C 794.828125 279.984375 795.546875 280.496094 795.671875 281.253906 C 795.796875 282.011719 795.285156 282.726562 794.527344 282.851562 C 791.101562 283.421875 787.589844 283.707031 784.085938 283.707031 Z M 773.519531 283.707031 L 763.105469 283.707031 C 762.339844 283.707031 761.71875 283.085938 761.71875 282.320312 C 761.71875 281.554688 762.339844 280.933594 763.105469 280.933594 L 773.519531 280.933594 C 774.289062 280.933594 774.910156 281.554688 774.910156 282.320312 C 774.910156 283.085938 774.289062 283.707031 773.519531 283.707031 Z M 752.691406 283.707031 L 742.273438 283.707031 C 741.507812 283.707031 740.886719 283.085938 740.886719 282.320312 C 740.886719 281.554688 741.507812 280.933594 742.273438 280.933594 L 752.691406 280.933594 C 753.457031 280.933594 754.078125 281.554688 754.078125 282.320312 C 754.078125 283.085938 753.457031 283.707031 752.691406 283.707031 Z M 731.859375 283.707031 L 721.445312 283.707031 C 720.675781 283.707031 720.054688 283.085938 720.054688 282.320312 C 720.054688 281.554688 720.675781 280.933594 721.445312 280.933594 L 731.859375 280.933594 C 732.625 280.933594 733.246094 281.554688 733.246094 282.320312 C 733.246094 283.085938 732.625 283.707031 731.859375 283.707031 Z M 711.027344 283.707031 L 700.613281 283.707031 C 699.847656 283.707031 699.222656 283.085938 699.222656 282.320312 C 699.222656 281.554688 699.847656 280.933594 700.613281 280.933594 L 711.027344 280.933594 C 711.792969 280.933594 712.417969 281.554688 712.417969 282.320312 C 712.417969 283.085938 711.792969 283.707031 711.027344 283.707031 Z M 1280.582031 282.097656 C 1280.332031 282.097656 1280.082031 282.03125 1279.851562 281.890625 C 1279.199219 281.488281 1279 280.632812 1279.402344 279.980469 C 1281.1875 277.097656 1282.757812 274.054688 1284.070312 270.941406 C 1284.371094 270.234375 1285.183594 269.902344 1285.890625 270.203125 C 1286.597656 270.5 1286.929688 271.3125 1286.632812 272.019531 C 1285.261719 275.265625 1283.625 278.4375 1281.765625 281.441406 C 1281.503906 281.863281 1281.046875 282.097656 1280.582031 282.097656 Z M 804.378906 280.304688 C 803.804688 280.304688 803.265625 279.945312 803.066406 279.371094 C 802.816406 278.648438 803.199219 277.859375 803.925781 277.605469 C 807.121094 276.496094 810.246094 275.105469 813.214844 273.472656 C 813.886719 273.101562 814.730469 273.34375 815.101562 274.015625 C 815.46875 274.6875 815.226562 275.53125 814.554688 275.902344 C 811.449219 277.613281 808.179688 279.066406 804.835938 280.226562 C 804.683594 280.28125 804.53125 280.304688 804.378906 280.304688 Z M 822.539062 270.308594 C 822.128906 270.308594 821.726562 270.128906 821.453125 269.785156 C 820.976562 269.1875 821.074219 268.3125 821.675781 267.835938 C 824.324219 265.730469 826.8125 263.386719 829.074219 260.867188 C 829.585938 260.296875 830.464844 260.25 831.039062 260.761719 C 831.609375 261.273438 831.65625 262.152344 831.144531 262.722656 C 828.777344 265.355469 826.175781 267.804688 823.402344 270.007812 C 823.148438 270.210938 822.84375 270.308594 822.539062 270.308594 Z M 1158.082031 265.121094 C 1157.476562 265.121094 1156.921875 264.722656 1156.746094 264.113281 C 1155.785156 260.722656 1155.078125 257.222656 1154.648438 253.714844 C 1154.554688 252.953125 1155.097656 252.261719 1155.859375 252.167969 C 1156.625 252.082031 1157.3125 252.617188 1157.40625 253.378906 C 1157.820312 256.746094 1158.496094 260.101562 1159.417969 263.355469 C 1159.628906 264.09375 1159.199219 264.859375 1158.460938 265.070312 C 1158.335938 265.105469 1158.207031 265.121094 1158.082031 265.121094 Z M 1288.640625 263.007812 C 1288.527344 263.007812 1288.414062 262.992188 1288.304688 262.964844 C 1287.558594 262.78125 1287.105469 262.027344 1287.289062 261.285156 C 1288.105469 258.003906 1288.675781 254.625 1288.976562 251.246094 C 1289.046875 250.480469 1289.71875 249.925781 1290.484375 249.988281 C 1291.25 250.054688 1291.8125 250.730469 1291.746094 251.492188 C 1291.429688 255.015625 1290.835938 258.535156 1289.984375 261.953125 C 1289.828125 262.585938 1289.261719 263.007812 1288.640625 263.007812 Z M 836.382812 254.894531 C 836.128906 254.894531 835.871094 254.824219 835.640625 254.679688 C 834.992188 254.269531 834.800781 253.414062 835.207031 252.765625 C 837.019531 249.902344 838.59375 246.871094 839.894531 243.757812 C 840.1875 243.046875 841.003906 242.714844 841.710938 243.007812 C 842.417969 243.304688 842.753906 244.117188 842.457031 244.824219 C 841.097656 248.082031 839.449219 251.253906 837.558594 254.25 C 837.292969 254.667969 836.839844 254.894531 836.382812 254.894531 Z M 1155.523438 244.550781 C 1154.757812 244.550781 1154.136719 243.929688 1154.136719 243.164062 L 1154.136719 232.757812 C 1154.136719 231.992188 1154.757812 231.371094 1155.523438 231.371094 C 1156.292969 231.371094 1156.914062 231.992188 1156.914062 232.757812 L 1156.914062 243.164062 C 1156.914062 243.929688 1156.292969 244.550781 1155.523438 244.550781 Z M 1290.632812 242.363281 C 1289.863281 242.363281 1289.242188 241.738281 1289.242188 240.972656 L 1289.242188 232.035156 C 1289.242188 231.539062 1289.246094 231.042969 1289.253906 230.546875 C 1289.265625 229.785156 1289.886719 229.179688 1290.640625 229.179688 C 1290.648438 229.179688 1290.65625 229.179688 1290.664062 229.179688 C 1291.429688 229.191406 1292.042969 229.824219 1292.03125 230.589844 C 1292.023438 231.070312 1292.019531 231.550781 1292.019531 232.035156 L 1292.019531 240.972656 C 1292.019531 241.738281 1291.398438 242.363281 1290.632812 242.363281 Z M 844.347656 235.78125 C 844.246094 235.78125 844.140625 235.769531 844.039062 235.746094 C 843.289062 235.578125 842.824219 234.832031 842.996094 234.085938 C 843.746094 230.796875 844.226562 227.414062 844.417969 224.027344 C 844.460938 223.261719 845.121094 222.683594 845.882812 222.722656 C 846.648438 222.765625 847.234375 223.421875 847.191406 224.183594 C 846.992188 227.726562 846.488281 231.265625 845.703125 234.703125 C 845.554688 235.347656 844.980469 235.78125 844.347656 235.78125 Z M 1155.523438 223.738281 C 1154.757812 223.738281 1154.136719 223.117188 1154.136719 222.351562 L 1154.136719 211.945312 C 1154.136719 211.179688 1154.757812 210.558594 1155.523438 210.558594 C 1156.292969 210.558594 1156.914062 211.179688 1156.914062 211.945312 L 1156.914062 222.351562 C 1156.914062 223.117188 1156.292969 223.738281 1155.523438 223.738281 Z M 1291.332031 221.582031 C 1291.277344 221.582031 1291.222656 221.578125 1291.164062 221.570312 C 1290.402344 221.480469 1289.859375 220.789062 1289.949219 220.027344 C 1290.363281 216.546875 1290.964844 213.050781 1291.738281 209.636719 C 1291.90625 208.890625 1292.652344 208.421875 1293.398438 208.589844 C 1294.148438 208.757812 1294.617188 209.503906 1294.449219 210.25 C 1293.695312 213.570312 1293.109375 216.96875 1292.707031 220.355469 C 1292.625 221.0625 1292.023438 221.582031 1291.332031 221.582031 Z M 846.28125 215.109375 C 846.230469 215.109375 846.179688 215.105469 846.128906 215.097656 C 845.367188 215.015625 844.816406 214.328125 844.898438 213.566406 C 845.289062 210.046875 845.976562 206.539062 846.949219 203.144531 C 847.160156 202.40625 847.929688 201.980469 848.667969 202.191406 C 849.40625 202.402344 849.832031 203.171875 849.621094 203.90625 C 848.691406 207.152344 848.03125 210.503906 847.660156 213.871094 C 847.582031 214.582031 846.980469 215.109375 846.28125 215.109375 Z M 1155.523438 202.925781 C 1154.757812 202.925781 1154.136719 202.304688 1154.136719 201.539062 L 1154.136719 191.132812 C 1154.136719 190.367188 1154.757812 189.746094 1155.523438 189.746094 C 1156.292969 189.746094 1156.914062 190.367188 1156.914062 191.132812 L 1156.914062 201.539062 C 1156.914062 202.304688 1156.292969 202.925781 1155.523438 202.925781 Z M 1295.925781 201.320312 C 1295.777344 201.320312 1295.628906 201.292969 1295.476562 201.246094 C 1294.753906 200.996094 1294.363281 200.210938 1294.609375 199.484375 C 1295.738281 196.171875 1297.058594 192.875 1298.535156 189.691406 C 1298.855469 188.996094 1299.679688 188.691406 1300.378906 189.011719 C 1301.074219 189.335938 1301.378906 190.160156 1301.054688 190.855469 C 1299.621094 193.953125 1298.339844 197.15625 1297.242188 200.378906 C 1297.046875 200.957031 1296.503906 201.320312 1295.925781 201.320312 Z M 851.988281 195.195312 C 851.785156 195.195312 851.578125 195.152344 851.386719 195.058594 C 850.695312 194.726562 850.402344 193.898438 850.734375 193.207031 C 852.269531 190.023438 854.085938 186.941406 856.140625 184.054688 C 856.582031 183.429688 857.449219 183.28125 858.074219 183.722656 C 858.703125 184.167969 858.847656 185.035156 858.40625 185.660156 C 856.441406 188.421875 854.703125 191.367188 853.238281 194.410156 C 853 194.90625 852.503906 195.195312 851.988281 195.195312 Z M 1304.65625 182.460938 C 1304.414062 182.460938 1304.167969 182.398438 1303.945312 182.265625 C 1303.289062 181.875 1303.074219 181.023438 1303.464844 180.363281 C 1305.261719 177.363281 1307.238281 174.414062 1309.34375 171.601562 C 1309.804688 170.988281 1310.671875 170.867188 1311.285156 171.324219 C 1311.902344 171.78125 1312.027344 172.652344 1311.566406 173.265625 C 1309.519531 176 1307.597656 178.867188 1305.851562 181.785156 C 1305.589844 182.222656 1305.128906 182.460938 1304.65625 182.460938 Z M 1155.523438 182.113281 C 1154.757812 182.113281 1154.136719 181.492188 1154.136719 180.726562 L 1154.136719 170.320312 C 1154.136719 169.554688 1154.757812 168.929688 1155.523438 168.929688 C 1156.292969 168.929688 1156.914062 169.554688 1156.914062 170.320312 L 1156.914062 180.726562 C 1156.914062 181.492188 1156.292969 182.113281 1155.523438 182.113281 Z M 863.980469 178.300781 C 863.625 178.300781 863.269531 178.164062 863 177.894531 C 862.457031 177.355469 862.457031 176.476562 863 175.933594 C 865.5 173.429688 868.230469 171.121094 871.113281 169.070312 C 871.742188 168.625 872.605469 168.769531 873.050781 169.398438 C 873.496094 170.019531 873.351562 170.886719 872.726562 171.332031 C 869.96875 173.292969 867.355469 175.5 864.964844 177.894531 C 864.691406 178.164062 864.335938 178.300781 863.980469 178.300781 Z M 880.867188 166.296875 C 880.351562 166.296875 879.855469 166.007812 879.617188 165.511719 C 879.285156 164.824219 879.574219 163.992188 880.265625 163.660156 C 883.453125 162.121094 886.796875 160.84375 890.195312 159.863281 C 890.933594 159.652344 891.703125 160.074219 891.917969 160.8125 C 892.128906 161.550781 891.703125 162.316406 890.964844 162.53125 C 887.714844 163.46875 884.519531 164.6875 881.472656 166.15625 C 881.277344 166.253906 881.070312 166.296875 880.867188 166.296875 Z M 1317.117188 165.832031 C 1316.78125 165.832031 1316.441406 165.707031 1316.175781 165.460938 C 1315.613281 164.941406 1315.578125 164.0625 1316.101562 163.5 C 1318.480469 160.933594 1321.023438 158.457031 1323.660156 156.144531 C 1324.234375 155.636719 1325.113281 155.695312 1325.617188 156.273438 C 1326.125 156.847656 1326.066406 157.726562 1325.492188 158.230469 C 1322.925781 160.480469 1320.453125 162.886719 1318.136719 165.386719 C 1317.863281 165.679688 1317.492188 165.832031 1317.117188 165.832031 Z M 1155.523438 161.300781 C 1154.757812 161.300781 1154.136719 160.679688 1154.136719 159.914062 L 1154.136719 149.503906 C 1154.136719 148.738281 1154.757812 148.117188 1155.523438 148.117188 C 1156.292969 148.117188 1156.914062 148.738281 1156.914062 149.503906 L 1156.914062 159.914062 C 1156.914062 160.679688 1156.292969 161.300781 1155.523438 161.300781 Z M 900.78125 160.5625 C 900.082031 160.5625 899.480469 160.039062 899.402344 159.332031 C 899.316406 158.566406 899.867188 157.882812 900.628906 157.796875 C 902.96875 157.535156 905.355469 157.402344 907.722656 157.402344 L 911.179688 157.402344 C 911.949219 157.402344 912.570312 158.027344 912.570312 158.792969 C 912.570312 159.558594 911.949219 160.179688 911.179688 160.179688 L 907.722656 160.179688 C 905.460938 160.179688 903.175781 160.304688 900.9375 160.554688 C 900.882812 160.5625 900.832031 160.5625 900.78125 160.5625 Z M 932.011719 160.179688 L 921.597656 160.179688 C 920.828125 160.179688 920.207031 159.558594 920.207031 158.792969 C 920.207031 158.027344 920.828125 157.402344 921.597656 157.402344 L 932.011719 157.402344 C 932.777344 157.402344 933.402344 158.027344 933.402344 158.792969 C 933.402344 159.558594 932.777344 160.179688 932.011719 160.179688 Z M 942.402344 159.730469 C 941.714844 159.730469 941.117188 159.21875 941.027344 158.519531 C 940.929688 157.757812 941.46875 157.0625 942.230469 156.964844 C 945.585938 156.539062 948.910156 155.792969 952.121094 154.75 C 952.847656 154.511719 953.632812 154.910156 953.871094 155.636719 C 954.105469 156.367188 953.710938 157.148438 952.980469 157.386719 C 949.605469 158.484375 946.109375 159.269531 942.582031 159.71875 C 942.519531 159.726562 942.460938 159.730469 942.402344 159.730469 Z M 962.089844 153.320312 C 961.597656 153.320312 961.125 153.058594 960.871094 152.601562 C 960.5 151.929688 960.746094 151.085938 961.417969 150.714844 C 964.371094 149.089844 967.191406 147.171875 969.800781 145.019531 C 970.390625 144.53125 971.265625 144.613281 971.753906 145.203125 C 972.242188 145.792969 972.160156 146.667969 971.570312 147.15625 C 968.828125 149.421875 965.863281 151.4375 962.757812 153.148438 C 962.546875 153.261719 962.316406 153.320312 962.089844 153.320312 Z M 1332.746094 152.132812 C 1332.308594 152.132812 1331.878906 151.925781 1331.609375 151.546875 C 1331.167969 150.921875 1331.3125 150.054688 1331.941406 149.609375 C 1334.804688 147.585938 1337.804688 145.6875 1340.855469 143.976562 C 1341.527344 143.601562 1342.371094 143.839844 1342.75 144.503906 C 1343.125 145.171875 1342.886719 146.019531 1342.21875 146.394531 C 1339.246094 148.0625 1336.328125 149.90625 1333.546875 151.875 C 1333.300781 152.046875 1333.019531 152.132812 1332.746094 152.132812 Z M 1350.863281 141.964844 C 1350.324219 141.964844 1349.8125 141.648438 1349.585938 141.125 C 1349.28125 140.421875 1349.605469 139.605469 1350.3125 139.300781 C 1353.53125 137.914062 1356.863281 136.683594 1360.210938 135.640625 C 1360.941406 135.414062 1361.722656 135.824219 1361.949219 136.554688 C 1362.175781 137.285156 1361.769531 138.0625 1361.035156 138.292969 C 1357.78125 139.304688 1354.542969 140.503906 1351.410156 141.851562 C 1351.230469 141.925781 1351.042969 141.964844 1350.863281 141.964844 Z M 1155.523438 140.488281 C 1154.757812 140.488281 1154.136719 139.863281 1154.136719 139.097656 L 1154.136719 128.691406 C 1154.136719 127.925781 1154.757812 127.304688 1155.523438 127.304688 C 1156.292969 127.304688 1156.914062 127.925781 1156.914062 128.691406 L 1156.914062 139.097656 C 1156.914062 139.863281 1156.292969 140.488281 1155.523438 140.488281 Z M 978.050781 140.136719 C 977.734375 140.136719 977.421875 140.03125 977.164062 139.816406 C 976.570312 139.328125 976.492188 138.453125 976.980469 137.863281 C 979.144531 135.261719 981.070312 132.453125 982.707031 129.503906 C 983.078125 128.835938 983.925781 128.59375 984.597656 128.964844 C 985.265625 129.335938 985.507812 130.179688 985.136719 130.851562 C 983.414062 133.949219 981.390625 136.90625 979.117188 139.636719 C 978.84375 139.96875 978.449219 140.136719 978.050781 140.136719 Z M 1370.707031 135.792969 C 1370.058594 135.792969 1369.480469 135.335938 1369.347656 134.675781 C 1369.199219 133.921875 1369.6875 133.191406 1370.4375 133.042969 C 1372.324219 132.667969 1374.246094 132.34375 1376.148438 132.074219 C 1376.902344 131.96875 1377.609375 132.5 1377.71875 133.257812 C 1377.824219 134.015625 1377.292969 134.71875 1376.535156 134.824219 C 1374.683594 135.082031 1372.816406 135.398438 1370.980469 135.765625 C 1370.890625 135.78125 1370.796875 135.792969 1370.707031 135.792969 Z M 988.089844 122.050781 C 987.945312 122.050781 987.796875 122.027344 987.65625 121.980469 C 986.925781 121.738281 986.53125 120.953125 986.769531 120.226562 C 987.824219 117.027344 988.582031 113.707031 989.019531 110.355469 C 989.117188 109.59375 989.8125 109.058594 990.574219 109.15625 C 991.335938 109.257812 991.871094 109.953125 991.773438 110.710938 C 991.3125 114.238281 990.515625 117.730469 989.40625 121.09375 C 989.214844 121.679688 988.671875 122.050781 988.089844 122.050781 Z M 1155.523438 119.671875 C 1154.757812 119.671875 1154.136719 119.050781 1154.136719 118.285156 L 1154.136719 107.878906 C 1154.136719 107.113281 1154.757812 106.492188 1155.523438 106.492188 C 1156.292969 106.492188 1156.914062 107.113281 1156.914062 107.878906 L 1156.914062 118.285156 C 1156.914062 119.050781 1156.292969 119.671875 1155.523438 119.671875 Z M 990.863281 101.535156 C 990.097656 101.535156 989.476562 100.914062 989.476562 100.148438 L 989.476562 97.992188 C 989.476562 95.199219 989.613281 92.382812 989.890625 89.621094 C 989.964844 88.859375 990.644531 88.296875 991.410156 88.378906 C 992.171875 88.453125 992.730469 89.132812 992.652344 89.894531 C 992.386719 92.566406 992.253906 95.292969 992.253906 97.992188 L 992.253906 100.148438 C 992.253906 100.914062 991.628906 101.535156 990.863281 101.535156 Z M 1155.523438 98.859375 C 1154.761719 98.859375 1154.140625 98.246094 1154.136719 97.480469 C 1154.113281 94.070312 1153.878906 90.640625 1153.433594 87.285156 C 1153.332031 86.523438 1153.867188 85.828125 1154.628906 85.726562 C 1155.386719 85.628906 1156.085938 86.160156 1156.1875 86.921875 C 1156.644531 90.390625 1156.890625 93.9375 1156.914062 97.464844 C 1156.917969 98.230469 1156.300781 98.855469 1155.53125 98.859375 C 1155.53125 98.859375 1155.527344 98.859375 1155.523438 98.859375 Z M 992.953125 80.886719 C 992.851562 80.886719 992.746094 80.875 992.640625 80.851562 C 991.894531 80.679688 991.429688 79.9375 991.597656 79.1875 C 992.386719 75.761719 993.40625 72.351562 994.621094 69.046875 C 994.886719 68.328125 995.691406 67.964844 996.40625 68.226562 C 997.125 68.492188 997.492188 69.289062 997.230469 70.007812 C 996.050781 73.199219 995.070312 76.496094 994.308594 79.808594 C 994.160156 80.453125 993.585938 80.886719 992.953125 80.886719 Z M 1152.792969 78.292969 C 1152.179688 78.292969 1151.617188 77.878906 1151.453125 77.257812 C 1150.582031 73.972656 1149.492188 70.710938 1148.210938 67.5625 C 1147.921875 66.855469 1148.265625 66.042969 1148.976562 65.757812 C 1149.6875 65.46875 1150.496094 65.808594 1150.785156 66.519531 C 1152.109375 69.773438 1153.238281 73.148438 1154.136719 76.546875 C 1154.332031 77.289062 1153.890625 78.050781 1153.148438 78.246094 C 1153.03125 78.277344 1152.910156 78.292969 1152.792969 78.292969 Z M 1000.140625 61.40625 C 999.925781 61.40625 999.707031 61.355469 999.5 61.25 C 998.820312 60.894531 998.558594 60.054688 998.910156 59.378906 C 1000.535156 56.265625 1002.378906 53.222656 1004.386719 50.328125 C 1004.824219 49.699219 1005.691406 49.542969 1006.320312 49.980469 C 1006.949219 50.417969 1007.105469 51.28125 1006.667969 51.910156 C 1004.726562 54.707031 1002.945312 57.652344 1001.375 60.660156 C 1001.125 61.132812 1000.644531 61.40625 1000.140625 61.40625 Z M 1144.980469 59.074219 C 1144.496094 59.074219 1144.027344 58.816406 1143.769531 58.367188 C 1142.101562 55.40625 1140.226562 52.523438 1138.199219 49.796875 C 1137.742188 49.183594 1137.871094 48.3125 1138.484375 47.855469 C 1139.101562 47.398438 1139.972656 47.527344 1140.429688 48.140625 C 1142.527344 50.960938 1144.464844 53.945312 1146.191406 57.003906 C 1146.566406 57.671875 1146.332031 58.515625 1145.664062 58.894531 C 1145.445312 59.015625 1145.210938 59.074219 1144.980469 59.074219 Z M 1011.992188 44.355469 C 1011.660156 44.355469 1011.328125 44.238281 1011.0625 44 C 1010.492188 43.488281 1010.449219 42.609375 1010.960938 42.039062 C 1013.3125 39.429688 1015.855469 36.941406 1018.519531 34.644531 C 1019.101562 34.144531 1019.976562 34.207031 1020.480469 34.789062 C 1020.980469 35.367188 1020.914062 36.246094 1020.335938 36.746094 C 1017.757812 38.96875 1015.300781 41.375 1013.027344 43.898438 C 1012.75 44.203125 1012.371094 44.355469 1011.992188 44.355469 Z M 1132.59375 42.417969 C 1132.230469 42.417969 1131.863281 42.277344 1131.59375 41.992188 C 1129.234375 39.539062 1126.699219 37.210938 1124.054688 35.078125 C 1123.460938 34.59375 1123.367188 33.722656 1123.847656 33.125 C 1124.332031 32.53125 1125.207031 32.4375 1125.800781 32.921875 C 1128.535156 35.128906 1131.15625 37.535156 1133.59375 40.070312 C 1134.125 40.625 1134.109375 41.503906 1133.554688 42.035156 C 1133.285156 42.292969 1132.941406 42.417969 1132.59375 42.417969 Z M 1027.71875 30.796875 C 1027.269531 30.796875 1026.828125 30.582031 1026.558594 30.179688 C 1026.136719 29.539062 1026.308594 28.679688 1026.949219 28.253906 C 1029.882812 26.308594 1032.964844 24.535156 1036.113281 22.980469 C 1036.800781 22.636719 1037.632812 22.921875 1037.972656 23.609375 C 1038.3125 24.292969 1038.03125 25.125 1037.34375 25.464844 C 1034.300781 26.96875 1031.320312 28.6875 1028.484375 30.566406 C 1028.246094 30.722656 1027.980469 30.796875 1027.71875 30.796875 Z M 1116.4375 29.371094 C 1116.1875 29.371094 1115.9375 29.304688 1115.707031 29.164062 C 1112.8125 27.371094 1109.773438 25.75 1106.683594 24.34375 C 1105.984375 24.027344 1105.675781 23.203125 1105.992188 22.507812 C 1106.3125 21.808594 1107.136719 21.503906 1107.832031 21.820312 C 1111.03125 23.273438 1114.171875 24.949219 1117.167969 26.800781 C 1117.820312 27.203125 1118.023438 28.058594 1117.621094 28.710938 C 1117.355469 29.136719 1116.902344 29.371094 1116.4375 29.371094 Z M 1046.328125 21.601562 C 1045.75 21.601562 1045.214844 21.238281 1045.015625 20.664062 C 1044.765625 19.941406 1045.148438 19.148438 1045.875 18.902344 C 1049.195312 17.753906 1052.628906 16.8125 1056.074219 16.09375 C 1056.828125 15.9375 1057.5625 16.421875 1057.71875 17.171875 C 1057.875 17.921875 1057.390625 18.65625 1056.640625 18.8125 C 1053.308594 19.503906 1049.992188 20.417969 1046.777344 21.523438 C 1046.628906 21.574219 1046.476562 21.601562 1046.328125 21.601562 Z M 1097.527344 20.773438 C 1097.390625 20.773438 1097.253906 20.753906 1097.117188 20.710938 C 1093.867188 19.707031 1090.523438 18.90625 1087.171875 18.320312 C 1086.414062 18.191406 1085.910156 17.472656 1086.039062 16.71875 C 1086.171875 15.964844 1086.886719 15.457031 1087.648438 15.589844 C 1091.113281 16.191406 1094.574219 17.023438 1097.9375 18.058594 C 1098.667969 18.285156 1099.078125 19.0625 1098.851562 19.792969 C 1098.667969 20.390625 1098.121094 20.773438 1097.527344 20.773438 Z M 1066.660156 17.375 C 1065.941406 17.375 1065.335938 16.824219 1065.277344 16.097656 C 1065.21875 15.332031 1065.789062 14.664062 1066.554688 14.605469 C 1070.042969 14.332031 1073.609375 14.273438 1077.128906 14.4375 C 1077.894531 14.472656 1078.488281 15.121094 1078.453125 15.886719 C 1078.417969 16.652344 1077.792969 17.25 1077 17.210938 C 1073.597656 17.050781 1070.144531 17.105469 1066.769531 17.371094 C 1066.734375 17.375 1066.695312 17.375 1066.660156 17.375 Z M 1066.660156 17.375 " fill-opacity="1" fill-rule="nonzero"/></g><g clip-path="url(#6224d542e6)"><path fill="#4d727a" d="M 480.835938 221.867188 C 456.5625 196.144531 422.160156 180.089844 384 180.089844 C 310.476562 180.089844 250.875 239.691406 250.875 313.214844 C 250.875 386.738281 310.476562 446.339844 384 446.339844 C 422.160156 446.339844 456.5625 430.285156 480.835938 404.5625 C 503.335938 380.722656 517.125 348.578125 517.125 313.214844 C 517.125 277.851562 503.335938 245.707031 480.835938 221.867188 Z M 480.835938 221.867188 " fill-opacity="1" fill-rule="nonzero"/></g><g clip-path="url(#38a7d455d6)"><path fill="#416268" d="M 282.703125 226.832031 C 262.855469 250.082031 250.875 280.25 250.875 313.214844 C 250.875 386.738281 310.476562 446.339844 384 446.339844 C 422.160156 446.339844 456.5625 430.285156 480.835938 404.5625 C 367.90625 431.984375 275.257812 342.625 282.703125 226.832031 Z M 282.703125 226.832031 " fill-opacity="1" fill-rule="nonzero"/></g><path fill="#f9b132" d="M 483.714844 358.429688 C 489.882812 369.457031 481.90625 383.050781 469.269531 383.050781 L 298.730469 383.050781 C 286.089844 383.050781 278.117188 369.457031 284.285156 358.429688 L 369.554688 205.921875 C 375.871094 194.625 392.128906 194.625 398.445312 205.921875 Z M 483.714844 358.429688 " fill-opacity="1" fill-rule="nonzero"/><path fill="#c84242" d="M 392.726562 247.742188 L 390.546875 330.671875 L 377.449219 330.671875 L 375.273438 247.742188 Z M 392.726562 247.742188 " fill-opacity="1" fill-rule="nonzero"/><path fill="#c84242" d="M 384 341.585938 C 388.820312 341.585938 392.726562 345.492188 392.726562 350.3125 C 392.726562 355.140625 388.820312 359.046875 384 359.046875 C 379.179688 359.046875 375.273438 355.140625 375.273438 350.3125 C 375.273438 345.492188 379.179688 341.585938 384 341.585938 Z M 384 341.585938 " fill-opacity="1" fill-rule="nonzero"/><g fill="#404040" fill-opacity="1"><g transform="translate(248.012071, 88.350021)"><g><path d="M 25.71875 -26 L 26.140625 -16.0625 L 25.4375 -7.9375 L 21.171875 -8.015625 L 21.28125 -15.328125 L 19.8125 -15.328125 L 19.5 -7.9375 L 15.265625 -8.015625 L 15.546875 -26.3125 L 19.78125 -26 L 19.8125 -19.28125 L 21.34375 -19.3125 L 21.453125 -26.3125 Z M 0.8125 -14.53125 L 1.4375 -25.828125 L 6.015625 -25.828125 L 13.546875 -25.546875 L 13.46875 -21 L 5.953125 -20.796875 L 5.953125 -14.171875 L 9.484375 -14 L 13.546875 -13.796875 L 13.40625 -9.59375 L 8.4375 -9.453125 L 1.21875 -9.90625 Z M 0.8125 -14.53125 "/></g></g></g><g fill="#404040" fill-opacity="1"><g transform="translate(276.180706, 88.350021)"><g><path d="M 10.21875 -7.171875 L 11.578125 -7.140625 L 11.578125 -8.546875 L 3.1875 -8.5 L 1.359375 -8.859375 L 1.6875 -12.453125 L 23.375 -12.734375 L 26.359375 -12.453125 L 26.390625 -8.640625 L 16.453125 -8.578125 L 16.453125 -7.0625 L 21.390625 -6.96875 L 21.875 -2.734375 L 21.484375 1.578125 L 11.171875 1.859375 L 11.171875 3.078125 L 18.515625 2.90625 L 21.765625 3.015625 L 21.875 6.40625 L 18.375 6.546875 L 5.671875 6.328125 L 5.28125 4.625 L 5.875 -1.4375 L 8.015625 -1.8125 L 17.015625 -1.8125 L 16.765625 -3.15625 L 6.40625 -3.109375 L 6.1875 -6.75 Z M 11.484375 -24.921875 L 11.625 -27.71875 L 16.234375 -27.796875 L 16.484375 -24.984375 L 21.203125 -25.03125 L 24.1875 -24.75 L 24.25 -20.96875 L 17.78125 -20.96875 L 23.6875 -17.78125 L 21.203125 -14.03125 L 13.328125 -18.65625 L 7.59375 -14.140625 L 4.171875 -17.21875 L 8.78125 -20.96875 L 5.734375 -20.96875 L 4.0625 -21.28125 L 4.375 -24.890625 Z M 11.484375 -24.921875 "/></g></g></g><g fill="#404040" fill-opacity="1"><g transform="translate(304.349341, 88.350021)"><g><path d="M 25.40625 -26 L 25.828125 -16.03125 L 25.09375 -7.9375 L 20.859375 -8.015625 L 21.140625 -26.3125 Z M 12.703125 -22.78125 L 14.734375 -21.59375 L 15.46875 -15.78125 L 14.671875 -12.421875 L 11.3125 -10.328125 L 6.265625 -9.765625 L 2.421875 -12.1875 L 1.15625 -14.453125 L 1.46875 -20.15625 L 5.140625 -23.625 L 8.5 -23.90625 Z M 6.1875 -18.515625 L 6.125 -15.4375 L 7.421875 -14.34375 L 9.734375 -14.59375 L 10.703125 -16.09375 L 10.84375 -18.3125 L 8.859375 -19.8125 L 7.421875 -19.734375 Z M 6.1875 -18.515625 "/></g></g></g><g fill="#404040" fill-opacity="1"><g transform="translate(332.517977, 88.350021)"><g/></g></g><g fill="#404040" fill-opacity="1"><g transform="translate(342.315767, 88.350021)"><g><path d="M 9.3125 -24.8125 L 15.640625 -23.96875 L 15.546875 -19.453125 L 21.03125 -19.421875 L 21.140625 -26.3125 L 25.40625 -26 L 25.828125 -16.03125 L 25.09375 -7.9375 L 20.859375 -8.015625 L 20.96875 -15.21875 L 15.46875 -15.4375 L 15.359375 -9 L 9.796875 -9 L 9.734375 -20.515625 L 1.1875 -20.796875 L 1.359375 -24.671875 Z M 9.3125 -24.8125 "/></g></g></g><g fill="#404040" fill-opacity="1"><g transform="translate(370.484402, 88.350021)"><g><path d="M 23.625 -26.390625 L 23.34375 -12.078125 L 9.203125 -12.078125 L 5.109375 -12.453125 L 4.765625 -23.375 L 4.96875 -26.59375 L 8.296875 -26.8125 L 10.4375 -26.734375 L 10.359375 -23.484375 L 10.359375 -23.203125 L 17.890625 -23.28125 L 17.890625 -26.703125 Z M 23.375 -9.9375 L 26.359375 -9.65625 L 26.421875 -5.5 L 16.5625 -5.421875 L 16.875 1.21875 L 11.578125 0.9375 L 11.65625 -5.390625 L 3.1875 -5.359375 L 1.40625 -5.703125 L 1.71875 -9.65625 Z M 17.671875 -16.171875 L 17.75 -19.28125 L 10.359375 -19.28125 L 10.359375 -16.171875 Z M 17.671875 -16.171875 "/></g></g></g><g fill="#404040" fill-opacity="1"><g transform="translate(398.653037, 88.350021)"><g/></g></g><g fill="#404040" fill-opacity="1"><g transform="translate(408.450827, 88.350021)"><g><path d="M 1.4375 -20.46875 L 1.71875 -26.453125 L 6.46875 -26.5 L 16.453125 -26.078125 L 16.375 -21.59375 L 6.40625 -21.625 L 6.40625 -18.9375 L 9.90625 -18.828125 L 16.453125 -18.515625 L 16.3125 -14.671875 L 11.765625 -14.625 L 11.96875 -11.375 L 15.609375 -11.4375 L 18.578125 -11.171875 L 18.65625 -7 L 2.375 -6.859375 L 0.59375 -7.203125 L 0.90625 -11.171875 L 6.890625 -11.265625 L 6.9375 -14.734375 L 1.71875 -15.046875 Z M 25.265625 -26 L 25.6875 -16.03125 L 24.953125 -7.109375 L 20.71875 -7.171875 L 21 -26.3125 Z M 25.265625 -26 "/></g></g></g><g fill="#404040" fill-opacity="1"><g transform="translate(436.619463, 88.350021)"><g><path d="M 25.40625 -26 L 25.828125 -16.03125 L 25.125 -8.296875 L 20.859375 -8.359375 L 20.96875 -15.328125 L 15.359375 -15.328125 L 14.671875 -12.421875 L 11.3125 -10.328125 L 6.265625 -9.765625 L 2.421875 -12.1875 L 1.15625 -14.453125 L 1.46875 -20.15625 L 5.140625 -23.625 L 8.5 -23.90625 L 12.703125 -22.78125 L 14.734375 -21.59375 L 15.015625 -19.359375 L 21.03125 -19.53125 L 21.140625 -26.3125 Z M 22.859375 -4.03125 L 21.765625 -2.3125 L 21.3125 -1.75 L 22.71875 -0.84375 L 26.5625 1.859375 L 24.703125 3.640625 L 22.265625 5.8125 L 19.140625 2.875 L 18.09375 2.140625 L 14.734375 6.296875 L 10.78125 3.703125 L 11.765625 2.5625 L 8.890625 0.421875 L 5.53125 4.546875 L 1.578125 2.234375 L 6.71875 -4.484375 L 9.140625 -7.0625 L 13.125 -4.6875 C 12.957031 -4.476562 12.8125 -4.296875 12.6875 -4.140625 C 12.5625 -3.992188 12.4375 -3.847656 12.3125 -3.703125 L 15.21875 -1.5 L 17.25 -3.84375 L 18.96875 -6.375 Z M 6.1875 -18.515625 L 6.125 -15.4375 L 7.390625 -14.34375 L 9.734375 -14.5625 L 10.703125 -16.09375 L 10.84375 -18.3125 L 8.859375 -19.8125 L 7.421875 -19.734375 Z M 6.1875 -18.515625 "/></g></g></g><g fill="#404040" fill-opacity="1"><g transform="translate(464.788109, 88.350021)"><g><path d="M 23.0625 -5.921875 L 22.78125 6.0625 L 9.828125 6.0625 L 5.703125 5.703125 L 5.359375 -1.890625 L 5.5625 -6.125 L 8.890625 -6.328125 L 10.890625 -6.265625 L 10.84375 -4.265625 L 17.46875 -4.34375 L 17.46875 -6.234375 Z M 18.265625 -24.53125 L 17.046875 -23.09375 L 19.453125 -21.5625 L 24.703125 -17.75 L 23.09375 -15.921875 L 21.734375 -14.453125 L 16.453125 -18.0625 L 13.71875 -19.953125 L 7.453125 -13.9375 L 3.5625 -16.9375 L 11.234375 -25.03125 L 13.828125 -27.265625 Z M 23.5625 -12.84375 L 26.5 -12.5625 L 26.5625 -8.75 L 3.328125 -8.609375 L 1.5 -8.953125 L 1.8125 -12.5625 Z M 17.25 2 L 17.390625 -0.3125 L 10.8125 -0.3125 L 10.8125 2 Z M 17.25 2 "/></g></g></g><g fill="#404040" fill-opacity="1"><g transform="translate(492.956733, 88.350021)"><g><path d="M 1.578125 -14.765625 L 2.03125 -23.875 L 2.234375 -26.078125 L 6.75 -25.859375 L 6.75 -14 L 15.5 -13.65625 L 15.359375 -9.6875 L 9.203125 -9.5625 L 2.03125 -10.015625 Z M 25.40625 -26 L 25.828125 -16.03125 L 25.09375 -7.9375 L 20.859375 -8.015625 L 21.140625 -26.3125 Z M 25.40625 -26 "/></g></g></g><g fill="#404040" fill-opacity="1"><g transform="translate(521.125358, 88.350021)"><g><path d="M 0.8125 -14.53125 L 1.4375 -25.828125 L 6.015625 -25.828125 L 16.140625 -25.546875 L 16.0625 -21 L 5.953125 -20.796875 L 5.953125 -14.171875 L 9.484375 -14 L 16.140625 -13.796875 L 16 -9.59375 L 8.4375 -9.453125 L 1.21875 -9.90625 Z M 23.3125 -26 L 23.59375 -19.25 L 27.296875 -19.3125 L 27.46875 -16.828125 L 27.234375 -15.328125 L 23.65625 -15.328125 L 23 -7.9375 L 18.765625 -8.015625 L 19.046875 -26.3125 Z M 23.3125 -26 "/></g></g></g><g fill="#404040" fill-opacity="1"><g transform="translate(549.293982, 88.350021)"><g><path d="M 6.15625 -2.828125 L 7.703125 -2.828125 L 8.125 1.6875 L 7.484375 3.953125 L 5.875 3.921875 L 2.796875 3.5625 L 2.34375 1.953125 L 2.59375 -2.140625 Z M 6.15625 -2.828125 "/></g></g></g><g fill="#404040" fill-opacity="1"><g transform="translate(559.789401, 88.350021)"><g/></g></g></svg>