<svg xmlns="http://www.w3.org/2000/svg" xmlns:xlink="http://www.w3.org/1999/xlink" width="500" zoomAndPan="magnify" viewBox="0 0 375 374.999991" height="500" preserveAspectRatio="xMidYMid meet" version="1.0"><defs><g/></defs><g fill="#2b7929" fill-opacity="1"><g transform="translate(50.545068, 191.784564)"><g><path d="M 15.089844 -44.207031 L 6.859375 -44.207031 L 6.859375 0 L 15.089844 0 L 15.089844 -19.207031 L 41.917969 -19.207031 L 41.917969 -25.914062 L 15.089844 -25.914062 Z M 47.332031 0 L 55.636719 0 L 55.636719 -44.207031 L 47.332031 -44.207031 Z M 47.332031 0 "/></g></g></g><g fill="#2b7929" fill-opacity="1"><g transform="translate(112.96366, 191.784564)"><g><path d="M 49.539062 -31.476562 C 50.53125 -29.953125 51.523438 -28.503906 51.828125 -26.371094 C 52.054688 -24.390625 51.902344 -19.585938 51.675781 -18.0625 C 50.761719 -10.976562 46.339844 -6.554688 37.726562 -6.019531 C 36.660156 -5.945312 28.886719 -6.019531 27.894531 -6.097656 C 19.585938 -6.628906 14.558594 -11.660156 14.023438 -18.292969 C 13.871094 -20.195312 13.871094 -24.464844 14.175781 -26.371094 C 15.320312 -33.152344 20.042969 -37.347656 27.972656 -37.957031 C 29.417969 -38.109375 36.355469 -38.109375 37.726562 -37.957031 C 40.394531 -37.726562 44.054688 -36.429688 46.035156 -35.515625 L 46.035156 -42.605469 C 43.824219 -44.28125 40.777344 -44.738281 38.488281 -44.96875 C 36.355469 -45.195312 28.886719 -45.121094 26.902344 -44.890625 C 15.546875 -43.671875 7.164062 -36.429688 5.945312 -27.132812 C 5.640625 -24.769531 5.640625 -20.195312 5.867188 -17.453125 C 6.628906 -8.460938 15.167969 0.382812 26.902344 0.839844 C 29.191406 0.914062 36.8125 0.992188 38.488281 0.914062 C 50.148438 0.457031 58.152344 -7.242188 59.753906 -17.378906 C 60.132812 -19.816406 60.058594 -24.769531 59.828125 -27.4375 C 59.523438 -31.019531 57.3125 -34.144531 54.875 -36.886719 Z M 49.539062 -31.476562 "/></g></g></g><g fill="#2b7929" fill-opacity="1"><g transform="translate(178.659421, 191.784564)"><g><path d="M 9.601562 -44.207031 L 1.523438 -44.207031 L 16.84375 0 L 24.847656 0 Z M 41.691406 -44.207031 L 31.78125 -44.207031 L 22.179688 -11.585938 L 29.417969 -11.585938 L 36.582031 -35.058594 L 36.886719 -35.058594 L 48.246094 0 L 56.476562 0 Z M 61.203125 -11.585938 L 71.871094 -44.207031 L 63.714844 -44.207031 L 53.730469 -11.585938 Z M 61.203125 -11.585938 "/></g></g></g><g fill="#2b7929" fill-opacity="1"><g transform="translate(252.128939, 191.784564)"><g><path d="M 5.335938 -37.957031 L 13.644531 -37.957031 L 18.214844 -57.160156 L 9.375 -57.160156 Z M 5.335938 -37.957031 "/></g></g></g><g fill="#2b7929" fill-opacity="1"><g transform="translate(274.992896, 191.784564)"><g><path d="M 27.058594 -25.683594 L 25.304688 -25.761719 C 18.292969 -26.140625 15.015625 -27.4375 14.253906 -31.707031 L 14.253906 -33.230469 C 15.167969 -38.488281 23.550781 -38.261719 29.496094 -38.183594 C 32.621094 -38.109375 45.730469 -37.039062 52.054688 -35.667969 L 52.054688 -42.453125 C 45.425781 -43.976562 33.535156 -44.96875 29.191406 -44.96875 C 18.597656 -44.96875 6.097656 -44.28125 5.640625 -33.917969 C 5.5625 -32.695312 5.714844 -30.410156 5.867188 -29.496094 C 7.925781 -22.558594 13.644531 -19.816406 25.074219 -18.902344 L 27.058594 -18.824219 Z M 33.839844 -18.519531 C 40.46875 -18.140625 45.347656 -17.300781 45.273438 -11.507812 C 45.195312 -10.59375 44.890625 -9.679688 44.585938 -9.296875 C 42.984375 -6.097656 36.429688 -5.867188 29.34375 -5.867188 C 25.074219 -5.867188 11.660156 -7.316406 5.867188 -8.917969 L 5.867188 -1.675781 C 11.585938 -0.457031 24.769531 0.992188 29.417969 0.992188 C 37.957031 0.992188 48.550781 1.523438 52.664062 -6.25 C 53.503906 -8.382812 53.65625 -10.59375 53.65625 -12.347656 C 53.65625 -20.808594 46.871094 -24.769531 33.839844 -25.378906 Z M 33.839844 -18.519531 "/></g></g></g></svg>