<svg xmlns="http://www.w3.org/2000/svg" xmlns:xlink="http://www.w3.org/1999/xlink" width="390" zoomAndPan="magnify" viewBox="0 0 292.5 225" height="300" preserveAspectRatio="xMidYMid meet" version="1.0"><defs><clipPath id="54c812c46d"><path d="M 24 81 L 286 81 L 286 224.808594 L 24 224.808594 Z M 24 81 " clip-rule="nonzero"/></clipPath></defs><path fill="#001321" d="M 108.894531 189.96875 L 124.039062 206.539062 C 124.039062 206.539062 86.308594 207.550781 86.179688 206.539062 C 86.050781 205.527344 87.621094 192.648438 87.621094 192.648438 Z M 15.800781 190.042969 C 15.382812 190.03125 6.449219 189.027344 0.214844 194.46875 C 0.214844 194.46875 2.027344 206.503906 7.167969 210.417969 C 12.3125 214.328125 16.664062 213.898438 17.390625 213.824219 C 18.117188 213.753906 19.855469 210.339844 15.652344 207.660156 L 15.945312 205.34375 Z M 15.800781 190.042969 " fill-opacity="1" fill-rule="nonzero"/><path fill="#992800" d="M 111.324219 192.984375 L 87.621094 192.640625 L 84.789062 157.988281 L 56.203125 164.726562 C 74.015625 192.8125 70.582031 208.21875 60.992188 209.417969 C 51.40625 210.613281 15.625 206.503906 15.625 206.503906 C 14.085938 200.855469 15.625 187.839844 15.625 187.324219 C 15.625 186.804688 39.933594 188.863281 39.933594 188.863281 C 39.933594 188.863281 28.804688 172.9375 26.410156 168.828125 C 16.777344 159.039062 22.714844 145.695312 24.398438 142.265625 C 24.601562 141.859375 24.742188 141.589844 24.789062 141.488281 L 52.949219 140.574219 C 52.949219 140.574219 74.351562 134.582031 74.976562 134.582031 C 75.601562 134.582031 106.367188 144.683594 106.367188 144.683594 Z M 111.324219 192.984375 " fill-opacity="1" fill-rule="nonzero"/><path fill="#ff732e" d="M 84.210938 128.914062 L 83.535156 127.351562 L 82.726562 124.835938 L 86.917969 124.835938 C 86.917969 124.835938 91.636719 131.828125 95.382812 134.167969 C 99.132812 136.511719 125.835938 149.699219 125.835938 149.699219 C 125.835938 149.699219 122.691406 160.476562 114.1875 157.464844 C 105.6875 154.453125 84.46875 142.335938 84.46875 138.453125 C 84.476562 134.5625 84.210938 128.914062 84.210938 128.914062 Z M 221.488281 24.429688 C 229.355469 11.183594 217.296875 0.199219 213.3125 3.273438 C 211.003906 2.132812 205.363281 2.75 201.007812 6.109375 C 192.625 12.457031 194.558594 20.925781 200.335938 21.167969 C 200.335938 21.167969 217.535156 29.957031 221.488281 24.429688 Z M 221.488281 24.429688 " fill-opacity="1" fill-rule="nonzero"/><path fill="#f89267" d="M 223.550781 67.476562 L 223.550781 79.351562 L 199.441406 94.398438 L 195.90625 84.058594 L 207.285156 79.847656 L 207.976562 67.058594 Z M 215.210938 165.019531 L 214.1875 160.617188 L 104.410156 142.824219 L 102.8125 147.183594 L 93.808594 204.082031 L 206.214844 221.875 Z M 215.210938 165.019531 " fill-opacity="1" fill-rule="nonzero"/><path fill="#5f9e8b" d="M 204.972656 102.019531 L 104.984375 102.019531 L 118.667969 66.09375 L 191.296875 66.09375 Z M 204.972656 102.019531 " fill-opacity="1" fill-rule="nonzero"/><path fill="#001321" d="M 88.410156 74.25 C 90.96875 79.265625 90.085938 82.695312 87.085938 85.902344 C 84.085938 89.109375 83.917969 92.832031 85.277344 95.265625 C 86.636719 97.703125 89.339844 101.101562 88.417969 103.902344 C 87.492188 106.707031 90.292969 107.726562 90.550781 110.53125 C 90.550781 110.53125 78.566406 114.691406 71.347656 109.761719 C 64.125 104.832031 63.703125 115.628906 58.4375 113.164062 C 53.171875 110.699219 51.824219 105.71875 51.824219 105.71875 C 51.824219 105.71875 48.667969 103.136719 47.21875 99.566406 C 47.8125 96.253906 49.347656 97.359375 50.875 94.382812 C 52.402344 91.40625 52.402344 91.5625 56.140625 89.152344 C 59.878906 86.734375 57.414062 85.375 60.898438 83.082031 C 64.382812 80.789062 64.554688 76.027344 68.886719 71.777344 C 73.207031 67.535156 83.472656 67.789062 88.410156 74.25 Z M 108.300781 192.089844 C 108.582031 192.125 126.636719 195.390625 126.480469 195.113281 C 126.316406 194.832031 129.769531 177.796875 129.589844 173.730469 C 129.410156 169.664062 127.445312 166.207031 122.308594 165.019531 C 117.171875 163.835938 113.113281 165.886719 111.332031 173.160156 C 109.546875 180.429688 108.308594 191.648438 108.308594 191.648438 M 176.960938 203.132812 C 176.960938 203.132812 194.890625 206.242188 194.820312 206.027344 C 194.75 205.8125 198.25 185.253906 198.394531 183.570312 C 198.535156 181.882812 196.777344 176.355469 190.578125 175.617188 C 184.378906 174.875 180.648438 179 179.78125 184.015625 C 178.914062 189.03125 176.960938 203.132812 176.960938 203.132812 Z M 176.960938 203.132812 " fill-opacity="1" fill-rule="nonzero"/><path fill="#992800" d="M 188.527344 91.050781 L 188.527344 86.851562 L 199.191406 86.851562 L 199.023438 86.414062 L 196.855469 86.414062 L 196.855469 81.71875 L 197.230469 81.71875 L 197.0625 81.28125 L 188.519531 81.28125 L 188.519531 76.585938 L 195.28125 76.585938 L 195.109375 76.148438 L 180.1875 76.148438 L 180.1875 71.453125 L 193.320312 71.453125 L 193.152344 71.015625 L 188.515625 71.015625 L 188.515625 66.105469 L 188.078125 66.105469 L 188.078125 71.015625 L 171.847656 71.015625 L 171.847656 66.105469 L 171.414062 66.105469 L 171.414062 71.015625 L 155.199219 71.015625 L 155.199219 66.105469 L 154.761719 66.105469 L 154.761719 71.015625 L 138.53125 71.015625 L 138.53125 66.105469 L 138.097656 66.105469 L 138.097656 71.015625 L 121.867188 71.015625 L 121.867188 66.105469 L 121.429688 66.105469 L 121.429688 71.015625 L 116.792969 71.015625 L 116.625 71.453125 L 129.757812 71.453125 L 129.757812 76.148438 L 114.835938 76.148438 L 114.664062 76.585938 L 121.425781 76.585938 L 121.425781 81.28125 L 112.882812 81.28125 L 112.714844 81.71875 L 113.089844 81.71875 L 113.089844 86.414062 L 110.921875 86.414062 L 110.753906 86.851562 L 121.417969 86.851562 L 121.417969 91.546875 L 108.964844 91.546875 L 108.796875 91.980469 L 113.085938 91.980469 L 113.085938 96.679688 L 107.023438 96.679688 L 106.855469 97.113281 L 121.429688 97.113281 L 121.429688 102.027344 L 121.867188 102.027344 L 121.867188 97.113281 L 138.097656 97.113281 L 138.097656 102.027344 L 138.53125 102.027344 L 138.53125 97.113281 L 154.761719 97.113281 L 154.761719 102.027344 L 155.199219 102.027344 L 155.199219 97.113281 L 171.429688 97.113281 L 171.429688 102.027344 L 171.867188 102.027344 L 171.867188 97.113281 L 187.703125 97.113281 L 187.703125 96.679688 L 180.199219 96.679688 L 180.199219 91.980469 L 198.796875 91.980469 L 198.796875 91.546875 L 171.871094 91.546875 L 171.871094 86.851562 L 188.101562 86.851562 L 188.101562 91.050781 Z M 188.089844 76.578125 L 188.089844 81.277344 L 171.859375 81.277344 L 171.859375 76.578125 Z M 163.53125 71.445312 L 179.761719 71.445312 L 179.761719 76.144531 L 163.53125 76.144531 Z M 163.097656 86.40625 L 146.867188 86.40625 L 146.867188 81.710938 L 163.097656 81.710938 Z M 171.425781 86.84375 L 171.425781 91.539062 L 155.199219 91.539062 L 155.199219 86.84375 Z M 130.199219 86.40625 L 130.199219 81.710938 L 146.429688 81.710938 L 146.429688 86.40625 Z M 138.097656 86.84375 L 138.097656 91.539062 L 121.867188 91.539062 L 121.867188 86.84375 Z M 138.53125 81.277344 L 138.53125 76.578125 L 154.761719 76.578125 L 154.761719 81.277344 Z M 138.53125 86.84375 L 154.761719 86.84375 L 154.761719 91.539062 L 138.53125 91.539062 Z M 155.199219 81.277344 L 155.199219 76.578125 L 171.429688 76.578125 L 171.429688 81.277344 Z M 146.867188 71.445312 L 163.097656 71.445312 L 163.097656 76.144531 L 146.867188 76.144531 Z M 130.199219 71.445312 L 146.429688 71.445312 L 146.429688 76.144531 L 130.199219 76.144531 Z M 121.867188 76.578125 L 138.097656 76.578125 L 138.097656 81.277344 L 121.867188 81.277344 Z M 113.53125 86.40625 L 113.53125 81.710938 L 129.761719 81.710938 L 129.761719 86.40625 Z M 129.761719 96.671875 L 113.53125 96.671875 L 113.53125 91.976562 L 129.761719 91.976562 Z M 146.429688 96.671875 L 130.199219 96.671875 L 130.199219 91.976562 L 146.429688 91.976562 Z M 163.097656 96.671875 L 146.867188 96.671875 L 146.867188 91.976562 L 163.097656 91.976562 Z M 179.757812 91.976562 L 179.757812 96.671875 L 163.527344 96.671875 L 163.527344 91.976562 Z M 179.757812 86.40625 L 163.527344 86.40625 L 163.527344 81.710938 L 179.757812 81.710938 Z M 180.195312 86.40625 L 180.195312 81.710938 L 196.425781 81.710938 L 196.425781 86.40625 Z M 145.464844 167.871094 L 168.261719 171.480469 L 162.589844 207.3125 L 154.507812 209.648438 L 139.792969 203.703125 Z M 242.421875 203.046875 C 247.207031 213.304688 243.351562 217.664062 243.351562 217.664062 C 243.351562 217.664062 223.921875 219.914062 218.734375 219.914062 C 213.542969 219.914062 212.445312 216.449219 214.359375 214.902344 C 216.269531 213.359375 228.027344 203.046875 228.027344 203.046875 C 228.992188 199.988281 230.125 196.582031 232.476562 194.410156 C 233.117188 193.816406 233.9375 193.242188 234.777344 193.433594 C 235.261719 193.542969 235.644531 193.890625 235.992188 194.242188 C 237.003906 195.273438 237.839844 196.472656 238.460938 197.773438 C 238.871094 198.625 239.3125 199.621094 240.222656 199.84375 C 240.445312 199.894531 240.671875 199.894531 240.886719 199.960938 C 241.390625 200.109375 241.734375 200.609375 241.855469 201.128906 C 241.980469 201.644531 242.488281 202.519531 242.421875 203.046875 Z M 290.699219 203.40625 C 290.699219 203.40625 274.195312 213.890625 269.519531 216.160156 C 264.847656 218.421875 262.351562 215.78125 263.398438 213.554688 C 264.445312 211.328125 270.535156 196.925781 270.535156 196.925781 C 270.070312 193.753906 269.609375 190.195312 270.777344 187.207031 C 271.097656 186.398438 271.582031 185.523438 272.429688 185.324219 C 272.910156 185.214844 273.410156 185.359375 273.871094 185.527344 C 275.230469 186.015625 276.503906 186.730469 277.636719 187.632812 C 278.367188 188.21875 279.207031 188.929688 280.125 188.726562 C 280.34375 188.679688 280.546875 188.574219 280.769531 188.539062 C 281.292969 188.457031 281.820312 188.753906 282.152344 189.171875 C 282.484375 189.585938 283.324219 190.148438 283.492188 190.648438 C 292.273438 197.804688 290.699219 203.40625 290.699219 203.40625 Z M 10.941406 204.492188 L 15.730469 207.539062 L 15.574219 207.785156 L 14.96875 207.398438 C 14.589844 207.953125 12.8125 210.941406 11.621094 212.960938 L 11.371094 212.816406 C 13.703125 208.863281 14.457031 207.636719 14.730469 207.253906 L 10.785156 204.742188 Z M 5.460938 191.289062 L 5.726562 191.402344 C 4.183594 194.957031 1.863281 200.34375 1.800781 200.652344 L 1.683594 200.628906 L 1.515625 200.679688 C 1.496094 200.609375 1.464844 200.484375 5.460938 191.289062 Z M 86.828125 200.582031 C 86.988281 200.867188 90.507812 204.4375 92.832031 206.765625 L 92.628906 206.96875 C 86.527344 200.855469 86.546875 200.703125 86.558594 200.609375 L 86.703125 200.628906 Z M 86.828125 200.582031 " fill-opacity="1" fill-rule="nonzero"/><g clip-path="url(#54c812c46d)"><path fill="#5f9e8b" d="M 73.800781 103.910156 C 76.859375 106.402344 81.699219 118.90625 86.910156 124.828125 L 83.527344 127.34375 L 84.203125 128.910156 L 81.519531 136.949219 L 69.058594 136.058594 L 67.34375 132.996094 C 67.34375 132.996094 62.707031 134.429688 61 135.824219 C 59.289062 137.226562 56.617188 145.515625 53.996094 147.855469 C 50.679688 150.816406 35.191406 152.839844 24.777344 141.492188 C 27.886719 132.941406 46.988281 111 51.804688 105.710938 C 51.804688 105.710938 53.660156 107.511719 55.84375 108.570312 C 55.84375 108.570312 57.40625 99.394531 65.457031 98.644531 C 65.460938 98.65625 71.394531 97.5625 73.800781 103.910156 Z M 226.621094 98.839844 L 226.246094 203.046875 L 243.785156 203.046875 L 248.167969 162.8125 C 248.167969 162.8125 258.082031 185.882812 269.132812 197.703125 L 285.144531 189.503906 C 285.144531 189.503906 270.464844 166.625 266.84375 153.464844 C 263.222656 140.3125 263.792969 128.683594 264.371094 125.4375 C 264.9375 122.195312 266.863281 110.597656 260.71875 89.4375 C 254.578125 68.273438 226.621094 98.839844 226.621094 98.839844 Z M 198.835938 186.265625 L 195.609375 206.660156 L 176.199219 203.585938 L 179.425781 183.191406 C 180.273438 177.839844 185.3125 174.175781 190.664062 175.019531 C 196.015625 175.867188 199.683594 180.914062 198.835938 186.265625 Z M 179.78125 188.964844 L 187.632812 190.207031 L 189.851562 176.191406 C 185.421875 175.820312 181.375 178.925781 180.671875 183.390625 Z M 185.480469 203.789062 L 187.433594 191.445312 L 179.582031 190.199219 L 177.628906 202.546875 Z M 196.523438 192.878906 L 188.671875 191.636719 L 186.71875 203.980469 L 194.570312 205.226562 Z M 191.082031 176.390625 L 188.863281 190.40625 L 196.714844 191.648438 L 197.597656 186.074219 C 198.308594 181.609375 195.414062 177.402344 191.082031 176.390625 Z M 130.234375 175.402344 L 127.007812 195.796875 L 107.597656 192.722656 L 110.824219 172.328125 C 111.671875 166.972656 116.710938 163.3125 122.0625 164.15625 C 127.414062 165.011719 131.078125 170.054688 130.234375 175.402344 Z M 111.179688 178.105469 L 119.03125 179.347656 L 121.25 165.335938 C 116.820312 164.964844 112.769531 168.066406 112.066406 172.53125 Z M 116.875 192.933594 L 118.828125 180.585938 L 110.976562 179.34375 L 109.023438 191.6875 Z M 127.914062 182.023438 L 120.066406 180.777344 L 118.113281 193.125 L 125.964844 194.367188 Z M 122.480469 165.527344 L 120.261719 179.539062 L 128.113281 180.785156 L 128.996094 175.210938 C 129.699219 170.746094 126.8125 166.539062 122.480469 165.527344 Z M 103.742188 141.308594 L 102.8125 147.183594 L 108.519531 148.085938 L 108.820312 146.1875 L 110.714844 146.492188 L 110.410156 148.386719 C 110.609375 148.527344 116.140625 149.292969 116.140625 149.292969 L 116.445312 147.398438 L 118.339844 147.699219 L 118.035156 149.59375 L 123.765625 150.503906 L 124.070312 148.605469 L 125.964844 148.910156 L 125.660156 150.804688 L 131.390625 151.710938 L 131.691406 149.816406 L 133.585938 150.117188 L 133.285156 152.011719 L 139.015625 152.921875 L 139.316406 151.023438 L 141.210938 151.328125 L 140.910156 153.222656 L 146.640625 154.128906 L 146.941406 152.234375 L 148.835938 152.535156 L 148.535156 154.429688 L 154.261719 155.339844 L 154.566406 153.441406 L 156.460938 153.746094 L 156.15625 155.640625 L 161.886719 156.546875 L 162.191406 154.652344 L 164.085938 154.953125 L 163.78125 156.847656 L 169.511719 157.757812 L 169.816406 155.859375 L 171.710938 156.164062 L 171.40625 158.058594 L 177.136719 158.964844 L 177.4375 157.070312 L 179.332031 157.371094 L 179.03125 159.265625 L 184.761719 160.175781 L 185.0625 158.277344 L 186.957031 158.582031 L 186.65625 160.476562 L 192.386719 161.382812 L 192.6875 159.488281 L 194.582031 159.789062 L 194.28125 161.683594 L 200.007812 162.59375 L 200.3125 160.695312 L 202.207031 161 L 201.902344 162.894531 L 207.632812 163.800781 L 207.9375 161.90625 L 209.832031 162.207031 L 209.527344 164.101562 L 215.253906 165.054688 L 216.1875 159.132812 Z M 165.578125 211.609375 L 162.003906 211.042969 L 162.597656 207.308594 L 139.800781 203.699219 L 139.207031 207.433594 L 135.632812 206.871094 L 135.085938 210.316406 C 111.917969 206.628906 92.171875 203.527344 92.148438 203.6875 L 91.660156 206.867188 C 91.71875 206.488281 207.394531 225.1875 207.394531 225.1875 L 207.882812 222.007812 C 207.882812 222.007812 188.171875 218.820312 165.019531 215.105469 Z M 165.578125 211.609375 " fill-opacity="1" fill-rule="nonzero"/></g><path fill="#001321" d="M 260.71875 89.4375 C 250.3125 98.527344 226.613281 98.839844 226.613281 98.839844 C 226.613281 98.839844 222.882812 70.632812 220.867188 70.242188 C 218.84375 69.855469 207.972656 67.058594 207.972656 67.058594 C 207.972656 67.058594 208.277344 57.96875 210.226562 50.273438 C 212.171875 42.578125 216.421875 38.285156 216.421875 38.285156 L 226.292969 28.886719 C 226.292969 28.886719 238.777344 28.300781 244.488281 40.640625 C 252.300781 57.503906 260.71875 89.4375 260.71875 89.4375 Z M 260.71875 89.4375 " fill-opacity="1" fill-rule="nonzero"/><path fill="#f89267" d="M 226.292969 28.894531 C 226.324219 33.324219 222.980469 39.28125 216.421875 38.292969 C 216.421875 38.292969 216.421875 36.125 215.3125 34.132812 C 214.449219 34.742188 212.742188 35.660156 210.648438 35.277344 C 205.011719 34.234375 200.113281 21.769531 200.335938 21.175781 C 200.335938 21.175781 205.972656 21.535156 211.132812 14.304688 C 211.132812 14.304688 213.394531 20.390625 215.589844 18.414062 C 217.785156 16.4375 219.859375 19.246094 218.519531 23.097656 C 218.519531 23.097656 220.019531 24.371094 221.480469 24.4375 C 221.488281 24.429688 224.324219 28.097656 226.292969 28.894531 Z M 163.851562 188.488281 C 163.382812 188.410156 162.941406 188.730469 162.863281 189.203125 C 162.789062 189.671875 163.109375 190.113281 163.578125 190.1875 C 164.050781 190.265625 164.492188 189.945312 164.566406 189.472656 C 164.640625 189.003906 164.324219 188.5625 163.851562 188.488281 Z M 221.050781 64.589844 C 220.691406 63.828125 217.554688 57.160156 217.472656 56.839844 L 217.75 56.769531 C 217.820312 57.015625 219.785156 61.21875 221.175781 64.167969 C 221.699219 60.003906 223.570312 45.011719 223.953125 41.894531 L 224.242188 41.929688 C 223.796875 45.558594 221.332031 65.292969 221.332031 65.292969 L 221.039062 65.257812 C 221.039062 65.257812 221.074219 65 221.128906 64.554688 Z M 238.492188 67.773438 L 238.347656 67.757812 C 238.347656 67.757812 238.421875 75.683594 235.085938 80.96875 C 226.925781 93.476562 198.445312 100.449219 196.546875 100.835938 C 194.644531 101.210938 187.636719 104.148438 183.046875 103.945312 C 178.457031 103.734375 178.558594 102.148438 178.558594 102.148438 C 176.179688 101.492188 176.660156 100.421875 176.660156 100.421875 C 175.730469 99.527344 176.554688 98.847656 176.554688 98.847656 C 176.554688 98.847656 175.933594 98.214844 176.554688 97.554688 C 177.175781 96.898438 179.628906 97.3125 181.148438 96.933594 C 182.664062 96.554688 185.847656 94.429688 185.847656 94.429688 C 182.285156 94.859375 180.320312 93.632812 181.125 92.894531 C 181.925781 92.15625 186.707031 90.746094 188.304688 91.050781 C 189.902344 91.359375 193.339844 92.402344 194.59375 91.871094 C 197.261719 91.515625 220.382812 73.726562 220.382812 73.726562 C 220.382812 73.726562 221.1875 65.628906 221.1875 65.273438 L 238.207031 67.738281 L 240.160156 48.597656 L 240.449219 48.628906 Z M 155.292969 172.339844 L 155.148438 172.316406 C 154.523438 172.21875 154.101562 171.628906 154.199219 171.007812 L 154.222656 170.863281 L 149.035156 170.042969 L 149.011719 170.1875 C 148.910156 170.8125 148.332031 171.242188 147.703125 171.136719 L 147.558594 171.113281 L 145.496094 184.15625 L 145.640625 184.179688 C 145.941406 184.226562 146.203125 184.386719 146.382812 184.636719 C 146.5625 184.886719 146.632812 185.183594 146.585938 185.488281 L 146.5625 185.632812 L 151.753906 186.453125 L 151.777344 186.308594 C 151.824219 186.003906 151.984375 185.742188 152.234375 185.5625 C 152.484375 185.382812 152.78125 185.3125 153.085938 185.359375 L 153.230469 185.382812 Z M 152.984375 185.058594 C 152.652344 185.035156 152.335938 185.132812 152.066406 185.332031 C 151.800781 185.527344 151.609375 185.800781 151.527344 186.121094 L 146.902344 185.386719 C 146.917969 185.058594 146.824219 184.738281 146.628906 184.46875 C 146.429688 184.203125 146.15625 184.011719 145.835938 183.929688 L 147.8125 171.445312 C 148.492188 171.484375 149.101562 171.039062 149.277344 170.378906 L 153.902344 171.113281 C 153.867188 171.789062 154.308594 172.402344 154.96875 172.578125 Z M 164.816406 173.507812 C 164.636719 173.261719 164.566406 172.960938 164.613281 172.660156 L 164.636719 172.515625 L 159.449219 171.695312 L 159.425781 171.839844 C 159.324219 172.460938 158.738281 172.886719 158.117188 172.785156 L 157.972656 172.761719 L 155.910156 185.808594 L 156.054688 185.828125 C 156.355469 185.875 156.617188 186.039062 156.796875 186.285156 C 156.976562 186.527344 157.046875 186.828125 157 187.132812 L 156.976562 187.277344 L 162.167969 188.097656 L 162.191406 187.953125 C 162.289062 187.328125 162.871094 186.898438 163.496094 187.003906 L 163.644531 187.027344 L 165.707031 173.984375 L 165.5625 173.960938 C 165.265625 173.921875 164.996094 173.757812 164.816406 173.507812 Z M 163.398438 186.707031 C 162.730469 186.660156 162.109375 187.113281 161.933594 187.769531 L 157.308594 187.039062 C 157.328125 186.707031 157.234375 186.386719 157.035156 186.121094 C 156.839844 185.851562 156.566406 185.660156 156.246094 185.582031 L 158.222656 173.09375 C 158.882812 173.140625 159.511719 172.6875 159.6875 172.03125 L 164.3125 172.761719 C 164.292969 173.09375 164.386719 173.414062 164.585938 173.683594 C 164.78125 173.949219 165.054688 174.140625 165.375 174.222656 Z M 151.429688 188.539062 L 151.449219 188.394531 L 146.261719 187.574219 L 146.238281 187.71875 C 146.140625 188.339844 145.546875 188.765625 144.929688 188.667969 L 144.785156 188.644531 L 142.722656 201.6875 L 142.867188 201.710938 C 143.488281 201.808594 143.914062 202.394531 143.816406 203.015625 L 143.792969 203.164062 L 148.980469 203.980469 L 149.003906 203.835938 C 149.101562 203.214844 149.683594 202.785156 150.3125 202.890625 L 150.457031 202.914062 L 152.519531 189.871094 L 152.375 189.847656 C 151.753906 189.746094 151.328125 189.160156 151.429688 188.539062 Z M 150.214844 202.585938 C 149.539062 202.539062 148.921875 202.996094 148.75 203.652344 L 144.125 202.917969 C 144.164062 202.246094 143.714844 201.628906 143.058594 201.453125 L 145.035156 188.96875 C 145.359375 188.992188 145.6875 188.894531 145.953125 188.695312 C 146.222656 188.496094 146.414062 188.226562 146.492188 187.90625 L 151.121094 188.636719 C 151.101562 188.96875 151.195312 189.289062 151.394531 189.554688 C 151.589844 189.824219 151.863281 190.015625 152.183594 190.097656 Z M 161.839844 190.1875 L 161.863281 190.042969 L 156.675781 189.222656 L 156.652344 189.371094 C 156.605469 189.671875 156.441406 189.933594 156.199219 190.113281 C 155.953125 190.292969 155.652344 190.363281 155.351562 190.316406 L 155.207031 190.292969 L 153.140625 203.335938 L 153.289062 203.359375 C 153.589844 203.40625 153.851562 203.570312 154.03125 203.820312 C 154.210938 204.070312 154.28125 204.367188 154.234375 204.667969 L 154.210938 204.8125 L 159.402344 205.632812 L 159.425781 205.488281 C 159.46875 205.183594 159.632812 204.925781 159.882812 204.742188 C 160.132812 204.5625 160.429688 204.492188 160.730469 204.539062 L 160.875 204.5625 L 162.941406 191.519531 L 162.792969 191.496094 C 162.167969 191.390625 161.742188 190.8125 161.839844 190.1875 Z M 160.628906 204.230469 C 160.300781 204.210938 159.976562 204.308594 159.707031 204.503906 C 159.441406 204.703125 159.25 204.976562 159.167969 205.296875 L 154.542969 204.5625 C 154.558594 204.230469 154.46875 203.914062 154.269531 203.644531 C 154.070312 203.378906 153.796875 203.1875 153.480469 203.105469 L 155.453125 190.621094 C 155.78125 190.636719 156.105469 190.542969 156.375 190.347656 C 156.640625 190.148438 156.832031 189.875 156.914062 189.554688 L 161.539062 190.289062 C 161.503906 190.960938 161.945312 191.578125 162.601562 191.753906 Z M 160.628906 204.230469 " fill-opacity="1" fill-rule="nonzero"/><path fill="#ff732e" d="M 210.023438 18.886719 C 209.988281 19.210938 207.226562 20.964844 206.867188 21.03125 C 206.507812 21.09375 205.964844 20.578125 206.214844 20.117188 C 206.570312 19.472656 210.050781 18.558594 210.023438 18.886719 Z M 201.542969 24.382812 C 201.777344 24.359375 202.835938 23.472656 204.082031 22.699219 C 204.332031 22.417969 204.035156 21.5625 203.617188 21.609375 C 203.207031 21.65625 201.828125 22.785156 201.269531 23.988281 Z M 73.605469 85.464844 C 73.480469 84.746094 72.5625 81.875 70.25 82.671875 C 67.9375 83.46875 68.496094 88.617188 71.289062 89.9375 C 70.535156 98 66.0625 98.757812 66.0625 98.757812 C 72.445312 99.515625 74.398438 108.179688 74.398438 108.179688 L 75.078125 98.996094 C 75.078125 98.996094 77.753906 100.316406 79.269531 100.113281 C 80.785156 99.917969 84.84375 94.226562 84.84375 94.226562 C 84.84375 94.226562 86.625 94.40625 86.65625 93.71875 C 86.671875 93.324219 86.574219 89.941406 87.207031 87.816406 C 87.777344 85.898438 88.921875 81.277344 88.15625 78.253906 C 84.699219 83.546875 74.964844 86.425781 73.605469 85.464844 Z M 69.066406 136.0625 C 69.066406 136.0625 73.96875 144.578125 79.308594 148.628906 C 84.65625 152.679688 112.324219 163.632812 115.769531 165.269531 C 119.214844 166.910156 130.164062 170.101562 131.285156 166.304688 C 131.285156 166.304688 135.265625 166.113281 134.558594 164.585938 C 134.558594 164.585938 136.15625 163.875 135.265625 162.667969 C 136.15625 162.242188 136.082031 160.929688 134.523438 160.75 C 132.960938 160.570312 129.199219 159.253906 128.457031 158.511719 C 128.457031 158.511719 131.117188 159.1875 132.328125 158.832031 C 133.535156 158.476562 133.535156 157.378906 133.390625 157.164062 C 133.25 156.949219 126.03125 154.691406 124.683594 154.511719 C 123.335938 154.332031 118.84375 154.667969 116.890625 154.203125 C 114.9375 153.738281 93.78125 141.074219 90.695312 138.558594 C 87.609375 136.035156 84.214844 128.910156 84.214844 128.910156 C 84.214844 128.910156 68.984375 135.917969 69.066406 136.0625 Z M 69.066406 136.0625 " fill-opacity="1" fill-rule="nonzero"/><path fill="#001321" d="M 82.101562 84.558594 C 81.929688 83.878906 86.230469 83.863281 86.707031 84.171875 C 87.183594 84.476562 86.648438 85.402344 86.09375 85.398438 C 84.878906 85.066406 82.214844 85.007812 82.101562 84.558594 Z M 55.464844 125.539062 L 55.199219 125.421875 C 54.601562 126.796875 54.269531 128.25 54.210938 129.75 L 54.503906 129.761719 C 54.554688 128.304688 54.878906 126.878906 55.464844 125.539062 Z M 208.5 29.183594 C 208.941406 29.183594 209.5625 28.742188 209.855469 28.515625 L 209.585938 28.171875 C 209.144531 28.523438 208.605469 28.796875 208.484375 28.753906 C 208.214844 28.527344 206.734375 26.140625 206.65625 25.878906 L 206.441406 25.917969 L 206.222656 25.917969 C 206.222656 26.21875 207.90625 28.835938 208.199219 29.085938 C 208.277344 29.15625 208.382812 29.183594 208.5 29.183594 Z M 209.789062 31.097656 L 209.71875 31.085938 L 209.683594 31.519531 C 209.789062 31.542969 209.957031 31.574219 210.167969 31.574219 C 210.824219 31.574219 211.882812 31.277344 212.644531 29.625 L 212.25 29.445312 C 211.382812 31.316406 210.144531 31.183594 209.789062 31.097656 Z M 218.304688 31.496094 L 217.972656 31.21875 C 217.953125 31.234375 216.425781 33.054688 215.1875 33.957031 L 215.445312 34.3125 C 216.730469 33.375 218.238281 31.574219 218.304688 31.496094 Z M 207.859375 23.050781 C 208.109375 23.382812 208.675781 24.035156 209.097656 23.761719 C 209.570312 23.453125 209.359375 22.679688 209.097656 22.210938 C 209.464844 22.007812 209.835938 21.835938 210.230469 21.726562 L 210.117188 21.308594 C 209.035156 21.597656 208.082031 22.300781 207.214844 23.015625 L 207.496094 23.355469 C 207.617188 23.25 207.738281 23.152344 207.859375 23.050781 Z M 203.199219 26.097656 C 203.449219 26.390625 204.003906 26.894531 204.402344 26.617188 C 204.808594 26.332031 204.507812 25.535156 204.308594 25.175781 C 204.648438 24.945312 205.023438 24.730469 205.414062 24.585938 L 205.257812 24.179688 C 204.03125 24.652344 202.71875 25.789062 202.617188 26.207031 L 203.042969 26.3125 C 203.0625 26.265625 203.117188 26.191406 203.199219 26.097656 Z M 216.996094 21.3125 L 217.414062 21.191406 C 217.328125 20.882812 217.269531 20.570312 217.25 20.25 C 217.234375 19.894531 217.285156 19.664062 217.421875 19.523438 L 217.101562 19.226562 C 216.808594 19.535156 216.804688 19.976562 216.816406 20.28125 C 216.839844 20.628906 216.898438 20.976562 216.996094 21.3125 Z M 220.59375 73.835938 L 221.402344 65.292969 L 220.964844 65.25 L 220.175781 73.609375 C 219.078125 74.453125 206.339844 84.214844 199.167969 89.011719 L 199.410156 89.371094 C 206.882812 84.375 220.382812 74 220.519531 73.894531 Z M 239.109375 119.875 C 239.113281 120 239.503906 126.066406 240.753906 134.300781 L 240.746094 134.300781 C 236.636719 180.308594 235.3125 195.542969 234.910156 200.621094 L 232.058594 200.621094 L 232.058594 201.058594 L 234.878906 201.058594 C 234.714844 203.132812 234.742188 203.164062 234.765625 203.191406 L 234.929688 203.046875 L 235.144531 203.035156 C 235.132812 202.140625 240.078125 146.632812 241.019531 136.070312 C 242.378906 144.539062 244.617188 154.890625 248.195312 163.441406 L 248.597656 163.273438 C 241.183594 145.578125 239.550781 120.109375 239.53125 119.851562 Z M 247.34375 95.828125 C 247.34375 95.992188 247.421875 100.417969 248.039062 107.460938 L 240.777344 97.273438 L 240.421875 97.527344 L 248.121094 108.320312 C 249.957031 128.542969 256.082031 168.730469 276.375 194.050781 L 276.71875 193.777344 C 248.953125 159.128906 247.789062 96.453125 247.785156 95.824219 Z M 264.277344 105.445312 L 264.183594 105.019531 L 259.539062 106.058594 L 259.632812 106.484375 Z M 268.007812 196.707031 C 268.152344 196.707031 268.472656 196.558594 269.441406 196.082031 L 269.25 195.695312 C 268.25 196.183594 268.046875 196.257812 268 196.269531 L 268.023438 196.484375 L 267.863281 196.628906 C 267.910156 196.671875 267.9375 196.707031 268.007812 196.707031 Z M 272 194.308594 L 272.195312 194.699219 C 273.046875 194.265625 273.980469 193.789062 274.933594 193.292969 L 274.738281 192.902344 C 273.785156 193.398438 272.847656 193.875 272 194.308594 Z M 277.46875 191.492188 L 277.671875 191.878906 L 280.402344 190.460938 L 280.199219 190.074219 Z M 284.207031 187.976562 L 282.925781 188.648438 L 283.128906 189.03125 L 284.414062 188.359375 Z M 243.679688 201.058594 L 244.023438 201.058594 L 244.023438 200.621094 L 243.679688 200.621094 Z M 237.871094 201.058594 L 240.777344 201.058594 L 240.777344 200.621094 L 237.871094 200.621094 Z M 226.246094 201.058594 L 229.152344 201.058594 L 229.152344 200.621094 L 226.246094 200.621094 Z M 184.1875 99.257812 L 184.105469 98.828125 C 182.347656 99.160156 177.746094 99.109375 176.644531 98.636719 L 176.472656 99.039062 C 177.1875 99.339844 179.023438 99.472656 180.792969 99.472656 C 182.140625 99.480469 183.453125 99.398438 184.1875 99.257812 Z M 176.777344 100.234375 L 176.542969 100.609375 C 177.054688 100.925781 179.035156 101.089844 181.023438 101.089844 C 182.355469 101.089844 183.6875 101.019531 184.585938 100.875 L 184.515625 100.445312 C 182.089844 100.828125 177.421875 100.644531 176.777344 100.234375 Z M 178.660156 101.949219 L 178.460938 102.339844 C 179.234375 102.734375 180.710938 102.839844 182.019531 102.839844 C 183.335938 102.839844 184.488281 102.734375 184.582031 102.730469 L 184.539062 102.292969 C 184.492188 102.292969 180.089844 102.6875 178.660156 101.949219 Z M 183.238281 92.847656 L 183.007812 92.023438 L 182.585938 92.140625 L 182.820312 92.964844 Z M 265.074219 209.726562 C 265.496094 209.921875 266.945312 210.554688 266.945312 210.554688 L 267.117188 210.15625 C 267.117188 210.15625 265.683594 209.535156 265.257812 209.328125 Z M 266.015625 207.558594 L 267.941406 208.421875 L 268.125 208.027344 L 266.195312 207.160156 Z M 266.972656 205.300781 L 269.007812 206.226562 L 269.1875 205.832031 L 267.152344 204.90625 Z M 267.9375 203.039062 L 269.824219 203.914062 L 270.007812 203.515625 L 268.117188 202.644531 Z M 268.855469 200.808594 L 270.609375 201.890625 L 270.835938 201.519531 L 269.082031 200.4375 Z M 217.53125 212.195312 L 217.386719 212.03125 C 217.21875 212.179688 217.21875 212.179688 218.59375 214.234375 L 218.953125 213.992188 C 218.511719 213.328125 217.78125 212.222656 217.722656 212.109375 Z M 220.132812 209.941406 L 219.988281 209.777344 C 219.824219 209.917969 219.714844 210.015625 221.359375 212.324219 L 221.714844 212.066406 C 221.074219 211.171875 220.382812 210.132812 220.335938 209.941406 Z M 222.421875 207.921875 L 223.742188 209.660156 L 224.089844 209.398438 L 222.773438 207.660156 Z M 224.445312 206.160156 L 225.816406 207.921875 L 226.160156 207.65625 L 224.789062 205.894531 Z M 226.621094 204.277344 L 226.472656 204.117188 L 226.398438 204.273438 C 226.394531 204.382812 226.386719 204.457031 227.957031 206.179688 L 228.277344 205.882812 C 227.613281 205.15625 226.886719 204.324219 226.8125 204.199219 Z M 69.261719 135.964844 C 69.199219 135.835938 62.894531 122.839844 61.441406 119.445312 L 61.039062 119.613281 C 62.5 123.019531 68.808594 136.023438 68.875 136.15625 Z M 84.40625 128.820312 L 74.597656 108.089844 L 74.203125 108.273438 L 84.003906 129.007812 C 84.144531 129.296875 87.453125 136.210938 90.542969 138.730469 C 92.117188 140.015625 97.890625 143.679688 102.910156 146.742188 L 103.136719 146.371094 C 98.128906 143.316406 92.378906 139.667969 90.824219 138.394531 C 87.8125 135.929688 84.4375 128.890625 84.40625 128.820312 Z M 56.367188 195.269531 C 55.878906 194.722656 55.195312 193.898438 54.351562 192.863281 C 57.257812 193.949219 61.371094 195.414062 63.0625 196.011719 L 63.207031 195.601562 C 60.25 194.554688 56.28125 193.128906 53.8125 192.195312 C 49.347656 186.648438 41.257812 175.996094 34.414062 165.859375 C 34.015625 165.277344 33.628906 164.660156 33.25 164.023438 L 38.671875 149.539062 L 38.265625 149.386719 L 32.972656 163.535156 C 30.339844 158.871094 28.515625 152.855469 31.578125 147.277344 C 31.757812 146.949219 31.863281 146.753906 31.648438 146.632812 L 31.519531 146.859375 L 31.332031 146.800781 C 31.316406 146.847656 31.261719 146.9375 31.191406 147.066406 C 27.484375 153.816406 30.707031 161.144531 34.050781 166.101562 C 40.664062 175.898438 48.445312 186.183594 53.003906 191.886719 C 52.171875 191.566406 51.621094 191.339844 51.515625 191.265625 L 51.21875 191.585938 C 51.324219 191.6875 52.242188 192.0625 53.539062 192.554688 C 54.414062 193.648438 55.152344 194.535156 55.703125 195.175781 L 49.144531 191.898438 L 48.953125 192.289062 L 56.105469 195.863281 C 54.875 197.832031 31.4375 197.664062 15.875 197.070312 L 15.855469 197.507812 C 17.785156 197.582031 26.917969 197.910156 36.046875 197.910156 C 45.824219 197.910156 55.601562 197.53125 56.488281 196.054688 L 65.101562 200.359375 L 65.292969 199.972656 L 56.542969 195.59375 C 56.519531 195.496094 56.472656 195.386719 56.367188 195.269531 Z M 39.96875 188.660156 L 39.898438 189.089844 L 46.800781 190.183594 L 46.871094 189.753906 Z M 52.652344 159.015625 L 51.886719 157.871094 L 51.527344 158.117188 L 56.019531 164.851562 L 56.378906 164.609375 L 52.898438 159.390625 L 80.117188 149.339844 L 79.96875 148.933594 Z M 84.632812 157.84375 L 84.945312 158.144531 L 87.15625 155.835938 L 86.839844 155.535156 Z M 19.15625 206.929688 L 19.59375 206.929688 L 19.59375 204.023438 L 19.15625 204.023438 Z M 19.59375 187.359375 L 19.15625 187.359375 L 19.15625 189.492188 L 19.59375 189.492188 Z M 19.15625 201.117188 L 19.59375 201.117188 L 19.59375 198.210938 L 19.15625 198.210938 Z M 19.59375 192.398438 L 19.15625 192.398438 L 19.15625 195.304688 L 19.59375 195.304688 Z M 87.589844 189.125 L 87.65625 189.554688 L 90.53125 189.144531 L 90.46875 188.714844 Z M 96.222656 187.894531 L 95.535156 187.992188 C 95.535156 187.476562 95.535156 186.886719 95.535156 186.21875 C 95.535156 182.945312 95.535156 178.574219 95.535156 174.210938 C 95.53125 165.480469 95.519531 156.75 95.519531 156.75 L 95.082031 156.75 C 95.09375 165.824219 95.105469 181.128906 95.097656 188.054688 L 93.34375 188.304688 L 93.410156 188.734375 L 95.097656 188.492188 C 95.097656 190.382812 95.09375 191.554688 95.085938 191.652344 L 95.304688 191.675781 L 95.332031 191.890625 C 95.507812 191.871094 95.53125 191.863281 95.535156 188.429688 L 96.285156 188.324219 Z M 131.394531 166.078125 C 131.070312 166.109375 128.039062 166.125 126.480469 166.132812 L 126.480469 166.566406 C 126.667969 166.566406 131.011719 166.550781 131.4375 166.507812 Z M 134.621094 164.792969 L 134.503906 164.375 C 132.476562 164.953125 127.371094 164.351562 126.980469 164.285156 L 126.9375 164.5 L 126.898438 164.714844 C 126.933594 164.71875 129.542969 165.0625 131.894531 165.0625 C 132.9375 165.054688 133.929688 164.992188 134.621094 164.792969 Z M 135.324219 162.875 L 135.21875 162.453125 C 132.929688 163.015625 127.9375 162.148438 127.890625 162.136719 L 127.816406 162.570312 C 127.972656 162.597656 130.75 163.082031 133.140625 163.082031 C 133.949219 163.085938 134.71875 163.027344 135.324219 162.875 Z M 81.613281 86.808594 C 81.769531 86.816406 83.023438 86.960938 84.1875 87.273438 C 83.988281 87.734375 83.582031 88.847656 84.082031 89.109375 C 84.585938 89.378906 85.417969 88.320312 85.730469 87.882812 C 85.789062 87.925781 85.855469 87.964844 85.90625 88.007812 L 86.179688 87.667969 C 85.152344 86.839844 82.59375 86.484375 81.828125 86.394531 L 81.828125 85.902344 L 81.390625 85.902344 L 81.398438 86.796875 Z M 82.996094 96.824219 L 83.058594 96.394531 C 83.046875 96.394531 82.164062 96.25 81.351562 95.136719 L 81 95.394531 C 81.925781 96.660156 82.953125 96.816406 82.996094 96.824219 Z M 74.976562 99.191406 L 75.179688 98.804688 C 74.25 98.304688 73.152344 97.292969 73.039062 97.160156 L 72.867188 97.277344 L 72.933594 97.074219 L 72.664062 97.195312 C 72.511719 97.542969 74.5625 98.96875 74.976562 99.191406 Z M 71.441406 87.132812 L 71.867188 87.226562 C 72.070312 86.308594 71.640625 85.269531 70.847656 84.761719 L 70.609375 85.128906 C 71.257812 85.542969 71.605469 86.386719 71.441406 87.132812 Z M 162.957031 204.070312 L 165.9375 207.929688 L 165.398438 211.359375 L 135.882812 206.683594 L 136.421875 203.253906 L 140.449219 200.5 L 140.207031 200.140625 L 131.554688 206.058594 L 131.476562 206.109375 L 130.414062 212.828125 L 130.84375 212.898438 L 131.878906 206.367188 L 135.933594 203.59375 L 135.390625 207.046875 L 165.765625 211.851562 L 166.308594 208.398438 L 169.316406 212.289062 L 168.273438 218.878906 L 168.703125 218.949219 L 169.78125 212.171875 L 163.316406 203.796875 Z M 135.003906 210.527344 L 164.984375 215.324219 L 165.054688 214.890625 L 135.074219 210.097656 Z M 135.003906 210.527344 " fill-opacity="1" fill-rule="nonzero"/></svg>