<svg xmlns="http://www.w3.org/2000/svg" xmlns:xlink="http://www.w3.org/1999/xlink" width="500" zoomAndPan="magnify" viewBox="0 0 375 225" height="300" preserveAspectRatio="xMidYMid meet" version="1.0"><defs><clipPath id="a86f397a1e"><path d="M 30 16 L 345.40625 16 L 345.40625 225 L 30 225 Z M 30 16 " clip-rule="nonzero"/></clipPath></defs><path fill="#fbb387" d="M 235.6875 108.101562 L 235.6875 215.890625 L 55.21875 215.890625 L 55.21875 108.101562 C 55.21875 108.101562 195.675781 75.6875 235.6875 108.101562 Z M 235.6875 108.101562 " fill-opacity="1" fill-rule="nonzero"/><path fill="#f16738" d="M 55.21875 108.101562 L 76.8125 58.269531 L 76.8125 16.101562 L 111.011719 16.101562 L 111.011719 36.65625 L 203.460938 36.65625 L 234.410156 108.09375 L 55.21875 108.09375 Z M 55.21875 108.101562 " fill-opacity="1" fill-rule="nonzero"/><g clip-path="url(#a86f397a1e)"><path fill="#001321" d="M 63.375 219.292969 L 50.953125 216.003906 C 50.953125 216.003906 40.632812 223.136719 35.3125 224.054688 C 29.996094 224.96875 29.707031 221.226562 32.261719 217.335938 C 34.816406 213.449219 45.09375 199.875 45.09375 199.875 L 54.683594 202.71875 C 54.683594 202.71875 66.039062 202.65625 68.296875 204.210938 C 70.554688 205.765625 63.375 219.292969 63.375 219.292969 Z M 284.058594 205.0625 C 284.058594 205.0625 275.777344 210.875 272.703125 212.90625 C 269.785156 214.839844 271.042969 217.839844 275.617188 217.523438 C 280.199219 217.210938 300.472656 216.34375 300.472656 216.34375 L 299.96875 202.070312 Z M 338.828125 193.589844 L 325.148438 201.296875 C 324.976562 201.59375 320.886719 209.605469 319.324219 212.257812 C 317.765625 214.914062 320.441406 217.160156 324.355469 215.34375 C 328.269531 213.523438 345.367188 205.0625 345.367188 205.0625 Z M 218.386719 94.800781 L 228.59375 94.800781 L 228.59375 95.117188 L 199.753906 95.117188 L 199.753906 108.101562 L 199.4375 108.101562 L 199.4375 95.117188 L 163.660156 95.117188 L 163.660156 108.101562 L 163.34375 108.101562 L 163.34375 95.117188 L 127.566406 95.117188 L 127.566406 108.101562 L 127.253906 108.101562 L 127.253906 95.117188 L 112.074219 95.117188 L 117.726562 108.070312 L 117.726562 216.367188 L 117.410156 216.367188 L 117.410156 108.132812 L 111.726562 95.117188 L 91.46875 95.117188 L 91.46875 108.101562 L 91.152344 108.101562 L 91.152344 95.117188 L 60.84375 95.117188 L 60.84375 94.800781 L 73.046875 94.800781 L 73.046875 81.972656 L 66.6875 81.972656 L 66.6875 81.65625 L 91.152344 81.65625 L 91.152344 68.832031 L 72.269531 68.832031 L 72.269531 68.519531 L 100.121094 68.519531 L 94.527344 55.691406 L 78.257812 55.691406 L 76.914062 58.773438 L 76.621094 58.648438 L 77.914062 55.691406 L 76.957031 55.691406 L 76.957031 55.375 L 78.050781 55.375 L 83.644531 42.546875 L 76.773438 42.546875 L 76.773438 42.230469 L 83.792969 42.230469 L 86.289062 36.507812 L 109.304688 36.507812 L 109.304688 29.402344 L 76.773438 29.402344 L 76.773438 29.085938 L 91.152344 29.085938 L 91.152344 16.101562 L 91.46875 16.101562 L 91.46875 29.085938 L 111.40625 29.085938 L 111.40625 29.402344 L 109.617188 29.402344 L 109.617188 36.507812 L 111.40625 36.507812 L 111.40625 36.820312 L 109.617188 36.820312 L 109.617188 42.230469 L 145.558594 42.230469 L 145.558594 36.664062 L 145.875 36.664062 L 145.875 42.230469 L 181.816406 42.230469 L 181.816406 36.664062 L 182.132812 36.664062 L 182.132812 42.230469 L 205.9375 42.230469 L 205.9375 42.546875 L 199.753906 42.546875 L 199.753906 55.375 L 211.632812 55.375 L 211.632812 55.691406 L 182.132812 55.691406 L 182.132812 68.519531 L 217.140625 68.519531 L 217.140625 68.832031 L 199.753906 68.832031 L 199.753906 81.664062 L 223.019531 81.664062 L 223.019531 81.976562 L 218.378906 81.976562 L 218.378906 94.800781 Z M 218.070312 81.972656 L 182.132812 81.972656 L 182.132812 94.800781 L 218.070312 94.800781 Z M 127.246094 81.65625 L 127.246094 68.832031 L 100.601562 68.832031 L 106.195312 81.664062 L 127.246094 81.664062 Z M 106.332031 81.972656 L 109.304688 88.773438 L 109.304688 81.972656 Z M 91.46875 47.90625 L 94.730469 55.375 L 127.246094 55.375 L 127.246094 42.546875 L 91.46875 42.546875 Z M 91.152344 42.546875 L 89.128906 42.546875 L 91.152344 47.183594 Z M 163.34375 55.375 L 163.34375 42.546875 L 127.566406 42.546875 L 127.566406 55.375 Z M 109.617188 55.691406 L 109.617188 68.519531 L 145.558594 68.519531 L 145.558594 55.691406 Z M 127.5625 81.65625 L 163.339844 81.65625 L 163.339844 68.832031 L 127.5625 68.832031 Z M 145.875 81.972656 L 145.875 94.800781 L 181.816406 94.800781 L 181.816406 81.972656 Z M 199.4375 68.832031 L 163.660156 68.832031 L 163.660156 81.664062 L 199.4375 81.664062 Z M 181.816406 55.691406 L 145.875 55.691406 L 145.875 68.519531 L 181.816406 68.519531 Z M 199.4375 42.546875 L 163.660156 42.546875 L 163.660156 55.375 L 199.4375 55.375 Z M 109.304688 36.820312 L 86.628906 36.820312 L 88.988281 42.230469 L 109.296875 42.230469 L 109.296875 36.820312 Z M 84.132812 42.230469 L 88.648438 42.230469 L 86.390625 37.054688 Z M 78.398438 55.375 L 91.152344 55.375 L 91.152344 47.96875 L 88.789062 42.546875 L 84 42.546875 Z M 94.390625 55.375 L 91.476562 48.695312 L 91.476562 55.375 Z M 100.460938 68.519531 L 109.304688 68.519531 L 109.304688 55.691406 L 94.867188 55.691406 Z M 91.46875 81.65625 L 105.855469 81.65625 L 100.261719 68.828125 L 91.46875 68.828125 Z M 73.363281 94.800781 L 109.304688 94.800781 L 109.304688 89.566406 L 105.992188 81.976562 L 73.363281 81.976562 Z M 111.589844 94.800781 L 109.617188 90.28125 L 109.617188 94.800781 Z M 111.933594 94.800781 L 145.558594 94.800781 L 145.558594 81.972656 L 109.617188 81.972656 L 109.617188 89.496094 Z M 111.933594 94.800781 " fill-opacity="1" fill-rule="nonzero"/></g><path fill="#f16738" d="M 108.730469 150.882812 C 108.730469 150.882812 120.507812 160.382812 122.519531 161.90625 C 124.535156 163.425781 133.003906 165.6875 133.21875 166.300781 C 133.433594 166.917969 133.21875 180.445312 133.21875 180.445312 C 133.21875 180.445312 107.75 176.695312 99.359375 159.570312 C 90.972656 142.445312 108.730469 150.882812 108.730469 150.882812 Z M 299.464844 77.875 L 287.898438 95.648438 L 279.125 205.0625 L 302.875 205.0625 L 307.089844 173.109375 C 307.089844 173.109375 312.820312 199.585938 317.117188 205.96875 L 343.964844 193.972656 C 343.964844 193.972656 325.996094 166.898438 318.15625 88.785156 Z M 165.113281 163.289062 C 164.152344 162.324219 163.382812 163.164062 163.382812 163.164062 C 162.394531 162.125 161.4375 163.105469 161.4375 163.105469 C 160.238281 162.066406 159.347656 163.238281 159.347656 163.238281 C 157.273438 161.683594 154.214844 165.882812 154.214844 165.882812 L 158.273438 165.882812 C 158.273438 165.882812 160.105469 168.113281 161.632812 166.894531 C 162.90625 167.515625 163.257812 166.421875 163.257812 166.421875 C 164.234375 167.234375 165.019531 166.21875 165.019531 166.21875 C 165.59375 166.65625 166.285156 166.125 166.308594 165.785156 C 166.328125 165.441406 165.566406 163.746094 165.113281 163.289062 Z M 165.113281 163.289062 " fill-opacity="1" fill-rule="nonzero"/><path fill="#f8dbb3" d="M 245.515625 33.03125 C 245.515625 33.03125 238.15625 31.378906 235.921875 23.785156 C 233.6875 16.1875 237.664062 6.613281 246.667969 3.296875 C 255.675781 -0.0195312 266.179688 9.769531 266.039062 19.511719 C 265.902344 29.25 245.515625 33.03125 245.515625 33.03125 Z M 247.605469 126.179688 C 249.160156 124.195312 252.945312 114.570312 252.945312 114.570312 C 252.945312 114.570312 246.601562 108.902344 242.371094 105.195312 C 238.140625 101.488281 233.238281 101.074219 228.601562 103.519531 C 223.960938 105.976562 223.835938 113.136719 225.71875 116.558594 C 227.601562 119.980469 242.371094 131.664062 242.371094 131.664062 C 242.371094 131.664062 246.050781 128.15625 247.605469 126.179688 Z M 247.605469 126.179688 " fill-opacity="1" fill-rule="nonzero"/><path fill="#5f9e8b" d="M 261.117188 85.550781 L 267.054688 78.164062 L 267.136719 53.222656 L 263.628906 37.035156 L 268.035156 21.101562 C 268.035156 21.101562 278.382812 22.375 285.957031 27.734375 C 293.535156 33.09375 312.300781 54.972656 318.15625 88.78125 L 285.035156 96.296875 C 285.035156 96.296875 284.109375 90.71875 284.089844 90.75 C 284.078125 90.773438 280.09375 97.410156 275.851562 100.707031 L 273.296875 98.21875 C 273.300781 98.210938 260.261719 97.820312 261.117188 85.550781 Z M 242 103.640625 L 256.925781 116.539062 L 242.503906 133.21875 L 227.574219 120.320312 C 222.976562 116.34375 222.464844 109.371094 226.441406 104.773438 C 230.417969 100.175781 237.398438 99.664062 242 103.640625 Z M 228.59375 105.339844 L 237.976562 113.449219 L 243.277344 107.316406 L 240.722656 105.105469 C 237.183594 102.054688 231.9375 102.21875 228.59375 105.339844 Z M 228.847656 118.847656 L 231.402344 121.058594 L 236.699219 114.921875 L 227.316406 106.8125 C 224.710938 110.574219 225.308594 115.789062 228.847656 118.847656 Z M 242.300781 130.476562 L 247.601562 124.339844 L 238.171875 116.199219 L 232.875 122.335938 Z M 254.175781 116.734375 L 244.75 108.59375 L 239.449219 114.726562 L 248.878906 122.867188 Z M 254.175781 116.734375 " fill-opacity="1" fill-rule="nonzero"/><path fill="#fbb387" d="M 268.035156 21.101562 L 265.820312 19.316406 L 262.113281 17.410156 C 261.671875 11.386719 256.277344 9.398438 255.273438 13.957031 C 255.273438 13.957031 250.796875 24.324219 237.636719 22.375 C 237.992188 26.507812 243.023438 30.144531 243.722656 30.609375 C 244.421875 31.070312 245.289062 34.648438 246.097656 35.359375 C 246.902344 36.070312 248.558594 33.984375 248.558594 33.984375 C 248.558594 33.984375 257.34375 40.300781 260.734375 32.71875 L 263.328125 35.359375 L 263.628906 37.027344 C 265.617188 37.992188 269.257812 35.121094 268.035156 21.101562 Z M 242.71875 27.292969 C 242.382812 27.632812 241.199219 26.550781 241.328125 26.035156 C 241.519531 25.261719 244.738281 22.871094 244.996094 23.269531 C 245.257812 23.664062 243.050781 26.953125 242.71875 27.292969 Z M 273.300781 98.210938 L 259.953125 108.65625 C 260.390625 117.34375 255.203125 122.996094 253.265625 122.9375 C 251.464844 124.492188 250.289062 124.164062 250.289062 124.164062 C 247.695312 125.667969 246.769531 124.179688 246.769531 124.179688 C 245.160156 124.171875 244.398438 122.902344 246.097656 121.285156 C 247.796875 119.667969 249.449219 115.445312 247.902344 108.742188 L 244.996094 106.246094 L 261.125 85.546875 Z M 273.300781 98.210938 " fill-opacity="1" fill-rule="nonzero"/><path fill="#5f9e8b" d="M 180.886719 165.886719 L 180.886719 209.433594 L 131.757812 209.433594 L 131.757812 165.886719 Z M 77.894531 221.886719 C 95.175781 223.609375 100.847656 221.980469 102.972656 217.375 C 105.09375 212.769531 105.621094 204.210938 105.621094 204.210938 L 100.210938 203.003906 L 88.863281 193.414062 L 97.203125 188.921875 L 97.8125 191.632812 C 97.8125 191.632812 103.386719 196.660156 109.863281 194.539062 C 116.339844 192.421875 116.761719 184.5 116.761719 184.5 C 116.761719 184.5 111.304688 155.707031 98.171875 161.074219 L 72.167969 145.59375 L 57.058594 155.585938 C 57.058594 155.585938 46.773438 177.804688 46.25 189.304688 C 45.730469 200.808594 65.917969 209.277344 65.917969 209.277344 Z M 77.894531 221.886719 " fill-opacity="1" fill-rule="nonzero"/><path fill="#001321" d="M 152.632812 187.664062 C 152.632812 187.160156 153.042969 186.75 153.546875 186.75 C 154.050781 186.75 154.460938 187.160156 154.460938 187.664062 C 154.460938 188.167969 154.050781 188.574219 153.546875 188.574219 C 153.042969 188.574219 152.632812 188.167969 152.632812 187.664062 Z M 142.125 172.695312 L 142.28125 172.695312 L 142.28125 183.511719 L 142.125 183.511719 C 141.25 183.511719 140.539062 184.222656 140.539062 185.097656 L 140.539062 185.253906 L 137.523438 185.253906 L 137.523438 185.097656 C 137.523438 184.222656 136.8125 183.511719 135.9375 183.511719 L 135.78125 183.511719 L 135.78125 172.695312 L 135.9375 172.695312 C 136.8125 172.695312 137.523438 171.984375 137.523438 171.109375 L 137.523438 170.953125 L 140.539062 170.953125 L 140.539062 171.109375 C 140.542969 171.984375 141.253906 172.695312 142.125 172.695312 Z M 141.964844 173.003906 C 141.046875 172.929688 140.304688 172.191406 140.230469 171.265625 L 137.832031 171.265625 C 137.757812 172.183594 137.019531 172.929688 136.09375 173.003906 L 136.09375 183.203125 C 137.015625 183.277344 137.757812 184.015625 137.832031 184.9375 L 140.230469 184.9375 C 140.304688 184.019531 141.042969 183.277344 141.964844 183.203125 Z M 152.097656 172.695312 L 152.257812 172.695312 L 152.257812 183.511719 L 152.097656 183.511719 C 151.222656 183.511719 150.511719 184.222656 150.511719 185.097656 L 150.511719 185.253906 L 147.5 185.253906 L 147.5 185.097656 C 147.5 184.222656 146.789062 183.511719 145.914062 183.511719 L 145.753906 183.511719 L 145.753906 172.695312 L 145.914062 172.695312 C 146.789062 172.695312 147.5 171.984375 147.5 171.109375 L 147.5 170.953125 L 150.511719 170.953125 L 150.511719 171.109375 C 150.511719 171.984375 151.222656 172.695312 152.097656 172.695312 Z M 151.941406 173.003906 C 151.023438 172.929688 150.28125 172.191406 150.203125 171.265625 L 147.808594 171.265625 C 147.730469 172.183594 146.996094 172.929688 146.070312 173.003906 L 146.070312 183.203125 C 146.988281 183.277344 147.730469 184.015625 147.808594 184.9375 L 150.203125 184.9375 C 150.28125 184.019531 151.015625 183.277344 151.941406 183.203125 Z M 142.125 191.816406 L 142.28125 191.816406 L 142.28125 202.632812 L 142.125 202.632812 C 141.25 202.632812 140.539062 203.34375 140.539062 204.21875 L 140.539062 204.375 L 137.523438 204.375 L 137.523438 204.21875 C 137.523438 203.34375 136.8125 202.632812 135.9375 202.632812 L 135.78125 202.632812 L 135.78125 191.816406 L 135.9375 191.816406 C 136.8125 191.816406 137.523438 191.105469 137.523438 190.230469 L 137.523438 190.074219 L 140.539062 190.074219 L 140.539062 190.230469 C 140.542969 191.105469 141.253906 191.816406 142.125 191.816406 Z M 141.964844 192.125 C 141.046875 192.050781 140.304688 191.3125 140.230469 190.386719 L 137.832031 190.386719 C 137.757812 191.304688 137.019531 192.050781 136.09375 192.125 L 136.09375 202.324219 C 137.015625 202.398438 137.757812 203.136719 137.832031 204.058594 L 140.230469 204.058594 C 140.304688 203.140625 141.042969 202.398438 141.964844 202.324219 Z M 152.097656 191.816406 L 152.257812 191.816406 L 152.257812 202.632812 L 152.097656 202.632812 C 151.222656 202.632812 150.511719 203.34375 150.511719 204.21875 L 150.511719 204.375 L 147.5 204.375 L 147.5 204.21875 C 147.5 203.34375 146.789062 202.632812 145.914062 202.632812 L 145.753906 202.632812 L 145.753906 191.816406 L 145.914062 191.816406 C 146.789062 191.816406 147.5 191.105469 147.5 190.230469 L 147.5 190.074219 L 150.511719 190.074219 L 150.511719 190.230469 C 150.511719 191.105469 151.222656 191.816406 152.097656 191.816406 Z M 151.941406 192.125 C 151.023438 192.050781 150.28125 191.3125 150.203125 190.386719 L 147.808594 190.386719 C 147.730469 191.304688 146.996094 192.050781 146.070312 192.125 L 146.070312 202.324219 C 146.988281 202.398438 147.730469 203.136719 147.808594 204.058594 L 150.203125 204.058594 C 150.28125 203.140625 151.015625 202.398438 151.941406 202.324219 Z M 156.480469 165.886719 L 156.164062 165.886719 L 156.164062 209.433594 L 156.480469 209.433594 Z M 159.089844 186.75 C 158.585938 186.75 158.179688 187.160156 158.179688 187.664062 C 158.179688 188.167969 158.585938 188.574219 159.089844 188.574219 C 159.59375 188.574219 160.003906 188.167969 160.003906 187.664062 C 160.003906 187.160156 159.59375 186.75 159.089844 186.75 Z M 170.511719 183.511719 L 170.355469 183.511719 L 170.355469 172.695312 L 170.511719 172.695312 C 171.386719 172.695312 172.097656 171.984375 172.097656 171.109375 L 172.097656 170.953125 L 175.113281 170.953125 L 175.113281 171.109375 C 175.113281 171.984375 175.824219 172.695312 176.699219 172.695312 L 176.855469 172.695312 L 176.855469 183.511719 L 176.699219 183.511719 C 175.824219 183.511719 175.113281 184.222656 175.113281 185.097656 L 175.113281 185.253906 L 172.097656 185.253906 L 172.097656 185.097656 C 172.097656 184.222656 171.386719 183.511719 170.511719 183.511719 Z M 170.671875 183.203125 C 171.589844 183.277344 172.332031 184.015625 172.40625 184.9375 L 174.804688 184.9375 C 174.882812 184.019531 175.617188 183.277344 176.542969 183.203125 L 176.542969 173.003906 C 175.625 172.929688 174.882812 172.191406 174.804688 171.265625 L 172.40625 171.265625 C 172.332031 172.183594 171.597656 172.929688 170.671875 173.003906 Z M 166.71875 172.695312 L 166.875 172.695312 L 166.875 183.511719 L 166.71875 183.511719 C 165.84375 183.511719 165.132812 184.222656 165.132812 185.097656 L 165.132812 185.253906 L 162.117188 185.253906 L 162.117188 185.097656 C 162.117188 184.222656 161.40625 183.511719 160.53125 183.511719 L 160.375 183.511719 L 160.375 172.695312 L 160.53125 172.695312 C 161.40625 172.695312 162.117188 171.984375 162.117188 171.109375 L 162.117188 170.953125 L 165.132812 170.953125 L 165.132812 171.109375 C 165.140625 171.984375 165.851562 172.695312 166.71875 172.695312 Z M 166.5625 173.003906 C 165.640625 172.929688 164.898438 172.191406 164.824219 171.265625 L 162.425781 171.265625 C 162.351562 172.183594 161.613281 172.929688 160.691406 173.003906 L 160.691406 183.203125 C 161.609375 183.277344 162.351562 184.015625 162.425781 184.9375 L 164.824219 184.9375 C 164.898438 184.019531 165.636719 183.277344 166.5625 183.203125 Z M 175.109375 204.21875 L 175.109375 204.375 L 172.09375 204.375 L 172.09375 204.21875 C 172.09375 203.34375 171.382812 202.632812 170.507812 202.632812 L 170.351562 202.632812 L 170.351562 191.816406 L 170.507812 191.816406 C 171.382812 191.816406 172.09375 191.105469 172.09375 190.230469 L 172.09375 190.074219 L 175.109375 190.074219 L 175.109375 190.230469 C 175.109375 191.105469 175.820312 191.816406 176.695312 191.816406 L 176.851562 191.816406 L 176.851562 202.632812 L 176.695312 202.632812 C 175.820312 202.632812 175.109375 203.34375 175.109375 204.21875 Z M 176.535156 202.324219 L 176.535156 192.125 C 175.617188 192.050781 174.875 191.3125 174.800781 190.386719 L 172.402344 190.386719 C 172.324219 191.304688 171.589844 192.050781 170.664062 192.125 L 170.664062 202.324219 C 171.582031 202.398438 172.324219 203.136719 172.402344 204.058594 L 174.800781 204.058594 C 174.882812 203.136719 175.617188 202.398438 176.535156 202.324219 Z M 166.71875 191.816406 L 166.875 191.816406 L 166.875 202.632812 L 166.71875 202.632812 C 165.84375 202.632812 165.132812 203.34375 165.132812 204.21875 L 165.132812 204.375 L 162.117188 204.375 L 162.117188 204.21875 C 162.117188 203.34375 161.40625 202.632812 160.53125 202.632812 L 160.375 202.632812 L 160.375 191.816406 L 160.53125 191.816406 C 161.40625 191.816406 162.117188 191.105469 162.117188 190.230469 L 162.117188 190.074219 L 165.132812 190.074219 L 165.132812 190.230469 C 165.140625 191.105469 165.851562 191.816406 166.71875 191.816406 Z M 166.5625 192.125 C 165.640625 192.050781 164.898438 191.3125 164.824219 190.386719 L 162.425781 190.386719 C 162.351562 191.304688 161.613281 192.050781 160.691406 192.125 L 160.691406 202.324219 C 161.609375 202.398438 162.351562 203.136719 162.425781 204.058594 L 164.824219 204.058594 C 164.898438 203.140625 165.636719 202.398438 166.5625 202.324219 Z M 210.898438 155.957031 L 214.675781 155.957031 L 214.675781 155.644531 L 210.898438 155.644531 Z M 199.570312 155.644531 L 195.792969 155.644531 L 195.792969 155.957031 L 199.570312 155.957031 Z M 194.929688 136.074219 L 194.929688 137.628906 L 195.246094 137.628906 L 195.246094 136.074219 C 195.246094 135.347656 195.320312 134.617188 195.464844 133.90625 L 195.15625 133.84375 C 195.007812 134.570312 194.929688 135.328125 194.929688 136.074219 Z M 214.234375 128.859375 C 215.0625 129.796875 215.726562 130.855469 216.191406 132.003906 L 216.480469 131.886719 C 216 130.703125 215.320312 129.613281 214.464844 128.652344 Z M 206.113281 124.894531 C 204.824219 124.894531 203.566406 125.117188 202.359375 125.542969 L 202.464844 125.839844 C 203.636719 125.417969 204.863281 125.210938 206.113281 125.210938 Z M 203.347656 155.957031 L 207.121094 155.957031 L 207.121094 155.644531 L 203.347656 155.644531 Z M 211.488281 126.273438 C 210.363281 125.648438 209.15625 125.234375 207.882812 125.035156 L 207.832031 125.34375 C 209.058594 125.535156 210.238281 125.941406 211.332031 126.542969 Z M 216.984375 146.9375 L 217.296875 146.9375 L 217.296875 143.160156 L 216.984375 143.160156 Z M 194.929688 145.179688 L 195.246094 145.179688 L 195.246094 141.40625 L 194.929688 141.40625 Z M 199.242188 127.664062 L 199.042969 127.417969 C 198.046875 128.230469 197.203125 129.199219 196.542969 130.292969 L 196.8125 130.457031 C 197.460938 129.394531 198.273438 128.449219 199.242188 127.664062 Z M 217.292969 135.605469 L 216.976562 135.617188 C 216.984375 135.769531 216.988281 135.917969 216.988281 136.070312 L 216.988281 139.378906 L 217.304688 139.378906 L 217.304688 136.070312 C 217.296875 135.917969 217.296875 135.761719 217.292969 135.605469 Z M 194.929688 152.730469 L 195.246094 152.730469 L 195.246094 148.957031 L 194.929688 148.957031 Z M 216.984375 154.484375 L 217.296875 154.484375 L 217.296875 150.710938 L 216.984375 150.710938 Z M 198.3125 172.492188 L 200.808594 172.492188 L 200.808594 173.457031 L 201.125 173.457031 L 201.125 172.179688 L 198.3125 172.179688 Z M 151.675781 213.058594 L 151.992188 213.058594 L 151.992188 209.28125 L 151.675781 209.28125 Z M 200.808594 181.007812 L 201.125 181.007812 L 201.125 177.230469 L 200.808594 177.230469 Z M 182.988281 216.046875 L 186.761719 216.046875 L 186.761719 215.730469 L 182.988281 215.730469 Z M 175.433594 216.046875 L 179.210938 216.046875 L 179.210938 215.730469 L 175.433594 215.730469 Z M 200.808594 215.730469 L 198.097656 215.730469 L 198.097656 216.046875 L 201.125 216.046875 L 201.125 214.984375 L 200.808594 214.984375 Z M 167.882812 216.046875 L 171.660156 216.046875 L 171.660156 215.730469 L 167.882812 215.730469 Z M 190.757812 172.492188 L 194.535156 172.492188 L 194.535156 172.179688 L 190.757812 172.179688 Z M 183.207031 172.492188 L 186.984375 172.492188 L 186.984375 172.179688 L 183.207031 172.179688 Z M 190.539062 216.046875 L 194.316406 216.046875 L 194.316406 215.730469 L 190.539062 215.730469 Z M 200.808594 188.558594 L 201.125 188.558594 L 201.125 184.78125 L 200.808594 184.78125 Z M 200.808594 211.207031 L 201.125 211.207031 L 201.125 207.433594 L 200.808594 207.433594 Z M 200.808594 196.105469 L 201.125 196.105469 L 201.125 192.332031 L 200.808594 192.332031 Z M 152.777344 216.046875 L 156.554688 216.046875 L 156.554688 215.730469 L 152.777344 215.730469 Z M 200.808594 203.65625 L 201.125 203.65625 L 201.125 199.882812 L 200.808594 199.882812 Z M 160.332031 216.046875 L 164.105469 216.046875 L 164.105469 215.730469 L 160.332031 215.730469 Z M 160.332031 216.046875 " fill-opacity="1" fill-rule="nonzero"/><path fill="#f8dbb3" d="M 137.574219 136.964844 C 137.78125 130.0625 141.179688 126.148438 147.242188 125.859375 C 153.300781 125.5625 155.753906 129.078125 156.839844 132.433594 C 157.921875 135.785156 157.664062 154.792969 157.664062 154.792969 L 137.574219 154.792969 C 137.574219 154.792969 137.367188 143.867188 137.574219 136.964844 Z M 83.074219 121.289062 C 83.074219 121.289062 75.527344 123.273438 70.335938 129.3125 C 65.144531 135.351562 57.042969 155.582031 57.042969 155.582031 L 70.71875 161.117188 L 73.652344 153.953125 L 80.707031 169.894531 L 83.054688 168.289062 L 96.125 168.257812 L 96.875 161.632812 C 96.875 161.632812 105.8125 158.273438 110.902344 149.515625 L 92.054688 126.664062 Z M 83.074219 121.289062 " fill-opacity="1" fill-rule="nonzero"/><path fill="#5f9e8b" d="M 147.242188 125.050781 C 141.160156 125.050781 136.214844 129.996094 136.214844 136.074219 L 136.214844 155.800781 L 158.265625 155.800781 L 158.265625 136.074219 C 158.265625 129.996094 153.320312 125.050781 147.242188 125.050781 Z M 146.265625 153.851562 L 138.160156 153.851562 L 138.160156 141.394531 L 146.265625 141.394531 Z M 146.265625 139.453125 L 138.160156 139.453125 L 138.160156 136.074219 C 138.160156 131.402344 141.714844 127.539062 146.265625 127.054688 Z M 156.320312 153.851562 L 148.214844 153.851562 L 148.214844 141.394531 L 156.320312 141.394531 Z M 156.320312 139.453125 L 148.214844 139.453125 L 148.214844 127.054688 C 152.765625 127.539062 156.320312 131.402344 156.320312 136.074219 Z M 88.273438 135.855469 C 85.472656 126.054688 77 123.132812 71.457031 128.117188 C 73.589844 125.976562 75.96875 124.429688 78.027344 123.359375 C 84.390625 123.976562 88.710938 131.457031 88.273438 135.855469 Z M 88.273438 135.855469 " fill-opacity="1" fill-rule="nonzero"/><path fill="#001321" d="M 101.015625 128.519531 C 97.113281 126.097656 89.554688 126.234375 89.4375 126.667969 C 89.316406 127.105469 82.261719 123.957031 84.777344 119.949219 C 84.601562 109.285156 88.371094 99.09375 99.132812 97.632812 C 109.894531 96.171875 114.308594 107.335938 114.457031 113.457031 C 114.609375 119.578125 113.539062 129.933594 113.539062 129.933594 C 113.539062 129.933594 104.917969 130.933594 101.015625 128.519531 Z M 128.800781 216.40625 C 126.371094 213.152344 116.914062 209.917969 116.914062 209.917969 L 115.214844 201.203125 C 115.214844 201.203125 112.734375 198.75 112.175781 198.546875 C 111.613281 198.347656 100.210938 203.003906 100.210938 203.003906 L 103.515625 220.691406 C 103.515625 220.691406 115.378906 220.820312 120.953125 220.691406 C 126.527344 220.558594 131.230469 219.652344 128.800781 216.40625 Z M 112.527344 13.503906 L 75.652344 13.503906 L 75.652344 16.84375 L 112.527344 16.84375 Z M 112.527344 13.503906 " fill-opacity="1" fill-rule="nonzero"/><path fill="#f16738" d="M 83.074219 121.289062 L 84.773438 119.949219 L 85.011719 122.71875 C 86.171875 124.617188 90.902344 124.996094 90.902344 124.996094 C 90.511719 121.605469 90.984375 117.085938 90.984375 117.085938 C 90.511719 114.320312 92.128906 110.679688 95.722656 113.726562 C 103.792969 117.875 113.242188 109.4375 113.242188 109.4375 C 114.503906 113.171875 109.210938 121.421875 108.921875 121.289062 C 108.632812 121.15625 107.378906 126.945312 107.378906 126.945312 L 105.957031 126.222656 C 101.3125 132.835938 96.980469 130.628906 94.609375 128.425781 C 93.953125 129.539062 93.125 130.871094 93.125 130.871094 C 85.214844 128.230469 83.074219 121.289062 83.074219 121.289062 Z M 140.109375 197.222656 C 138.695312 196.503906 132.867188 196.351562 131.757812 194.894531 L 131.757812 192.332031 C 131.757812 192.332031 124.269531 191.4375 123.394531 190.40625 C 121.59375 188.480469 100.265625 164.945312 100.265625 164.945312 L 97.824219 159.5625 L 83.0625 168.296875 C 87.742188 178.476562 95.527344 185.71875 102.550781 190.707031 L 97.804688 191.632812 C 97.84375 191.824219 100.210938 203.003906 100.210938 203.003906 L 115.371094 200.800781 L 115.296875 198.339844 C 116.523438 199 117.371094 199.472656 117.707031 199.789062 C 119.800781 201.777344 120.695312 202.523438 124.019531 204.601562 C 127.339844 206.679688 131.351562 207.167969 134.039062 206.824219 C 136.722656 206.476562 138.078125 204.921875 138.078125 204.921875 C 139.285156 204.480469 139.675781 202.996094 139.675781 202.996094 C 139.675781 202.996094 141.136719 202.777344 141.207031 202.488281 C 141.640625 200.933594 140.445312 200.230469 140.445312 200.230469 C 140.445312 200.230469 141.304688 200.230469 141.433594 199.871094 C 141.601562 199.378906 141.519531 197.9375 140.109375 197.222656 Z M 63.375 219.292969 C 63.929688 219.429688 77.902344 221.886719 77.902344 221.886719 L 78.183594 213.8125 L 65.917969 209.28125 Z M 277.386719 209.734375 L 277.25 209.804688 L 277.160156 209.671875 L 277.097656 209.78125 C 277.085938 209.855469 277.105469 209.878906 277.230469 210.042969 C 279.226562 212.71875 279.96875 215.457031 280.238281 217.28125 L 280.546875 217.234375 C 280.277344 215.375 279.519531 212.585938 277.480469 209.863281 C 277.429688 209.792969 277.398438 209.753906 277.386719 209.734375 Z M 295.027344 216.550781 L 295.34375 216.582031 C 295.347656 216.523438 296.015625 210.753906 300.269531 210.070312 L 300.21875 209.761719 C 295.730469 210.484375 295.035156 216.492188 295.027344 216.550781 Z M 321.167969 208.828125 L 321.089844 209.132812 C 321.125 209.144531 324.714844 210.144531 327.207031 213.996094 L 327.46875 213.824219 C 324.914062 209.867188 321.207031 208.84375 321.167969 208.828125 Z M 342.316406 199.996094 L 342.140625 199.730469 C 338.3125 202.292969 340.28125 207.488281 340.300781 207.539062 L 340.597656 207.425781 C 340.578125 207.382812 338.703125 202.417969 342.316406 199.996094 Z M 50.648438 215.863281 L 50.964844 215.90625 C 50.972656 215.871094 51.46875 212.398438 52.199219 211.285156 L 51.933594 211.105469 C 51.167969 212.285156 50.675781 215.71875 50.648438 215.863281 Z M 50.648438 215.863281 " fill-opacity="1" fill-rule="nonzero"/><path fill="#001321" d="M 252.894531 116.257812 C 251.972656 120.710938 247.066406 124.164062 246.859375 124.308594 L 246.675781 124.050781 C 246.726562 124.015625 251.691406 120.523438 252.585938 116.195312 Z M 255.4375 116.199219 C 254.824219 119.960938 250.226562 124.007812 250.179688 124.050781 L 250.386719 124.292969 C 250.582031 124.121094 255.121094 120.125 255.75 116.257812 Z M 253.328125 122.824219 L 253.542969 123.050781 C 253.574219 123.027344 256.519531 120.207031 257.078125 116.578125 L 256.769531 116.527344 C 256.230469 120.054688 253.359375 122.800781 253.328125 122.824219 Z M 266.972656 78.296875 L 268.386719 79.164062 L 268.550781 78.894531 L 267.136719 78.027344 Z M 283.964844 90.65625 L 284.222656 90.835938 C 284.285156 90.75 290.597656 81.808594 290.703125 67.492188 C 290.8125 53.203125 289.816406 49.5 289.773438 49.355469 L 289.46875 49.4375 C 289.484375 49.472656 290.496094 53.273438 290.390625 67.492188 C 290.277344 81.699219 284.027344 90.566406 283.964844 90.65625 Z M 267.136719 53.222656 L 267.285156 53.191406 C 267.234375 52.839844 267.273438 43.535156 267.292969 39.980469 L 266.976562 39.980469 C 266.910156 53.230469 266.964844 53.28125 267.023438 53.34375 Z M 260.589844 32.648438 L 260.867188 32.792969 C 260.917969 32.691406 262.125 30.332031 262.332031 26.25 L 262.019531 26.230469 C 261.816406 30.246094 260.601562 32.625 260.589844 32.648438 Z M 258.714844 13.144531 L 258.40625 13.070312 C 258.136719 14.195312 258.21875 15.410156 258.632812 16.484375 L 258.929688 16.371094 C 258.53125 15.351562 258.457031 14.207031 258.714844 13.144531 Z M 253.113281 32.234375 L 252.800781 32.203125 C 252.621094 33.996094 251.578125 35.554688 251.566406 35.574219 L 251.824219 35.75 C 251.875 35.679688 252.929688 34.109375 253.113281 32.234375 Z M 246.894531 28.699219 C 247.523438 28.195312 246.070312 26.804688 245.636719 26.417969 C 245.953125 26.066406 246.324219 25.714844 246.757812 25.425781 L 246.582031 25.167969 C 244.882812 26.3125 244.078125 28.21875 244.042969 28.300781 L 244.335938 28.421875 C 244.335938 28.414062 244.433594 28.1875 244.625 27.847656 C 245.015625 28.179688 246.277344 29.1875 246.894531 28.699219 Z M 301.125 139.195312 L 301.082031 139.191406 C 299.085938 122.410156 298.949219 109.9375 298.949219 109.738281 L 298.632812 109.738281 C 298.632812 109.9375 298.773438 122.484375 300.785156 139.347656 L 291.949219 200.183594 L 279.5 200.183594 L 279.5 200.5 L 291.90625 200.5 L 291.21875 205.230469 L 291.527344 205.273438 L 292.21875 200.492188 L 303.417969 200.492188 L 303.417969 200.179688 L 292.265625 200.179688 L 300.925781 140.53125 C 302.152344 150.515625 304.039062 161.921875 306.933594 173.136719 L 307.238281 173.058594 C 304.234375 161.433594 302.320312 149.589844 301.09375 139.347656 Z M 342.289062 191.046875 L 342.164062 190.757812 L 331.546875 195.410156 C 319.242188 168.605469 313.144531 142.386719 310.183594 124.808594 C 306.832031 104.957031 306.644531 91.554688 306.644531 91.414062 L 306.332031 91.421875 C 306.332031 91.492188 306.386719 95.222656 306.914062 101.621094 C 301.207031 99.671875 300.25 92.917969 300.246094 92.851562 L 299.929688 92.886719 C 299.9375 92.957031 300.929688 100.003906 306.941406 101.960938 C 307.429688 107.730469 308.304688 115.589844 309.867188 124.851562 C 312.835938 142.449219 318.941406 168.699219 331.257812 195.535156 L 315.355469 202.507812 L 315.480469 202.796875 L 331.390625 195.824219 C 331.867188 196.863281 332.351562 197.894531 332.84375 198.933594 L 333.128906 198.800781 C 332.628906 197.769531 332.152344 196.730469 331.671875 195.699219 Z M 318.746094 94.132812 L 318.644531 93.839844 L 315.070312 95.046875 L 315.171875 95.34375 Z M 100.71875 124.71875 C 100.644531 124.574219 100.582031 124.460938 100.539062 124.398438 L 100.28125 124.582031 C 100.316406 124.636719 100.375 124.738281 100.441406 124.871094 C 100.832031 125.59375 101.671875 127.152344 103.15625 127.152344 C 103.382812 127.152344 103.621094 127.117188 103.875 127.039062 L 103.777344 126.738281 C 102.085938 127.261719 101.160156 125.542969 100.71875 124.71875 Z M 105 117.320312 L 104.929688 117.628906 C 104.941406 117.628906 105.421875 117.746094 106.03125 118.019531 C 105.78125 118.402344 105.15625 119.527344 105.574219 120.039062 C 106.007812 120.558594 107.257812 119.433594 107.644531 119.074219 C 107.820312 119.246094 107.984375 119.425781 108.121094 119.628906 L 108.378906 119.445312 C 107.253906 117.855469 105.085938 117.339844 105 117.320312 Z M 106.203125 114.898438 C 106.058594 115.457031 109.039062 117.617188 109.503906 117.394531 C 109.972656 117.175781 110.222656 116.496094 110.078125 116.289062 C 109.933594 116.082031 106.285156 114.589844 106.203125 114.898438 Z M 92.804688 116.664062 L 93.113281 116.742188 C 93.292969 115.984375 93.210938 115.175781 92.886719 114.46875 L 92.601562 114.601562 C 92.898438 115.242188 92.972656 115.972656 92.804688 116.664062 Z M 92.660156 119.378906 L 92.808594 119.101562 C 91.71875 118.496094 91.148438 116.847656 91.140625 116.835938 L 90.847656 116.9375 C 90.878906 117.003906 91.46875 118.714844 92.660156 119.378906 Z M 92.433594 125.921875 C 92.480469 126.039062 93.597656 127.78125 94.507812 128.542969 L 94.710938 128.304688 C 93.839844 127.582031 92.765625 125.890625 92.714844 125.792969 Z M 73.808594 154.5625 L 70.808594 146.640625 L 70.511719 146.753906 L 73.515625 154.675781 Z M 93.28125 130.886719 L 92.964844 130.859375 L 91.769531 144.042969 L 88.234375 135.214844 L 87.945312 135.332031 L 97.675781 159.632812 L 97.964844 159.511719 L 92.027344 144.691406 Z M 85.476562 172.394531 L 85.183594 172.292969 C 85.132812 172.429688 80.644531 185.460938 80.066406 187.070312 C 77.398438 185.976562 72.511719 186.117188 72.304688 186.121094 L 72.316406 186.4375 C 72.367188 186.4375 77.535156 186.285156 80.097656 187.417969 C 82.671875 188.558594 88.707031 193.484375 88.769531 193.535156 L 88.96875 193.289062 C 88.726562 193.085938 83.035156 188.445312 80.359375 187.191406 C 80.910156 185.648438 85.28125 172.953125 85.476562 172.394531 Z M 78.140625 213.964844 L 85.28125 216.035156 L 85.371094 215.730469 L 78.226562 213.660156 Z M 112.402344 211.042969 L 112.425781 211.359375 C 112.5625 211.347656 115.761719 211.074219 117.011719 210.042969 L 116.8125 209.804688 C 115.636719 210.769531 112.433594 211.039062 112.402344 211.042969 Z M 120.820312 164.976562 L 121.078125 165.15625 L 123.113281 162.3125 L 122.855469 162.132812 Z M 159.449219 163.117188 L 159.234375 163.351562 C 160.464844 164.484375 161.417969 166.761719 161.476562 166.9375 L 161.777344 166.851562 C 161.675781 166.523438 160.664062 164.238281 159.449219 163.117188 Z M 161.394531 163.144531 C 162.578125 164.390625 163.113281 166.164062 163.105469 166.351562 L 163.394531 166.484375 C 163.523438 166.214844 162.859375 164.230469 161.628906 162.929688 Z M 163.394531 163.320312 C 163.761719 163.894531 164.882812 165.621094 164.855469 166.214844 L 165.171875 166.226562 C 165.1875 165.75 164.734375 164.832031 163.660156 163.15625 Z M 130.910156 198.226562 C 130.964844 198.246094 136.617188 200.121094 140.429688 200.390625 L 140.457031 200.078125 C 136.679688 199.8125 131.066406 197.949219 131.011719 197.925781 Z M 130.222656 200.746094 L 130.089844 201.035156 C 130.910156 201.40625 135.0625 203.179688 139.140625 203.179688 C 139.324219 203.179688 139.507812 203.171875 139.6875 203.167969 L 139.675781 202.851562 C 135.503906 203.023438 131.066406 201.121094 130.222656 200.746094 Z M 129.511719 203.757812 L 129.398438 204.054688 C 129.4375 204.066406 133.011719 205.4375 136.574219 205.4375 C 136.984375 205.4375 137.398438 205.417969 137.800781 205.382812 L 137.769531 205.066406 C 133.929688 205.449219 129.554688 203.777344 129.511719 203.757812 Z M 129.511719 203.757812 " fill-opacity="1" fill-rule="nonzero"/></svg>