<svg xmlns="http://www.w3.org/2000/svg" xmlns:xlink="http://www.w3.org/1999/xlink" version="1.1" x="0px" y="0px" viewBox="0 0 51 63.75" enable-background="new 0 0 51 51" xml:space="preserve"><g><path d="M49.1070709,5.7720275c0.0671997-0.9482422,0.2200317-2.4390869-0.6977539-3.4309082   c-0.5400391-0.5839844-1.359375-0.6723633-2.0126953-0.684082c-13.6660156-0.2470703-27.6035156-0.0322266-41.402832,0.637207   C4.8029337,2.3035216,4.6173868,2.3313537,4.438859,2.3759093C3.1890419,2.687921,2.2819984,3.8211608,2.2931068,5.1648498   c0,0.0001831,0,0.0002441,0,0.0002441V5.165338c0.0161133,1.9350586,0.0151367,3.870605-0.0063477,5.8066401   c-0.0002441,0.0221558,0.0096436,0.0421753,0.0123291,0.0639648c-0.1266479,17.0239868-1.5807495,7.7578135-0.131958,35.7260742   c0.078125,1.5029297,1.3208008,2.6801758,2.8295901,2.6801758l0.1391602-0.003418   c9.1611328-0.4428711,17.5820313-0.6577148,25.7441406-0.6577148c2.8593597,0,5.2783203,0.0249023,7.3203125,0.0458984   c6.9082031,0.0722656,9.5517578,0.140625,10.6806641-1.1083984c1.006958-1.1148071,0.4694214-2.8881836,0.2382813-6.2739258   C47.733963,20.2603092,49.0208893,10.4063044,49.1070709,5.7720275z M5.0426188,3.2932677   c10.0683594-0.4887695,20.2446289-0.7363281,30.2475586-0.7363281c3.6845703,0,7.4150391,0.0336914,11.0888672,0.1000977   c0.635376,0.0115967,1.2399292,0.3415527,1.5800781,0.980835c0.1230469,0.4831543,0.1617432,1.1801758,0.1455688,2.1124878   c-0.097168,1.3815918-0.1921387,2.7689815-0.2647095,4.1488643c-1.3300781,0.0551758-2.3613281,0.0317383-3.9873047-0.0073242   c-1.6445313-0.0385742-3.8964844-0.0913086-7.6689453-0.0913086c-7.5819092,0-18.6425781,0.2220459-32.8799438,0.6607666   C3.3120887,8.9136286,3.3095863,7.160089,3.2931068,5.1570373C3.284806,4.1599669,4.0533609,3.3411193,5.0426188,3.2932677z    M48.1388092,47.0481491c-0.9274902,1.0274658-5.4630127,0.8255615-9.9287109,0.7788086   c-10.4629517-0.1074219-19.6879883-0.0362549-33.1220703,0.612793l-0.0913086,0.0024414   c-0.9765625,0-1.7802737-0.7607422-1.8305666-1.7319336c-1.4330444-27.661253-0.0178223-18.781065,0.1296997-35.2479248   c14.243041-0.4389648,25.3101807-0.6617432,32.8878784-0.6617432c3.7597656,0,6.0058594,0.0527344,7.6455078,0.0913086   c1.6360474,0.0369873,2.6795654,0.0609741,4.0144043,0.0074463c-0.3344116,5.8780527-0.7282715,15.2268076,0.2775879,30.6116943   C48.3358917,44.6549606,48.782486,46.3369064,48.1388092,47.0481491z"/><path d="M8.3526773,5.793756c-0.277832-0.4458008-0.8623047-0.7133789-1.421875-0.6196289   c-0.8734131,0.1417236-1.0269775,0.7804565-1.1899414,1.315918C5.6414957,6.6916442,5.7681437,7.3707824,6.2647867,7.7727599   C7.6047525,8.851922,9.2921305,7.3018126,8.3526773,5.793756z M7.0108805,5.6672912   c0.8403931-0.1393433,1.3583984,0.8294678,0.9941406,1.4863281c-0.4659424,0.8416748-1.769165,0.444397-1.7905273-0.5058594   C6.2257242,6.6121154,6.3783731,5.7703185,7.0108805,5.6672912z"/><path d="M12.4747477,6.5144591C12.251359,4.6664977,9.7730875,4.7074523,9.5938883,6.5974669   C9.5577555,8.5547419,12.7342691,8.6723566,12.4747477,6.5144591z M11.9781656,6.5740294   c0.1742554,1.443603-1.9033813,1.295166-1.8857422,0.0532227C10.2370768,5.3435607,11.8289347,5.3309264,11.9781656,6.5740294z"/><path d="M15.3487711,8.0696344c0.7998037-0.195312,1.0820303-0.9218745,1.0048819-1.5551753   c-0.0849609-0.7172852-0.6503897-1.5024414-1.6640615-1.340332C12.7846842,5.4839416,13.2940226,8.5726252,15.3487711,8.0696344z    M14.7696695,5.6672912c0.059082-0.0092773,0.1166992-0.0141602,0.1713867-0.0141602   c0.5541992,0,0.862793,0.4775391,0.9165039,0.9208984c0.0458984,0.3837891-0.0908203,0.8789063-0.6279297,1.0102539   c-0.6257324,0.151123-1.2675781-0.3254395-1.2573242-0.9580078C13.9727945,6.6179748,14.0616617,5.7825255,14.7696695,5.6672912z"/><path d="M20.4981842,6.5017638c7.7734375-0.4370117,15.6542969-0.3798828,23.4238281,0.1699219   c0.0117188,0.0009766,0.0234375,0.0014648,0.0361328,0.0014648c0.2597656,0,0.4794922-0.2011719,0.4980469-0.4648438   c0.0195313-0.2753906-0.1884766-0.5141602-0.4638672-0.5336914c-7.8115234-0.5551758-15.7353516-0.612793-23.5507813-0.1708984   c-0.2753906,0.0151367-0.4863281,0.2514648-0.4707031,0.5273438C19.9864655,6.305963,20.1983795,6.5178771,20.4981842,6.5017638z"/><path d="M40.8575592,18.2459049c-0.5872803-3.0854502-5.9990234-1.8465576-4.8105469,1.3945313   C37.0157623,22.2836857,41.4744415,21.636713,40.8575592,18.2459049z M38.3761139,16.8909245   c2.5409546,0,2.7243652,3.3890381,0.5478516,3.8276367c-1.0654297,0.2216797-2.0615234-0.3061523-2.4082031-1.2504883   C35.9824982,18.0129948,37.5319977,16.8909245,38.3761139,16.8909245z"/><path d="M22.4018707,23.8663883c0.0500488-0.039978,0.0700073-0.1099854,0.0700073-0.1699829   c0-0.5800171,0.0400391-1.1799927,0.0700073-1.75c0.0400391-0.5599976,0.0700073-1.1199951,0.0700073-1.6900024   c0.1699829,0,0.3400269,0.0100098,0.5100098,0.0100098c-0.0294189,0.440979-0.1099854,1.0691528-0.1099854,1.6099854   c0,0.1300049,0.1199951,0.2399902,0.25,0.2399902h1.4499512c0.0599976,0,0.1300049-0.0200195,0.1700439-0.0700073   c0.0499878-0.0499878,0.0799561-0.1099854,0.0799561-0.1799927c-0.0139771-0.5060425,0.0744019-1.1456299,0.1000366-1.5299683   h0.0599976c0.2600098,0.0099487,0.5200195,0.0199585,0.7799683,0.0199585c0,0.7453003-0.1278687,1.3988647-0.1099854,2.2200317   c0,0.1400146,0.1099854,0.25,0.25,0.25h1.4400024c0.0700073,0,0.1300049-0.0200195,0.1799927-0.0700073   c0.0400391-0.0499878,0.0700073-0.1099854,0.0700073-0.1799927c0-0.8538818,0.090332-1.3703003,0.1199951-2.1699829   c0.7000122,0.0199585,1.4100342,0.0299683,2.1000366,0.0299683c1.444397,0,2.725708-0.0509644,3.9055786-0.1429443   c0.1265259,0.5283813,0.288147,0.980896,0.4424438,1.2351685c1.1484375,1.909668,4.8052368,2.0200195,4.28125,1.9472656   c5.3479004,0,6.0133057-6.9703979,2.2929688-8.649415c-1.2324219-0.5507813-2.3427734-0.753418-3.2412109-0.5883789   c-1.0896606,0.1914673-3.5075684,1.779603-3.8693237,3.3202524c-1.1525269,0.0889282-2.397583,0.1380615-3.8117065,0.1380615   c-1.5900269,0-3.2300415-0.0599976-4.8099976-0.1099854c-1.5900269-0.0500488-3.2400513-0.1100464-4.8600464-0.1100464h-0.2199707   c-0.1400146,0-0.25,0.1199951-0.25,0.25v2.25c0,0.0700073,0.0299683,0.1300049,0.0700073,0.1800537   c0.0499878,0.039978,0.1099854,0.0699463,0.1799927,0.0699463h0.6099854c0,0.5500488-0.0299683,1.1100464-0.0700073,1.6900024   c-0.039978,0.5800171-0.0700073,1.1799927-0.0700073,1.7800293c0,0.1400146,0.1100464,0.25,0.25,0.25h1.4400024   C22.2918854,23.9464054,22.3518829,23.9163761,22.4018707,23.8663883z M34.478653,17.0510807   c0.3525391-0.5698242,2.0927734-2.1186533,3.2421875-2.3208017c0.1738281-0.0317383,0.3603516-0.0478516,0.5537109-0.0478516   c0.6992188,0,1.5048828,0.2021484,2.3955078,0.6000977c3.2493286,1.4664927,2.7192993,7.6933603-2.0888672,7.6933603   c-0.109314-0.0153198-1.2610474,0.0732422-2.7480469-0.7529297c-0.5410156-0.2954102-0.8916016-0.5976563-1.1054688-0.953125   C34.3204498,20.5989323,33.7784576,18.1882877,34.478653,17.0510807z M24.4618683,21.6163883h-0.9400024   c0.0238037-0.6652832,0.0678101-0.8151855,0.1000366-1.3300171c0.3200073,0.0100098,0.6300049,0.0200195,0.9400024,0.0300293   C24.5456696,20.5271549,24.4774323,21.150568,24.4618683,21.6163883z M27.2318878,22.3264103h-0.9400024   c0.020752-0.7663574,0.1008911-1.4158936,0.1199951-1.9500122c0.3099976,0.0100098,0.6199951,0.0200195,0.9400024,0.0200195   C27.325943,21.0437565,27.2504425,21.6223698,27.2318878,22.3264103z M20.3119049,19.7263737v-1.75   c1.5999756,0,3.2299805,0.0599976,4.8099976,0.1100464c1.5899658,0.0499878,3.2299805,0.1099854,4.8300171,0.1099854   c1.3713379,0,2.5922241-0.0447998,3.7207642-0.1306152c-0.0571289,0.5675659-0.0123901,1.1731567,0.0839844,1.7333374   c-1.1514282,0.090332-2.399292,0.1372681-3.8047485,0.1372681C29.1215973,19.9363956,20.4124908,19.7292423,20.3119049,19.7263737z    M22.0418854,21.9163761c-0.0299683,0.5-0.0599976,1.0100098-0.0700073,1.5300293h-0.9400024   c0.0100098-0.5,0.0400391-1.0100098,0.0700073-1.5c0.0300293-0.5700073,0.0700073-1.1400146,0.0700073-1.710022   c0.3099976,0,0.6199951,0,0.9400024,0.0100098C22.1118927,20.7863712,22.0719147,21.3463688,22.0418854,21.9163761z"/><path d="M10.449357,21.4294987c-0.1420898,0.7910156-0.2890625,1.5776367-0.4355469,2.3613281   c-0.1391602,0.7431641-0.2773438,1.4838867-0.4111328,2.2246094c-0.0131836,0.0727539,0.0068359,0.1479492,0.0541992,0.2045898   c0.0473633,0.0571289,0.1176758,0.0898438,0.1918945,0.0898438h4.7763672c0.003418-0.0004883,0.0073242-0.0009766,0.0126953,0   c0.1376953,0,0.25-0.1118164,0.25-0.25c0-0.0439453-0.0117188-0.0854492-0.0317383-0.121582   c-0.1655273-0.8549805-0.3256836-1.7099609-0.4858398-2.5688477c-0.1201172-0.644043-0.2407227-1.2900391-0.3647461-1.9394531   c0.8300781-0.2514648,1.3901367-1.1142578,1.4213867-2.234375c0.0371094-1.3339844-0.730957-2.8408203-2.5791016-3.2055674   l-1.2705078,0.0048828c-1.7910156,0.3579111-2.5585938,1.8691416-2.5249023,3.2080088   C9.0802164,20.3167057,9.6309977,21.176569,10.449357,21.4294987z M11.6261148,16.4900455l1.1728516-0.0048828   c1.5131836,0.3027344,2.1591797,1.5727539,2.1279297,2.6967773c-0.0224609,0.8149414-0.4169922,1.690918-1.2475586,1.8095703   c-0.0678711,0.0097656-0.1289063,0.046875-0.168457,0.1025391s-0.0546875,0.125-0.0419922,0.1918945   c0.1396484,0.7290039,0.2753906,1.4536133,0.4101563,2.175293c0.1464844,0.7851563,0.2924805,1.5668945,0.4428711,2.3486328   h-4.1738281c0.1166992-0.6416016,0.2368164-1.2836914,0.3569336-1.9267578   c0.1611328-0.862793,0.3232422-1.7285156,0.4785156-2.6000977c0.0117188-0.0664063-0.0039063-0.1352539-0.0429688-0.1899414   c-0.0395508-0.0546875-0.0996094-0.0913086-0.1665039-0.1010742c-0.815918-0.1210938-1.2016602-0.9921875-1.2216797-1.8012695   C9.5240641,18.0608463,10.1695719,16.7864323,11.6261148,16.4900455z"/><path d="M43.1163483,28.582819c-7.1660156,0.8286133-14.4423828,1.1176758-21.6357422,0.859375   c-0.2685547-0.0200195-0.5068359,0.2055664-0.5175781,0.4814453c-0.0097656,0.2758789,0.2060547,0.5078125,0.4824219,0.5175781   c1.7158203,0.0620117,3.4355469,0.0927734,5.1582031,0.0927734c5.5488281,0,11.1230469-0.3203125,16.6279297-0.9580078   c0.2744141-0.0317383,0.4707031-0.2797852,0.4394531-0.5541992C43.6388092,28.7468815,43.384903,28.5501041,43.1163483,28.582819z"/><path d="M43.1163483,33.1545944c-7.1640625,0.8300781-14.4414063,1.1191406-21.6357422,0.859375   c-0.2685547-0.0180664-0.5068359,0.2055664-0.5175781,0.4814453c-0.0097656,0.2758789,0.2060547,0.5078125,0.4824219,0.5175781   c1.7167969,0.0620117,3.4384766,0.0932617,5.1630859,0.0932617c5.5478516,0,11.1191406-0.3208008,16.6230469-0.9584961   c0.2744141-0.0317383,0.4707031-0.2797852,0.4394531-0.5541992C43.6388092,33.3181686,43.384903,33.1189499,43.1163483,33.1545944z   "/><path d="M43.1163483,37.7263718c-7.1640625,0.8305664-14.4414063,1.1201172-21.6357422,0.859375   c-0.2685547-0.0166016-0.5068359,0.2055664-0.5175781,0.4814453c-0.0097656,0.2758789,0.2060547,0.5078125,0.4824219,0.5175781   c1.7167969,0.0620117,3.4384766,0.0932617,5.1630859,0.0932617c5.5478516,0,11.1191406-0.3208008,16.6230469-0.9584961   c0.2744141-0.0317383,0.4707031-0.2797852,0.4394531-0.5541992C43.6388092,37.8904343,43.384903,37.6941452,43.1163483,37.7263718z   "/><path d="M43.1163483,42.2986374c-7.1650391,0.8295898-14.4433594,1.1186523-21.6357422,0.8588867   c-0.2685547-0.0146484-0.5068359,0.2055664-0.5175781,0.4814453c-0.0097656,0.2758789,0.2060547,0.5078125,0.4824219,0.5175781   c1.7167969,0.0620117,3.4394531,0.0932617,5.1640625,0.0932617c5.546875,0,11.1181641-0.3203125,16.6220703-0.9580078   c0.2744141-0.0317383,0.4707031-0.2797852,0.4394531-0.5541992C43.6388092,42.4622116,43.384903,42.2625046,43.1163483,42.2986374z   "/><path d="M17.7237701,29.4495182c-4.1757803,0.2519531-7.7817373,0.230957-11.3261709-0.0644531   c-0.1411133-0.0136719-0.2788086,0.0361328-0.3813477,0.1313477c-0.1030273,0.0952148-0.1611328,0.2294922-0.1601563,0.3701172   L5.9059,36.777153c0.0517578,6.8696289,0.0517578,6.8696289-0.0708008,7.6713867l-0.0019531,0.012207   c-0.0224609,0.1450195,0.0200195,0.2924805,0.1162109,0.4033203c0.0952148,0.109375,0.2329102,0.1723633,0.3779297,0.1723633   c0.0014648,0,0.0029297,0,0.0043945,0c1.878418-0.0170898,3.8208008-0.1044922,5.6987305-0.1894531   c1.8696289-0.0839844,3.8027344-0.1708984,5.6640615-0.1879883c0.2587891-0.0024414,0.4736328-0.203125,0.4941406-0.4619141   c0.3818359-4.9833984,0.7109375-9.2871094,0.0615234-14.3124981C18.2169342,29.6238346,17.9981842,29.426569,17.7237701,29.4495182   z M17.2257233,43.66436c-1.734374,0.0258789-3.5141592,0.105957-5.2402334,0.184082   c-1.6777344,0.0751953-3.4067383,0.1533203-5.0888672,0.1806641c0.059082-0.6865234,0.0493164-1.9277344,0.0092773-7.2597656   l-0.0458984-6.3447247c3.2817383,0.2480469,6.6455078,0.2651367,10.4555655,0.050293   C17.8565826,35.0530319,17.5763092,39.0818405,17.2257233,43.66436z"/></g><text x="0" y="66" fill="#000000" font-size="5px" font-weight="bold" font-family="'Helvetica Neue', Helvetica, Arial-Unicode, Arial, Sans-serif">Created by Vectors Point</text><text x="0" y="71" fill="#000000" font-size="5px" font-weight="bold" font-family="'Helvetica Neue', Helvetica, Arial-Unicode, Arial, Sans-serif">from the Noun Project</text></svg>