<svg xmlns="http://www.w3.org/2000/svg" xmlns:xlink="http://www.w3.org/1999/xlink" width="500" zoomAndPan="magnify" viewBox="0 0 375 374.999991" height="500" preserveAspectRatio="xMidYMid meet" version="1.0"><defs><g/><clipPath id="6b34b9dc6f"><path d="M 295.617188 187.417969 L 307.707031 187.417969 L 307.707031 200.324219 L 295.617188 200.324219 Z M 295.617188 187.417969 " clip-rule="nonzero"/></clipPath><clipPath id="35870a5089"><path d="M 281.679688 184.023438 L 307.707031 184.023438 L 307.707031 210.511719 L 281.679688 210.511719 Z M 281.679688 184.023438 " clip-rule="nonzero"/></clipPath><clipPath id="548db3a08d"><path d="M 141 284.199219 L 242.925781 284.199219 L 242.925781 292.136719 L 141 292.136719 Z M 141 284.199219 " clip-rule="nonzero"/></clipPath><clipPath id="9b1674c5c3"><path d="M 33.632812 46.527344 L 347.882812 46.527344 L 347.882812 360.777344 L 33.632812 360.777344 Z M 33.632812 46.527344 " clip-rule="nonzero"/></clipPath></defs><path fill="#ffffff" d="M 273.792969 163.230469 C 248.21875 138.226562 225.101562 112.160156 203.113281 83.96875 C 202.316406 82.945312 200.925781 82.898438 200.042969 83.835938 C 162.765625 123.457031 121.179688 159.652344 76.148438 190.246094 C 73.992188 191.710938 76.351562 195.070312 78.484375 193.554688 C 122.773438 162.085938 163.816406 127.277344 201.367188 88.023438 C 223.023438 115.929688 245.929688 141.570312 271.195312 166.3125 C 273.050781 168.132812 275.644531 165.035156 273.792969 163.230469 " fill-opacity="1" fill-rule="nonzero"/><g clip-path="url(#6b34b9dc6f)"><path fill="#ffffff" d="M 307.148438 196.808594 C 304.394531 193.953125 301.636719 191.09375 298.878906 188.238281 C 297.152344 186.445312 294.617188 189.4375 296.375 191.210938 C 299.164062 194.027344 301.953125 196.84375 304.742188 199.660156 C 306.441406 201.378906 308.796875 198.515625 307.148438 196.808594 " fill-opacity="1" fill-rule="nonzero"/></g><path fill="#ffffff" d="M 280.3125 121.167969 C 274.566406 120.875 269.171875 123.972656 265.539062 128.355469 C 262.359375 125.835938 258.492188 124.441406 254.222656 124.292969 C 249.011719 124.121094 248.703125 132.277344 253.921875 132.382812 C 257.980469 132.464844 260.820312 134.078125 263.25 137.296875 C 264.671875 139.183594 268.441406 138.902344 269.484375 136.730469 C 271.964844 131.546875 275.71875 129.707031 281.007812 128.269531 C 284.894531 127.214844 284.449219 121.378906 280.3125 121.167969 " fill-opacity="1" fill-rule="nonzero"/><path fill="#ffffff" d="M 259.824219 104.203125 C 255.894531 104.550781 252.6875 106.238281 250.234375 109.085938 C 247.425781 107.007812 244.179688 106.070312 240.527344 106.308594 C 237.625 106.5 238.117188 110.691406 241.066406 110.285156 C 244.136719 109.863281 246.980469 111.148438 249.125 113.273438 C 250.066406 114.207031 251.570312 113.949219 252.257812 112.871094 C 254.011719 110.128906 256.550781 108.507812 259.824219 108.175781 C 262.339844 107.921875 262.390625 103.972656 259.824219 104.203125 " fill-opacity="1" fill-rule="nonzero"/><path fill="#ffffff" d="M 107.03125 178.300781 C 97.398438 186.101562 87.488281 193.335938 76.871094 199.5 C 74.625 200.804688 76.59375 204.375 78.851562 203.035156 C 89.605469 196.636719 100.804688 188.605469 109.433594 180.792969 C 111.101562 179.277344 108.75 176.910156 107.03125 178.300781 " fill-opacity="1" fill-rule="nonzero"/><g clip-path="url(#35870a5089)"><path fill="#ffffff" d="M 307.101562 207.289062 C 300.144531 199.554688 292.207031 192.6875 285.328125 184.882812 C 283.605469 182.929688 280.523438 185.984375 282.464844 187.746094 C 290.171875 194.734375 296.917969 202.765625 304.554688 209.835938 C 306.261719 211.417969 308.652344 209.011719 307.101562 207.289062 " fill-opacity="1" fill-rule="nonzero"/></g><path fill="#ffffff" d="M 261.4375 165.042969 C 240.613281 143.195312 220.996094 120.261719 202.804688 96.179688 C 202.136719 95.296875 200.710938 94.777344 199.839844 95.796875 C 180.800781 118.132812 159.753906 138.082031 136.363281 155.839844 C 134.050781 157.589844 136.484375 160.820312 138.816406 159.015625 C 161.453125 141.507812 182.332031 121.683594 201.070312 100.058594 C 218.960938 123.75 238.117188 146.367188 258.746094 167.730469 C 260.449219 169.496094 263.125 166.8125 261.4375 165.042969 " fill-opacity="1" fill-rule="nonzero"/><path fill="#ffffff" d="M 262.160156 234.71875 C 262.078125 232.28125 258.328125 232.261719 258.355469 234.71875 C 258.480469 245.707031 258.746094 256.726562 259.148438 267.710938 C 259.234375 270.078125 262.871094 270.101562 262.851562 267.710938 C 262.761719 256.71875 262.53125 245.703125 262.160156 234.71875 " fill-opacity="1" fill-rule="nonzero"/><path fill="#ffffff" d="M 266.734375 239.285156 C 264.765625 242.085938 262.636719 244.753906 260.421875 247.355469 C 258.820312 245.140625 257.21875 242.925781 255.617188 240.714844 C 254.097656 238.613281 250.566406 240.675781 252.121094 242.757812 C 254.289062 245.660156 256.460938 248.566406 258.628906 251.472656 C 259.328125 252.40625 260.761719 252.878906 261.675781 251.863281 C 264.703125 248.488281 267.523438 244.964844 270.179688 241.300781 C 271.683594 239.226562 268.207031 237.191406 266.734375 239.285156 " fill-opacity="1" fill-rule="nonzero"/><path fill="#ffffff" d="M 277.382812 248.269531 C 271.832031 252.308594 266.453125 256.589844 261.039062 260.816406 C 256.429688 257.722656 251.847656 254.382812 247.714844 250.714844 C 245.542969 248.789062 242.84375 252.179688 245.257812 253.894531 C 250.273438 257.449219 255.175781 261.207031 260.121094 264.863281 C 260.863281 265.410156 261.828125 265.050781 262.457031 264.558594 C 268.175781 260.101562 273.976562 255.710938 279.550781 251.074219 C 281.089844 249.789062 279.03125 247.074219 277.382812 248.269531 " fill-opacity="1" fill-rule="nonzero"/><path fill="#ffffff" d="M 261.097656 285.71875 C 252.625 285.175781 248.855469 278.292969 250.015625 270.65625 C 257.441406 270.609375 264.828125 270.480469 272.234375 269.914062 C 273.089844 277.699219 270.734375 286.335938 261.097656 285.71875 Z M 275.839844 267.292969 C 275.714844 266.507812 274.71875 265.773438 273.929688 265.84375 C 265.3125 266.585938 256.621094 267.050781 247.972656 266.625 C 246.257812 266.539062 246.292969 268.207031 246.242188 269.550781 C 245.792969 282.308594 249.945312 289.289062 261.851562 289.5625 C 274.53125 289.851562 277.457031 277.546875 275.839844 267.292969 " fill-opacity="1" fill-rule="nonzero"/><path fill="#ffffff" d="M 290.261719 231.683594 C 285.882812 233.714844 281.296875 230.929688 280.917969 226.121094 C 280.6875 223.191406 281.515625 220.835938 283.144531 219.296875 C 285.765625 216.820312 290.519531 216.085938 293.390625 220.085938 C 296.203125 224.015625 294.566406 229.6875 290.261719 231.683594 Z M 297.355469 218.785156 C 294.875 214.277344 290.617188 212.441406 285.765625 213.523438 C 277.789062 215.292969 275.957031 222.890625 277.273438 228.394531 C 278.835938 234.941406 286.003906 238.191406 292.0625 235.285156 C 298.128906 232.378906 300.609375 224.707031 297.355469 218.785156 " fill-opacity="1" fill-rule="nonzero"/><path fill="#ffffff" d="M 288.796875 221.460938 C 287.410156 220.929688 285.832031 221.667969 285.296875 222.957031 C 284.496094 223.917969 284.371094 225.335938 285.257812 226.402344 C 286.539062 227.945312 288.972656 227.566406 290.066406 226.019531 C 291.152344 224.484375 290.582031 222.140625 288.796875 221.460938 " fill-opacity="1" fill-rule="nonzero"/><path fill="#ffffff" d="M 289.816406 235.074219 C 289.902344 232.464844 285.65625 232.46875 285.765625 235.074219 C 286.109375 243.074219 286.394531 251.277344 285.941406 259.273438 C 285.796875 261.804688 290.046875 261.796875 289.878906 259.273438 C 289.347656 251.28125 289.550781 243.078125 289.816406 235.074219 " fill-opacity="1" fill-rule="nonzero"/><path fill="#ffffff" d="M 293.753906 280.277344 C 292.796875 282.058594 290.480469 283.925781 287.824219 283.511719 C 285.367188 283.132812 283.652344 281.101562 283.105469 276.972656 C 282.878906 275.28125 282.902344 273.480469 282.824219 271.78125 C 282.679688 268.46875 282.597656 265.15625 282.515625 261.839844 C 286.800781 261.769531 291.085938 261.769531 295.375 261.75 C 295.835938 267.730469 296.484375 275.199219 293.753906 280.277344 Z M 299.234375 259.753906 C 299.171875 258.675781 298.367188 257.753906 297.234375 257.757812 C 291.585938 257.773438 285.933594 257.898438 280.285156 257.820312 C 278.621094 257.796875 278.367188 259.882812 278.359375 261.171875 C 278.289062 269.222656 276.195312 289.527344 289.609375 288.042969 C 302.457031 286.621094 299.71875 268.222656 299.234375 259.753906 " fill-opacity="1" fill-rule="nonzero"/><path fill="#ffffff" d="M 100.457031 254.941406 C 93.847656 257.226562 78.867188 255.707031 73 254.722656 C 68.902344 254.035156 65.5625 253.441406 65.445312 250.398438 C 65.308594 246.796875 69.050781 246.371094 69.5 243.457031 C 69.859375 241.109375 65.511719 239.332031 67.398438 236.042969 C 69.121094 233.035156 73.34375 235.015625 73.527344 235.1875 C 75.035156 236.644531 77.425781 236.78125 77.4375 234.40625 C 77.472656 227.730469 77.445312 216.871094 84.980469 217.816406 C 91.3125 218.613281 91.871094 232.703125 92.246094 236.621094 C 92.363281 237.832031 93.449219 238.476562 94.585938 238.191406 C 102.175781 235.574219 105.863281 239.175781 107.207031 244.96875 C 108.34375 249.875 105.832031 253.085938 100.457031 254.941406 Z M 95.710938 234.214844 C 95.394531 226.453125 93.972656 213.597656 84.496094 213.640625 C 74.984375 213.683594 73.492188 223.007812 73.367188 230.632812 C 70.679688 229.414062 67.65625 229.539062 65.203125 231.929688 C 61.722656 235.316406 62.617188 239.90625 64.8125 243.605469 C 60.5 245.898438 58.949219 251.738281 63.355469 255.988281 C 66.386719 258.90625 72.695312 259.199219 76.605469 259.527344 C 85.09375 260.242188 92.378906 260.367188 98.734375 259.75 C 120.003906 257.683594 113.097656 230.035156 95.710938 234.214844 " fill-opacity="1" fill-rule="nonzero"/><path fill="#ffffff" d="M 86.722656 258.171875 C 86.964844 255.835938 82.242188 255.960938 82.742188 258.636719 C 83.144531 260.777344 82.902344 262.949219 82.941406 265.097656 C 82.976562 267.085938 83.070312 269.046875 83.03125 271.035156 C 82.988281 273.242188 87.113281 273.238281 87.023438 271.035156 C 86.859375 266.828125 86.285156 262.359375 86.722656 258.171875 " fill-opacity="1" fill-rule="nonzero"/><path fill="#ffffff" d="M 93.246094 282.925781 C 90.875 284.746094 86.921875 285.589844 83.992188 285.585938 C 80.515625 285.578125 77.242188 283.871094 75.335938 280.925781 C 74.015625 278.890625 73.476562 276.746094 73.164062 274.542969 C 80.894531 274.605469 89.09375 273.761719 96.890625 274.117188 C 96.761719 277.449219 96.027344 280.792969 93.246094 282.925781 Z M 98.914062 270.222656 C 93.949219 269.910156 88.988281 269.738281 84.011719 269.925781 C 79.738281 270.089844 75.789062 269.847656 71.105469 270.515625 C 68.554688 270.878906 68.933594 274.027344 69.210938 275.898438 C 69.691406 279.113281 70.976562 282.617188 74.074219 285.648438 C 77.257812 288.765625 81.382812 289.890625 85.746094 289.488281 C 95.992188 288.542969 101.097656 282.371094 100.863281 272.222656 C 100.839844 271.113281 100.015625 270.289062 98.914062 270.222656 " fill-opacity="1" fill-rule="nonzero"/><path fill="#ffffff" d="M 125.164062 271.675781 C 121.625 274.746094 116.207031 272.683594 115.152344 268.328125 C 113.734375 262.46875 118.136719 256.519531 124.15625 259.015625 C 128.945312 261 128.734375 268.574219 125.164062 271.675781 Z M 126.960938 256.027344 C 121.648438 252.691406 116.234375 255.28125 112.972656 259.507812 C 110.75 262.378906 110.199219 266.402344 111.589844 270.265625 C 113.910156 276.71875 122.214844 279.367188 127.617188 274.847656 C 133.148438 270.21875 133.308594 260.011719 126.960938 256.027344 " fill-opacity="1" fill-rule="nonzero"/><path fill="#ffffff" d="M 119.210938 276.671875 C 119.109375 280.148438 119.234375 283.71875 118.839844 287.175781 C 118.558594 289.65625 122.878906 289.769531 122.789062 287.175781 C 122.675781 283.699219 123.082031 280.148438 123.261719 276.671875 C 123.394531 274.078125 119.285156 274.0625 119.210938 276.671875 " fill-opacity="1" fill-rule="nonzero"/><path fill="#ffffff" d="M 131.378906 276.164062 C 128.273438 277.539062 125.441406 279.542969 122.324219 280.867188 C 120.414062 281.675781 119.832031 281.332031 117.964844 280.378906 C 116.503906 279.628906 115.058594 278.855469 113.644531 278.015625 C 111.355469 276.65625 109.261719 280.476562 111.601562 281.511719 C 114.457031 282.773438 118.058594 285.820312 121.300781 285.527344 C 122.898438 285.382812 124.363281 284.324219 125.734375 283.59375 C 128.273438 282.246094 130.871094 280.976562 133.300781 279.449219 C 135.417969 278.117188 133.578125 275.191406 131.378906 276.164062 " fill-opacity="1" fill-rule="nonzero"/><g clip-path="url(#548db3a08d)"><path fill="#ffffff" d="M 241.527344 285.414062 C 233.738281 282.847656 227.523438 285.082031 219.804688 286.796875 C 209.203125 289.144531 200.304688 284.300781 189.921875 284.496094 C 186.53125 284.558594 183.664062 285.625 180.457031 286.613281 C 173.828125 288.65625 168.566406 287.945312 161.980469 286.253906 C 155.027344 284.46875 149.394531 283.613281 142.570312 286.261719 C 139.835938 287.324219 141.542969 291.351562 144.128906 289.960938 C 152.753906 285.335938 161.28125 291.339844 169.878906 292.070312 C 177.714844 292.738281 183.742188 288.175781 191.46875 288.441406 C 198.929688 288.699219 205.863281 292.125 213.40625 291.867188 C 222.851562 291.539062 230.792969 286.089844 240.457031 289.289062 C 242.917969 290.101562 243.976562 286.222656 241.527344 285.414062 " fill-opacity="1" fill-rule="nonzero"/></g><path fill="#ffffff" d="M 120.53125 263.109375 C 119.078125 263.738281 118.421875 265.507812 118.875 266.945312 C 119.085938 267.929688 119.757812 268.78125 120.921875 269.070312 C 122.96875 269.582031 124.878906 267.839844 124.765625 265.796875 C 124.652344 263.710938 122.503906 262.261719 120.53125 263.109375 " fill-opacity="1" fill-rule="nonzero"/><g clip-path="url(#9b1674c5c3)"><path fill="#ffffff" d="M 190.757812 360.777344 C 104.144531 360.777344 33.632812 290.265625 33.632812 203.652344 C 33.632812 117.039062 104.144531 46.527344 190.757812 46.527344 C 277.367188 46.527344 347.882812 117.039062 347.882812 203.652344 C 347.882812 290.265625 277.367188 360.777344 190.757812 360.777344 Z M 190.757812 48.847656 C 105.382812 48.847656 35.953125 118.277344 35.953125 203.652344 C 35.953125 289.027344 105.382812 358.457031 190.757812 358.457031 C 276.128906 358.457031 345.558594 289.027344 345.558594 203.652344 C 345.558594 118.277344 276.128906 48.847656 190.757812 48.847656 Z M 190.757812 48.847656 " fill-opacity="1" fill-rule="nonzero"/></g><g fill="#ffffff" fill-opacity="1"><g transform="translate(113.085523, 223.999994)"><g><path d="M 7.917969 -23.199219 L 3.601562 -23.199219 L 3.601562 0 L 7.917969 0 L 7.917969 -10.078125 L 22 -10.078125 L 22 -13.597656 L 7.917969 -13.597656 Z M 24.839844 0 L 29.199219 0 L 29.199219 -23.199219 L 24.839844 -23.199219 Z M 24.839844 0 "/></g></g></g><g fill="#ffffff" fill-opacity="1"><g transform="translate(145.842265, 223.999994)"><g><path d="M 26 -16.519531 C 26.519531 -15.71875 27.039062 -14.960938 27.199219 -13.839844 C 27.316406 -12.800781 27.238281 -10.28125 27.117188 -9.480469 C 26.636719 -5.757812 24.320312 -3.441406 19.796875 -3.160156 C 19.238281 -3.121094 15.160156 -3.160156 14.640625 -3.199219 C 10.28125 -3.480469 7.640625 -6.121094 7.359375 -9.597656 C 7.28125 -10.597656 7.28125 -12.839844 7.441406 -13.839844 C 8.039062 -17.398438 10.519531 -19.597656 14.679688 -19.917969 C 15.4375 -20 19.078125 -20 19.796875 -19.917969 C 21.199219 -19.796875 23.117188 -19.117188 24.160156 -18.640625 L 24.160156 -22.359375 C 23 -23.238281 21.398438 -23.480469 20.199219 -23.597656 C 19.078125 -23.71875 15.160156 -23.679688 14.117188 -23.558594 C 8.160156 -22.917969 3.757812 -19.117188 3.121094 -14.238281 C 2.960938 -13 2.960938 -10.597656 3.078125 -9.160156 C 3.480469 -4.441406 7.960938 0.199219 14.117188 0.441406 C 15.320312 0.480469 19.320312 0.519531 20.199219 0.480469 C 26.316406 0.238281 30.519531 -3.800781 31.359375 -9.121094 C 31.558594 -10.398438 31.519531 -13 31.398438 -14.398438 C 31.238281 -16.277344 30.078125 -17.917969 28.796875 -19.359375 Z M 26 -16.519531 "/></g></g></g><g fill="#ffffff" fill-opacity="1"><g transform="translate(180.318837, 223.999994)"><g><path d="M 5.039062 -23.199219 L 0.800781 -23.199219 L 8.839844 0 L 13.039062 0 Z M 21.878906 -23.199219 L 16.679688 -23.199219 L 11.640625 -6.078125 L 15.4375 -6.078125 L 19.199219 -18.398438 L 19.359375 -18.398438 L 25.320312 0 L 29.636719 0 Z M 32.117188 -6.078125 L 37.71875 -23.199219 L 33.4375 -23.199219 L 28.199219 -6.078125 Z M 32.117188 -6.078125 "/></g></g></g><g fill="#ffffff" fill-opacity="1"><g transform="translate(218.87501, 223.999994)"><g><path d="M 2.800781 -19.917969 L 7.160156 -19.917969 L 9.558594 -30 L 4.917969 -30 Z M 2.800781 -19.917969 "/></g></g></g><g fill="#ffffff" fill-opacity="1"><g transform="translate(230.873819, 223.999994)"><g><path d="M 14.199219 -13.480469 L 13.277344 -13.519531 C 9.597656 -13.71875 7.878906 -14.398438 7.480469 -16.640625 L 7.480469 -17.4375 C 7.960938 -20.199219 12.359375 -20.078125 15.480469 -20.039062 C 17.117188 -20 24 -19.4375 27.316406 -18.71875 L 27.316406 -22.277344 C 23.839844 -23.078125 17.597656 -23.597656 15.320312 -23.597656 C 9.757812 -23.597656 3.199219 -23.238281 2.960938 -17.800781 C 2.917969 -17.160156 3 -15.960938 3.078125 -15.480469 C 4.160156 -11.839844 7.160156 -10.398438 13.160156 -9.917969 L 14.199219 -9.878906 Z M 17.757812 -9.71875 C 21.238281 -9.519531 23.796875 -9.078125 23.757812 -6.039062 C 23.71875 -5.558594 23.558594 -5.078125 23.398438 -4.878906 C 22.558594 -3.199219 19.117188 -3.078125 15.398438 -3.078125 C 13.160156 -3.078125 6.121094 -3.839844 3.078125 -4.679688 L 3.078125 -0.878906 C 6.078125 -0.238281 13 0.519531 15.4375 0.519531 C 19.917969 0.519531 25.476562 0.800781 27.636719 -3.28125 C 28.078125 -4.398438 28.160156 -5.558594 28.160156 -6.480469 C 28.160156 -10.917969 24.597656 -13 17.757812 -13.320312 Z M 17.757812 -9.71875 "/></g></g></g></svg>